{"glyphs":{"0":{"ha":704,"x_min":49,"x_max":656,"o":"m 656 441 q 640 256 656 340 q 587 113 624 173 q 490 20 550 53 q 343 -13 431 -13 q 204 17 260 -13 q 113 103 147 46 q 63 244 78 161 q 49 437 49 328 q 65 621 49 537 q 118 765 81 705 q 214 858 155 825 q 361 890 274 890 q 501 861 444 890 q 592 774 557 831 q 641 633 627 717 q 656 441 656 549 m 536 433 q 532 551 536 498 q 518 643 527 603 q 494 712 509 683 q 459 759 479 741 q 413 786 439 778 q 354 795 387 795 q 260 768 296 795 q 204 693 224 741 q 176 582 183 646 q 168 445 168 518 q 178 278 168 347 q 211 165 189 209 q 267 102 233 122 q 350 83 301 83 q 417 95 388 83 q 466 130 446 107 q 500 184 487 153 q 522 255 514 216 q 533 339 530 294 q 536 433 536 384 z "},"1":{"ha":704,"x_min":118,"x_max":629,"o":"m 629 46 q 627 24 629 33 q 621 10 625 16 q 613 2 618 5 q 604 0 609 0 l 146 0 q 137 2 141 0 q 129 10 133 5 q 123 24 125 16 q 121 46 121 33 q 123 67 121 58 q 129 82 125 76 q 136 91 132 87 q 146 94 140 94 l 329 94 l 329 761 l 159 660 q 139 652 146 653 q 126 655 131 650 q 120 669 121 659 q 118 695 118 680 q 119 715 118 707 q 122 728 120 723 q 128 738 124 734 q 138 746 132 742 l 340 876 q 347 879 342 878 q 357 882 351 880 q 371 883 363 883 q 391 884 379 884 q 418 882 408 884 q 435 879 429 881 q 444 872 441 876 q 446 865 446 869 l 446 94 l 604 94 q 614 91 610 94 q 622 82 619 87 q 627 67 625 76 q 629 46 629 58 z "},"2":{"ha":704,"x_min":77,"x_max":627,"o":"m 627 50 q 625 28 627 38 q 620 13 623 19 q 612 3 617 6 q 601 0 607 0 l 116 0 q 99 2 106 0 q 87 10 92 5 q 80 26 82 16 q 77 51 77 36 q 78 75 77 64 q 83 93 79 85 q 91 108 86 100 q 104 125 96 116 l 275 305 q 369 417 334 368 q 424 507 405 467 q 450 581 444 548 q 456 644 456 614 q 446 699 456 673 q 419 745 437 725 q 374 776 401 764 q 311 787 347 787 q 237 776 270 787 q 179 751 204 764 q 138 726 155 737 q 113 714 121 714 q 105 717 109 714 q 99 726 101 720 q 95 742 96 732 q 94 766 94 752 q 94 784 94 777 q 97 797 95 791 q 101 807 98 802 q 112 819 104 812 q 140 838 120 826 q 190 862 160 850 q 257 882 220 874 q 333 890 293 890 q 445 872 397 890 q 524 823 492 854 q 571 751 555 792 q 587 663 587 709 q 579 579 587 621 q 548 489 572 537 q 478 381 524 440 q 357 244 433 321 l 218 99 l 600 99 q 611 96 606 99 q 620 87 616 93 q 625 72 623 81 q 627 50 627 62 z "},"3":{"ha":704,"x_min":70,"x_max":620,"o":"m 620 251 q 599 142 620 191 q 538 59 578 94 q 441 6 499 24 q 311 -13 384 -13 q 229 -6 267 -13 q 161 11 191 1 q 111 32 131 21 q 86 47 92 42 q 79 56 81 52 q 74 68 76 61 q 71 84 72 75 q 70 109 70 94 q 75 142 70 133 q 88 152 79 152 q 112 141 94 152 q 158 118 130 130 q 224 94 186 105 q 308 83 262 83 q 387 95 353 83 q 444 127 420 106 q 478 177 467 149 q 490 240 490 206 q 475 307 490 277 q 432 359 460 337 q 363 392 404 380 q 270 404 322 404 l 186 404 q 176 406 181 404 q 167 414 171 408 q 161 428 163 419 q 159 451 159 437 q 161 472 159 464 q 166 486 163 481 q 175 493 170 491 q 186 496 180 496 l 262 496 q 343 507 307 496 q 403 541 378 519 q 441 592 428 562 q 454 660 454 623 q 446 712 454 687 q 419 755 437 736 q 374 784 401 773 q 311 794 347 794 q 238 782 271 794 q 180 757 205 770 q 137 731 154 743 q 113 720 120 720 q 105 721 109 720 q 99 728 101 723 q 95 742 96 733 q 94 766 94 751 q 95 784 94 777 q 98 798 96 792 q 102 808 100 804 q 112 820 105 813 q 138 838 118 826 q 186 862 157 850 q 253 882 215 874 q 334 890 290 890 q 441 875 395 890 q 518 831 487 859 q 564 763 549 802 q 579 675 579 723 q 568 598 579 633 q 536 535 557 562 q 485 488 515 507 q 414 461 454 469 l 414 460 q 497 437 460 455 q 562 392 535 419 q 605 329 589 365 q 620 251 620 292 z "},"4":{"ha":704,"x_min":33,"x_max":664,"o":"m 664 250 q 657 214 664 227 q 638 201 650 201 l 539 201 l 539 17 q 536 8 539 12 q 527 1 534 4 q 509 -3 520 -1 q 481 -4 498 -4 q 454 -3 465 -4 q 437 1 444 -1 q 428 8 431 4 q 426 17 426 12 l 426 201 l 64 201 q 50 203 56 201 q 40 211 45 205 q 34 227 36 216 q 33 253 33 237 q 33 276 33 266 q 36 295 34 286 q 41 311 38 303 q 50 328 45 319 l 366 861 q 375 870 369 866 q 392 877 382 874 q 417 881 402 880 q 452 882 432 882 q 491 880 475 882 q 518 876 508 878 q 534 868 528 873 q 539 858 539 864 l 539 298 l 638 298 q 657 286 650 298 q 664 250 664 274 m 426 779 l 425 779 l 139 298 l 426 298 l 426 779 z "},"5":{"ha":704,"x_min":68,"x_max":623,"o":"m 623 282 q 599 157 623 212 q 532 64 575 102 q 428 7 488 26 q 295 -13 368 -13 q 218 -7 254 -13 q 153 7 181 -1 q 106 24 124 16 q 82 37 87 32 q 75 45 77 41 q 72 55 73 50 q 69 70 70 61 q 68 91 68 79 q 70 112 68 102 q 73 126 71 121 q 80 135 76 132 q 88 138 83 138 q 109 129 95 138 q 148 111 123 121 q 207 92 172 101 q 292 83 243 83 q 375 94 337 83 q 440 128 413 105 q 484 186 468 151 q 499 271 499 221 q 486 346 499 313 q 445 399 473 378 q 376 431 418 420 q 275 441 334 441 q 204 437 234 441 q 149 433 174 433 q 121 442 130 433 q 113 476 113 451 l 113 833 q 124 867 113 856 q 154 878 134 878 l 543 878 q 553 874 548 878 q 562 865 558 871 q 567 850 565 859 q 568 827 568 840 q 562 789 568 803 q 543 776 555 776 l 215 776 l 215 530 q 263 534 239 533 q 321 534 288 534 q 452 516 396 534 q 546 466 509 498 q 603 386 584 433 q 623 282 623 339 z "},"6":{"ha":704,"x_min":73,"x_max":649,"o":"m 649 284 q 631 173 649 227 q 577 78 614 119 q 484 12 541 37 q 351 -13 428 -13 q 254 1 296 -13 q 181 39 212 14 q 129 101 150 64 q 96 184 109 138 q 78 287 83 231 q 73 406 73 342 q 79 520 73 463 q 100 631 85 578 q 143 732 116 685 q 210 814 170 779 q 307 869 250 849 q 437 890 363 890 q 488 887 463 890 q 536 879 514 884 q 572 867 557 873 q 592 858 587 861 q 599 849 597 854 q 603 840 602 845 q 605 828 604 835 q 606 812 606 822 q 605 791 606 800 q 603 777 605 783 q 596 769 600 772 q 587 766 593 766 q 566 771 579 766 q 535 782 553 776 q 491 792 517 787 q 430 797 465 797 q 321 771 367 797 q 247 702 276 745 q 204 601 218 659 q 189 481 191 544 q 228 502 206 492 q 276 520 250 512 q 332 533 302 528 q 394 538 361 538 q 514 519 465 538 q 593 466 563 500 q 636 385 623 431 q 649 284 649 338 m 531 273 q 523 345 531 313 q 497 399 515 377 q 448 434 479 422 q 373 446 418 446 q 323 442 348 446 q 274 430 298 437 q 230 411 251 422 q 191 389 208 401 q 202 242 191 301 q 234 148 213 183 q 288 97 256 112 q 362 81 319 81 q 437 98 406 81 q 490 141 469 114 q 521 203 511 169 q 531 273 531 237 z "},"7":{"ha":704,"x_min":67,"x_max":640,"o":"m 640 827 q 638 805 640 815 q 636 786 637 795 q 631 769 634 777 q 624 751 628 760 l 308 22 q 299 9 304 14 q 287 1 294 4 q 267 -3 279 -2 q 237 -4 254 -4 q 201 -2 214 -4 q 182 4 188 0 q 177 15 176 9 q 182 31 178 22 l 514 775 l 93 775 q 74 789 80 775 q 67 827 67 802 q 69 849 67 840 q 74 865 71 859 q 82 874 77 871 q 93 878 87 878 l 604 878 q 621 876 614 878 q 632 867 628 873 q 637 852 635 861 q 640 827 640 842 z "},"8":{"ha":704,"x_min":56,"x_max":647,"o":"m 647 225 q 627 124 647 168 q 568 49 606 79 q 473 3 530 18 q 345 -13 417 -13 q 223 1 277 -13 q 132 43 170 16 q 75 112 95 71 q 56 205 56 153 q 69 281 56 246 q 108 345 83 315 q 171 399 134 374 q 255 448 208 425 q 183 492 214 469 q 130 543 152 515 q 97 602 109 570 q 86 669 86 633 q 103 756 86 715 q 153 826 119 796 q 238 873 186 856 q 359 890 290 890 q 474 874 426 890 q 554 831 523 859 q 601 766 586 804 q 616 686 616 729 q 605 620 616 652 q 572 559 593 588 q 518 506 550 531 q 446 460 487 481 q 532 411 494 436 q 595 357 570 386 q 634 296 621 328 q 647 225 647 264 m 500 675 q 491 727 500 704 q 462 766 481 750 q 415 791 443 783 q 351 800 387 800 q 240 766 277 800 q 202 675 202 733 q 211 626 202 649 q 240 583 220 604 q 289 544 259 563 q 359 503 318 524 q 464 581 427 538 q 500 675 500 624 m 529 213 q 517 270 529 244 q 483 317 506 295 q 424 360 459 339 q 343 403 389 380 q 268 361 300 382 q 215 317 236 340 q 184 270 195 295 q 174 216 174 245 q 219 114 174 150 q 353 78 264 78 q 485 114 440 78 q 529 213 529 151 z "},"9":{"ha":704,"x_min":56,"x_max":633,"o":"m 633 473 q 627 358 633 416 q 604 246 620 300 q 560 145 587 192 q 491 62 532 98 q 392 7 449 27 q 258 -13 334 -13 q 202 -9 229 -13 q 152 0 174 -5 q 115 12 130 5 q 94 24 100 18 q 84 40 87 30 q 81 68 81 51 q 82 92 81 83 q 85 106 83 101 q 91 112 87 111 q 100 114 94 114 q 121 109 107 114 q 155 98 134 104 q 203 86 176 92 q 266 81 231 81 q 379 107 332 81 q 456 175 426 132 q 500 274 486 218 q 517 393 515 330 q 431 355 481 372 q 315 339 380 339 q 192 359 242 339 q 112 414 142 379 q 69 496 82 448 q 56 600 56 543 q 73 710 56 658 q 125 803 90 763 q 217 867 161 843 q 350 890 273 890 q 447 877 405 890 q 521 837 490 863 q 574 773 552 810 q 609 690 595 736 q 628 588 622 643 q 633 473 633 534 m 515 486 q 503 632 515 573 q 469 728 492 692 q 414 781 447 765 q 339 798 382 798 q 264 782 295 798 q 213 739 233 766 q 183 678 193 712 q 174 608 174 644 q 182 535 174 568 q 210 479 191 502 q 259 443 229 456 q 334 431 290 431 q 433 446 385 431 q 515 486 480 461 z "}," ":{"ha":314,"x_min":0,"x_max":0,"o":""},"A":{"ha":804,"x_min":24,"x_max":780,"o":"m 774 41 q 780 17 779 26 q 774 3 780 8 q 756 -3 769 -1 q 723 -4 744 -4 q 689 -3 702 -4 q 670 0 677 -2 q 661 7 664 3 q 655 17 658 11 l 580 231 l 215 231 l 143 20 q 138 9 141 14 q 128 2 134 5 q 110 -3 121 -1 q 79 -4 98 -4 q 46 -2 59 -4 q 29 4 34 -1 q 24 18 24 9 q 30 42 24 27 l 324 857 q 331 869 327 865 q 344 877 336 874 q 366 881 353 880 q 399 882 379 882 q 435 881 421 882 q 458 877 450 880 q 472 869 467 874 q 479 857 477 864 l 774 41 m 396 761 l 395 761 l 244 323 l 549 323 l 396 761 z "},"À":{"ha":804,"x_min":24,"x_max":780,"o":"m 774 41 q 780 17 779 26 q 774 3 780 8 q 756 -3 769 -1 q 723 -4 744 -4 q 689 -3 702 -4 q 670 0 677 -2 q 661 7 664 3 q 655 17 658 11 l 580 231 l 215 231 l 143 20 q 138 9 141 14 q 128 2 134 5 q 110 -3 121 -1 q 79 -4 98 -4 q 46 -2 59 -4 q 29 4 34 -1 q 24 18 24 9 q 30 42 24 27 l 324 857 q 331 869 327 865 q 344 877 336 874 q 366 881 353 880 q 399 882 379 882 q 435 881 421 882 q 458 877 450 880 q 472 869 467 874 q 479 857 477 864 l 774 41 m 396 761 l 395 761 l 244 323 l 549 323 l 396 761 m 436 975 q 444 962 442 968 q 442 953 446 957 q 430 948 439 949 q 405 946 420 946 q 381 947 391 946 q 364 950 372 948 q 351 957 357 953 q 338 967 345 960 l 185 1111 q 176 1124 178 1118 q 179 1135 174 1130 q 196 1142 184 1139 q 228 1145 208 1145 q 257 1144 245 1145 q 277 1141 269 1143 q 294 1133 286 1138 q 309 1120 301 1128 l 436 975 m 86 878 z "},"Á":{"ha":804,"x_min":24,"x_max":780,"o":"m 774 41 q 780 17 779 26 q 774 3 780 8 q 756 -3 769 -1 q 723 -4 744 -4 q 689 -3 702 -4 q 670 0 677 -2 q 661 7 664 3 q 655 17 658 11 l 580 231 l 215 231 l 143 20 q 138 9 141 14 q 128 2 134 5 q 110 -3 121 -1 q 79 -4 98 -4 q 46 -2 59 -4 q 29 4 34 -1 q 24 18 24 9 q 30 42 24 27 l 324 857 q 331 869 327 865 q 344 877 336 874 q 366 881 353 880 q 399 882 379 882 q 435 881 421 882 q 458 877 450 880 q 472 869 467 874 q 479 857 477 864 l 774 41 m 396 761 l 395 761 l 244 323 l 549 323 l 396 761 m 477 1120 q 492 1133 485 1128 q 508 1141 499 1138 q 529 1144 517 1143 q 558 1145 541 1145 q 590 1142 578 1145 q 606 1135 602 1139 q 609 1124 611 1130 q 602 1111 608 1118 l 448 967 q 435 957 441 960 q 422 950 429 953 q 405 947 414 948 q 380 946 395 946 q 356 948 365 946 q 344 953 347 949 q 342 962 340 957 q 349 975 343 968 l 477 1120 m 252 878 z "},"Â":{"ha":804,"x_min":24,"x_max":780,"o":"m 774 41 q 780 17 779 26 q 774 3 780 8 q 756 -3 769 -1 q 723 -4 744 -4 q 689 -3 702 -4 q 670 0 677 -2 q 661 7 664 3 q 655 17 658 11 l 580 231 l 215 231 l 143 20 q 138 9 141 14 q 128 2 134 5 q 110 -3 121 -1 q 79 -4 98 -4 q 46 -2 59 -4 q 29 4 34 -1 q 24 18 24 9 q 30 42 24 27 l 324 857 q 331 869 327 865 q 344 877 336 874 q 366 881 353 880 q 399 882 379 882 q 435 881 421 882 q 458 877 450 880 q 472 869 467 874 q 479 857 477 864 l 774 41 m 396 761 l 395 761 l 244 323 l 549 323 l 396 761 m 410 1145 q 434 1145 425 1145 q 451 1142 444 1144 q 463 1136 458 1139 q 474 1126 468 1132 l 619 972 q 627 960 625 965 q 624 952 628 955 q 610 947 620 949 q 586 946 601 946 q 553 947 566 946 q 534 950 541 948 q 522 955 526 951 q 514 961 517 958 l 410 1078 l 302 964 q 291 955 296 959 q 277 949 286 951 q 257 947 269 947 q 227 946 245 946 q 200 948 210 946 q 188 952 191 949 q 185 960 184 956 q 193 972 186 965 l 345 1126 q 356 1136 350 1132 q 369 1142 361 1139 q 386 1145 376 1144 q 410 1145 396 1145 m 95 878 z "},"Ã":{"ha":804,"x_min":24,"x_max":780,"o":"m 774 41 q 780 17 779 26 q 774 3 780 8 q 756 -3 769 -1 q 723 -4 744 -4 q 689 -3 702 -4 q 670 0 677 -2 q 661 7 664 3 q 655 17 658 11 l 580 231 l 215 231 l 143 20 q 138 9 141 14 q 128 2 134 5 q 110 -3 121 -1 q 79 -4 98 -4 q 46 -2 59 -4 q 29 4 34 -1 q 24 18 24 9 q 30 42 24 27 l 324 857 q 331 869 327 865 q 344 877 336 874 q 366 881 353 880 q 399 882 379 882 q 435 881 421 882 q 458 877 450 880 q 472 869 467 874 q 479 857 477 864 l 774 41 m 396 761 l 395 761 l 244 323 l 549 323 l 396 761 m 555 1095 q 565 1106 555 1103 q 597 1109 574 1109 q 629 1104 622 1109 q 637 1082 637 1099 q 602 983 637 1019 q 503 947 567 947 q 441 959 467 947 q 392 986 414 971 q 351 1012 370 1000 q 310 1024 332 1024 q 270 1007 281 1024 q 258 962 258 990 q 255 954 258 957 q 247 949 252 951 q 234 947 241 947 q 216 947 226 947 q 184 952 192 947 q 177 974 177 958 q 186 1032 177 1006 q 214 1074 196 1057 q 256 1100 231 1091 q 311 1109 281 1109 q 373 1097 347 1109 q 421 1071 399 1085 q 462 1044 443 1057 q 504 1032 481 1032 q 542 1046 528 1032 q 555 1095 555 1060 m 90 878 z "},"Ä":{"ha":804,"x_min":24,"x_max":780,"o":"m 774 41 q 780 17 779 26 q 774 3 780 8 q 756 -3 769 -1 q 723 -4 744 -4 q 689 -3 702 -4 q 670 0 677 -2 q 661 7 664 3 q 655 17 658 11 l 580 231 l 215 231 l 143 20 q 138 9 141 14 q 128 2 134 5 q 110 -3 121 -1 q 79 -4 98 -4 q 46 -2 59 -4 q 29 4 34 -1 q 24 18 24 9 q 30 42 24 27 l 324 857 q 331 869 327 865 q 344 877 336 874 q 366 881 353 880 q 399 882 379 882 q 435 881 421 882 q 458 877 450 880 q 472 869 467 874 q 479 857 477 864 l 774 41 m 396 761 l 395 761 l 244 323 l 549 323 l 396 761 m 331 1037 q 317 985 331 999 q 264 970 302 970 q 213 984 227 970 q 199 1036 199 998 q 213 1087 199 1074 q 265 1101 227 1101 q 317 1088 303 1101 q 331 1037 331 1074 m 611 1037 q 597 985 611 999 q 545 970 583 970 q 493 984 507 970 q 479 1036 479 998 q 494 1087 479 1074 q 545 1101 508 1101 q 597 1088 584 1101 q 611 1037 611 1074 m 110 878 z "},"Ā":{"ha":804,"x_min":24,"x_max":780,"o":"m 774 41 q 780 17 779 26 q 774 3 780 8 q 756 -3 769 -1 q 723 -4 744 -4 q 689 -3 702 -4 q 670 0 677 -2 q 661 7 664 3 q 655 17 658 11 l 580 231 l 215 231 l 143 20 q 138 9 141 14 q 128 2 134 5 q 110 -3 121 -1 q 79 -4 98 -4 q 46 -2 59 -4 q 29 4 34 -1 q 24 18 24 9 q 30 42 24 27 l 324 857 q 331 869 327 865 q 344 877 336 874 q 366 881 353 880 q 399 882 379 882 q 435 881 421 882 q 458 877 450 880 q 472 869 467 874 q 479 857 477 864 l 774 41 m 396 761 l 395 761 l 244 323 l 549 323 l 396 761 m 591 1078 q 600 1076 596 1078 q 607 1067 604 1073 q 611 1054 610 1062 q 612 1034 612 1045 q 611 1014 612 1022 q 607 999 610 1005 q 600 991 604 994 q 591 988 596 988 l 221 988 q 211 991 216 988 q 204 999 207 994 q 200 1014 201 1005 q 199 1034 199 1022 q 200 1053 199 1044 q 204 1067 201 1062 q 211 1076 207 1073 q 221 1078 216 1078 l 591 1078 m 109 878 z "},"Ă":{"ha":804,"x_min":24,"x_max":780,"o":"m 774 41 q 780 17 779 26 q 774 3 780 8 q 756 -3 769 -1 q 723 -4 744 -4 q 689 -3 702 -4 q 670 0 677 -2 q 661 7 664 3 q 655 17 658 11 l 580 231 l 215 231 l 143 20 q 138 9 141 14 q 128 2 134 5 q 110 -3 121 -1 q 79 -4 98 -4 q 46 -2 59 -4 q 29 4 34 -1 q 24 18 24 9 q 30 42 24 27 l 324 857 q 331 869 327 865 q 344 877 336 874 q 366 881 353 880 q 399 882 379 882 q 435 881 421 882 q 458 877 450 880 q 472 869 467 874 q 479 857 477 864 l 774 41 m 396 761 l 395 761 l 244 323 l 549 323 l 396 761 m 583 1128 q 571 1052 583 1086 q 536 995 559 1019 q 479 959 513 971 q 404 946 446 946 q 326 960 359 946 q 271 998 292 974 q 239 1055 249 1022 q 229 1128 229 1088 q 236 1143 229 1139 q 268 1147 244 1147 q 302 1144 292 1147 q 312 1131 312 1141 q 318 1097 313 1120 q 336 1059 324 1074 q 365 1036 347 1044 q 406 1028 382 1028 q 461 1044 441 1028 q 490 1083 482 1061 q 498 1121 498 1105 q 507 1142 499 1137 q 541 1147 514 1147 q 574 1143 566 1147 q 583 1128 583 1139 m 139 878 z "},"Å":{"ha":804,"x_min":24,"x_max":780,"o":"m 774 41 q 780 17 779 26 q 774 3 780 8 q 756 -3 769 -1 q 723 -4 744 -4 q 689 -3 702 -4 q 670 0 677 -2 q 661 7 664 3 q 655 17 658 11 l 580 231 l 215 231 l 143 20 q 138 9 141 14 q 128 2 134 5 q 110 -3 121 -1 q 79 -4 98 -4 q 46 -2 59 -4 q 29 4 34 -1 q 24 18 24 9 q 30 42 24 27 l 324 857 q 331 869 327 865 q 344 877 336 874 q 366 881 353 880 q 399 882 379 882 q 435 881 421 882 q 458 877 450 880 q 472 869 467 874 q 479 857 477 864 l 774 41 m 396 761 l 395 761 l 244 323 l 549 323 l 396 761 m 544 1052 q 534 1000 544 1023 q 506 959 524 976 q 461 932 488 942 q 403 922 435 922 q 343 931 368 922 q 300 957 317 941 q 275 996 283 973 q 267 1047 267 1019 q 276 1100 267 1076 q 304 1140 286 1124 q 348 1166 322 1157 q 408 1176 374 1176 q 509 1143 473 1176 q 544 1052 544 1110 m 468 1048 q 453 1096 468 1076 q 406 1115 439 1115 q 358 1098 374 1115 q 342 1052 342 1081 q 357 1002 342 1021 q 407 984 372 984 q 453 1002 438 984 q 468 1048 468 1020 m 178 878 z "},"Ǻ":{"ha":804,"x_min":24,"x_max":780,"o":"m 774 41 q 780 17 779 26 q 774 3 780 8 q 756 -3 769 -1 q 723 -4 744 -4 q 689 -3 702 -4 q 670 0 677 -2 q 661 7 664 3 q 655 17 658 11 l 580 231 l 215 231 l 143 20 q 138 9 141 14 q 128 2 134 5 q 110 -3 121 -1 q 79 -4 98 -4 q 46 -2 59 -4 q 29 4 34 -1 q 24 18 24 9 q 30 42 24 27 l 324 857 q 331 869 327 865 q 344 877 336 874 q 366 881 353 880 q 399 882 379 882 q 435 881 421 882 q 458 877 450 880 q 472 869 467 874 q 479 857 477 864 l 774 41 m 396 761 l 395 761 l 244 323 l 549 323 l 396 761 m 409 1299 q 423 1311 416 1306 q 438 1318 430 1316 q 457 1322 446 1321 q 483 1322 468 1322 q 514 1320 503 1322 q 531 1313 526 1317 q 534 1303 536 1309 q 527 1293 533 1298 l 392 1183 q 380 1174 385 1178 q 368 1167 374 1170 q 352 1164 361 1165 q 331 1163 344 1163 q 307 1165 316 1163 q 295 1170 298 1166 q 293 1178 292 1173 q 301 1190 295 1183 l 409 1299 m 522 1029 q 512 983 522 1004 q 486 946 503 962 q 444 922 469 930 q 390 913 420 913 q 332 921 357 913 q 291 944 307 929 q 266 979 274 958 q 257 1024 257 1000 q 266 1070 257 1049 q 292 1107 275 1092 q 334 1131 309 1122 q 392 1140 359 1140 q 447 1132 422 1140 q 488 1109 471 1124 q 513 1075 505 1095 q 522 1029 522 1054 m 451 1025 q 447 1047 451 1036 q 436 1066 444 1058 q 417 1080 429 1075 q 389 1085 405 1085 q 343 1069 359 1085 q 328 1028 328 1053 q 332 1004 328 1015 q 342 985 335 994 q 362 972 350 977 q 391 967 374 967 q 417 971 406 967 q 435 984 428 976 q 447 1003 443 992 q 451 1025 451 1013 m 175 878 z "},"Ą":{"ha":804,"x_min":24,"x_max":796,"o":"m 796 -197 q 794 -214 796 -208 q 790 -225 793 -221 q 782 -233 787 -230 q 764 -239 777 -236 q 739 -244 751 -243 q 714 -247 726 -245 q 689 -248 702 -248 q 631 -242 657 -248 q 586 -224 604 -237 q 556 -193 567 -212 q 546 -146 546 -174 q 549 -124 546 -136 q 558 -98 551 -112 q 577 -68 565 -84 q 607 -35 589 -53 l 656 14 l 580 231 l 215 231 l 143 20 q 137 9 140 14 q 128 2 134 5 q 110 -3 121 -1 q 79 -4 98 -4 q 46 -2 59 -4 q 29 4 34 -1 q 24 18 24 9 q 30 42 24 27 l 324 857 q 331 869 327 865 q 344 877 336 874 q 366 881 353 880 q 399 882 379 882 q 435 881 421 882 q 458 877 450 880 q 472 869 467 874 q 479 857 476 865 l 764 68 q 772 41 770 52 q 772 21 774 31 q 762 1 770 12 q 739 -23 754 -9 l 687 -75 q 665 -104 671 -92 q 659 -130 659 -117 q 671 -155 659 -146 q 717 -163 684 -163 l 777 -163 q 792 -170 787 -163 q 796 -197 796 -176 m 396 761 l 395 761 l 244 323 l 549 323 l 396 761 z "},"Æ":{"ha":1060,"x_min":-35,"x_max":985,"o":"m 985 48 q 984 27 985 36 q 980 12 983 18 q 972 3 977 5 q 963 0 968 0 l 542 0 q 512 11 526 0 q 498 47 498 21 l 498 214 l 196 214 l 92 19 q 84 8 88 12 q 72 1 80 3 q 52 -3 64 -2 q 20 -4 39 -4 q -5 -3 5 -4 q -22 -1 -15 -3 q -32 4 -29 1 q -35 14 -35 8 q -33 25 -35 18 q -25 42 -31 32 l 417 852 q 427 866 421 861 q 441 873 433 871 q 464 877 450 876 q 496 878 477 878 l 958 878 q 967 875 963 878 q 975 866 972 872 q 979 851 978 860 q 981 828 981 842 q 979 807 981 816 q 975 792 978 798 q 967 783 972 786 q 958 781 963 781 l 614 781 l 614 505 l 909 505 q 919 502 915 505 q 926 493 924 499 q 931 478 929 487 q 932 456 932 469 q 931 434 932 443 q 926 419 929 425 q 919 410 924 413 q 909 408 915 408 l 614 408 l 614 97 l 963 97 q 972 94 968 97 q 980 86 977 92 q 984 71 983 80 q 985 48 985 62 m 498 781 l 494 781 l 240 308 l 498 308 l 498 781 z "},"Ǽ":{"ha":1060,"x_min":-35,"x_max":985,"o":"m 985 48 q 984 27 985 36 q 980 12 983 18 q 972 3 977 5 q 963 0 968 0 l 542 0 q 512 11 526 0 q 498 47 498 21 l 498 214 l 196 214 l 92 19 q 84 8 88 12 q 72 1 80 3 q 52 -3 64 -2 q 20 -4 39 -4 q -5 -3 5 -4 q -22 -1 -15 -3 q -32 4 -29 1 q -35 14 -35 8 q -33 25 -35 18 q -25 42 -31 32 l 417 852 q 427 866 421 861 q 441 873 433 871 q 464 877 450 876 q 496 878 477 878 l 958 878 q 967 875 963 878 q 975 866 972 872 q 979 851 978 860 q 981 828 981 842 q 979 807 981 816 q 975 792 978 798 q 967 783 972 786 q 958 781 963 781 l 614 781 l 614 505 l 909 505 q 919 502 915 505 q 926 493 924 499 q 931 478 929 487 q 932 456 932 469 q 931 434 932 443 q 926 419 929 425 q 919 410 924 413 q 909 408 915 408 l 614 408 l 614 97 l 963 97 q 972 94 968 97 q 980 86 977 92 q 984 71 983 80 q 985 48 985 62 m 498 781 l 494 781 l 240 308 l 498 308 l 498 781 m 676 1120 q 691 1133 684 1128 q 707 1141 698 1138 q 728 1144 715 1143 q 757 1145 740 1145 q 789 1142 777 1145 q 805 1135 800 1139 q 808 1124 810 1130 q 800 1111 806 1118 l 646 967 q 634 957 640 960 q 621 950 628 953 q 603 947 613 948 q 579 946 593 946 q 555 948 564 946 q 543 953 546 949 q 541 962 539 957 q 548 975 542 968 l 676 1120 m 450 878 z "},"B":{"ha":755,"x_min":117,"x_max":695,"o":"m 695 252 q 685 175 695 210 q 655 113 674 140 q 609 64 636 85 q 549 28 583 43 q 477 7 515 14 q 389 0 439 0 l 160 0 q 131 11 144 0 q 117 47 117 21 l 117 830 q 131 867 117 857 q 160 878 144 878 l 359 878 q 488 863 438 878 q 572 819 538 848 q 623 749 606 791 q 640 656 640 708 q 632 596 640 625 q 610 544 625 568 q 573 500 595 519 q 523 469 551 481 q 590 445 559 463 q 645 399 621 427 q 682 334 668 371 q 695 252 695 296 m 519 644 q 511 702 519 676 q 483 746 502 728 q 433 773 464 764 q 353 783 403 783 l 232 783 l 232 498 l 365 498 q 438 510 410 498 q 484 542 466 522 q 511 589 503 562 q 519 644 519 616 m 572 245 q 560 314 572 284 q 523 364 547 344 q 463 395 499 385 q 372 406 427 406 l 232 406 l 232 96 l 401 96 q 471 106 441 96 q 524 134 501 115 q 559 180 547 153 q 572 245 572 208 z "},"C":{"ha":741,"x_min":66,"x_max":703,"o":"m 703 124 q 702 105 703 113 q 700 91 701 97 q 695 80 698 85 q 686 68 692 75 q 657 48 679 62 q 603 21 635 34 q 529 -2 571 7 q 438 -11 488 -11 q 284 18 353 -11 q 166 102 215 46 q 92 239 118 157 q 66 427 66 321 q 94 622 66 536 q 173 767 122 707 q 295 857 224 826 q 452 888 366 888 q 526 881 490 888 q 592 863 562 874 q 646 838 623 852 q 679 815 670 824 q 691 801 688 806 q 695 790 694 796 q 698 774 697 783 q 699 753 699 766 q 698 730 699 740 q 694 714 696 721 q 687 705 691 708 q 678 702 684 702 q 652 715 669 702 q 608 744 635 728 q 543 773 581 760 q 451 787 505 787 q 345 763 393 787 q 263 694 297 740 q 211 584 229 649 q 192 434 192 518 q 210 287 192 351 q 261 179 228 222 q 344 114 295 136 q 454 92 393 92 q 546 105 507 92 q 612 134 585 118 q 657 163 640 150 q 685 176 675 176 q 693 174 690 176 q 699 166 696 172 q 702 150 701 160 q 703 124 703 140 z "},"Ć":{"ha":741,"x_min":66,"x_max":703,"o":"m 703 124 q 702 105 703 113 q 700 91 701 97 q 695 80 698 85 q 686 68 692 75 q 657 48 679 62 q 603 21 635 34 q 529 -2 571 7 q 438 -11 488 -11 q 284 18 353 -11 q 166 102 215 46 q 92 239 118 157 q 66 427 66 321 q 94 622 66 536 q 173 767 122 707 q 295 857 224 826 q 452 888 366 888 q 526 881 490 888 q 592 863 562 874 q 646 838 623 852 q 679 815 670 824 q 691 801 688 806 q 695 790 694 796 q 698 774 697 783 q 699 753 699 766 q 698 730 699 740 q 694 714 696 721 q 687 705 691 708 q 678 702 684 702 q 652 715 669 702 q 608 744 635 728 q 543 773 581 760 q 451 787 505 787 q 345 763 393 787 q 263 694 297 740 q 211 584 229 649 q 192 434 192 518 q 210 287 192 351 q 261 179 228 222 q 344 114 295 136 q 454 92 393 92 q 546 105 507 92 q 612 134 585 118 q 657 163 640 150 q 685 176 675 176 q 693 174 690 176 q 699 166 696 172 q 702 150 701 160 q 703 124 703 140 m 490 1120 q 504 1133 497 1128 q 520 1141 511 1138 q 541 1144 529 1143 q 570 1145 553 1145 q 602 1142 591 1145 q 618 1135 614 1139 q 622 1124 623 1130 q 614 1111 620 1118 l 460 967 q 447 957 453 960 q 434 950 441 953 q 417 947 427 948 q 393 946 407 946 q 368 948 377 946 q 356 953 359 949 q 354 962 353 957 q 361 975 355 968 l 490 1120 m 264 878 z "},"Ĉ":{"ha":741,"x_min":66,"x_max":703,"o":"m 703 124 q 702 105 703 113 q 700 91 701 97 q 695 80 698 85 q 686 68 692 75 q 657 48 679 62 q 603 21 635 34 q 529 -2 571 7 q 438 -11 488 -11 q 284 18 353 -11 q 166 102 215 46 q 92 239 118 157 q 66 427 66 321 q 94 622 66 536 q 173 767 122 707 q 295 857 224 826 q 452 888 366 888 q 526 881 490 888 q 592 863 562 874 q 646 838 623 852 q 679 815 670 824 q 691 801 688 806 q 695 790 694 796 q 698 774 697 783 q 699 753 699 766 q 698 730 699 740 q 694 714 696 721 q 687 705 691 708 q 678 702 684 702 q 652 715 669 702 q 608 744 635 728 q 543 773 581 760 q 451 787 505 787 q 345 763 393 787 q 263 694 297 740 q 211 584 229 649 q 192 434 192 518 q 210 287 192 351 q 261 179 228 222 q 344 114 295 136 q 454 92 393 92 q 546 105 507 92 q 612 134 585 118 q 657 163 640 150 q 685 176 675 176 q 693 174 690 176 q 699 166 696 172 q 702 150 701 160 q 703 124 703 140 m 437 1145 q 460 1145 451 1145 q 477 1142 470 1144 q 489 1136 484 1139 q 500 1126 494 1132 l 646 972 q 653 960 652 965 q 650 952 654 955 q 637 947 646 949 q 612 946 627 946 q 580 947 592 946 q 560 950 568 948 q 548 955 553 951 q 541 961 544 958 l 436 1078 l 328 964 q 317 955 323 959 q 304 949 312 951 q 283 947 296 947 q 253 946 271 946 q 227 948 236 946 q 214 952 218 949 q 212 960 210 956 q 219 972 213 965 l 371 1126 q 382 1136 376 1132 q 395 1142 388 1139 q 413 1145 403 1144 q 437 1145 422 1145 m 121 878 z "},"Č":{"ha":741,"x_min":66,"x_max":703,"o":"m 703 124 q 702 105 703 113 q 700 91 701 97 q 695 80 698 85 q 686 68 692 75 q 657 48 679 62 q 603 21 635 34 q 529 -2 571 7 q 438 -11 488 -11 q 284 18 353 -11 q 166 102 215 46 q 92 239 118 157 q 66 427 66 321 q 94 622 66 536 q 173 767 122 707 q 295 857 224 826 q 452 888 366 888 q 526 881 490 888 q 592 863 562 874 q 646 838 623 852 q 679 815 670 824 q 691 801 688 806 q 695 790 694 796 q 698 774 697 783 q 699 753 699 766 q 698 730 699 740 q 694 714 696 721 q 687 705 691 708 q 678 702 684 702 q 652 715 669 702 q 608 744 635 728 q 543 773 581 760 q 451 787 505 787 q 345 763 393 787 q 263 694 297 740 q 211 584 229 649 q 192 434 192 518 q 210 287 192 351 q 261 179 228 222 q 344 114 295 136 q 454 92 393 92 q 546 105 507 92 q 612 134 585 118 q 657 163 640 150 q 685 176 675 176 q 693 174 690 176 q 699 166 696 172 q 702 150 701 160 q 703 124 703 140 m 433 946 q 410 947 419 946 q 393 949 400 947 q 381 956 386 951 q 370 966 376 960 l 224 1120 q 217 1132 218 1126 q 220 1140 216 1137 q 233 1144 224 1143 q 258 1145 243 1145 q 290 1144 278 1145 q 310 1142 302 1143 q 321 1137 317 1140 q 330 1130 326 1133 l 434 1013 l 543 1127 q 553 1136 547 1133 q 567 1142 559 1140 q 587 1145 574 1144 q 617 1145 599 1145 q 643 1144 633 1145 q 656 1139 653 1142 q 658 1131 660 1136 q 651 1120 656 1126 l 500 966 q 488 956 494 960 q 475 950 482 952 q 457 947 467 947 q 433 946 448 946 m 127 878 z "},"Ċ":{"ha":741,"x_min":66,"x_max":703,"o":"m 703 124 q 702 105 703 113 q 700 91 701 97 q 695 80 698 85 q 686 68 692 75 q 657 48 679 62 q 603 21 635 34 q 529 -2 571 7 q 438 -11 488 -11 q 284 18 353 -11 q 166 102 215 46 q 92 239 118 157 q 66 427 66 321 q 94 622 66 536 q 173 767 122 707 q 295 857 224 826 q 452 888 366 888 q 526 881 490 888 q 592 863 562 874 q 646 838 623 852 q 679 815 670 824 q 691 801 688 806 q 695 790 694 796 q 698 774 697 783 q 699 753 699 766 q 698 730 699 740 q 694 714 696 721 q 687 705 691 708 q 678 702 684 702 q 652 715 669 702 q 608 744 635 728 q 543 773 581 760 q 451 787 505 787 q 345 763 393 787 q 263 694 297 740 q 211 584 229 649 q 192 434 192 518 q 210 287 192 351 q 261 179 228 222 q 344 114 295 136 q 454 92 393 92 q 546 105 507 92 q 612 134 585 118 q 657 163 640 150 q 685 176 675 176 q 693 174 690 176 q 699 166 696 172 q 702 150 701 160 q 703 124 703 140 m 511 1037 q 496 985 511 999 q 443 970 481 970 q 391 984 405 970 q 376 1036 376 998 q 391 1087 376 1073 q 444 1102 406 1102 q 497 1088 482 1102 q 511 1037 511 1074 m 287 878 z "},"Ç":{"ha":741,"x_min":66,"x_max":703,"o":"m 500 -50 q 521 -101 515 -81 q 527 -138 527 -121 q 517 -184 527 -164 q 491 -219 508 -205 q 449 -240 473 -233 q 394 -248 425 -248 q 349 -244 370 -248 q 313 -238 328 -241 q 292 -232 297 -235 q 284 -225 286 -229 q 280 -215 281 -221 q 279 -199 279 -209 q 284 -171 279 -178 q 298 -163 288 -163 l 382 -163 q 416 -154 404 -163 q 429 -127 429 -145 q 425 -105 429 -118 q 414 -77 420 -92 l 382 -7 q 266 26 322 -1 q 164 105 210 52 q 92 239 118 157 q 66 427 66 321 q 94 622 66 536 q 173 767 122 707 q 295 857 224 826 q 452 888 366 888 q 526 881 490 888 q 592 863 562 874 q 646 838 623 852 q 679 815 670 824 q 691 801 688 806 q 695 790 694 796 q 698 774 697 783 q 699 753 699 766 q 698 730 699 740 q 694 714 696 721 q 687 705 691 708 q 678 702 684 702 q 652 715 669 702 q 608 744 635 728 q 543 773 581 760 q 451 787 505 787 q 345 763 393 787 q 263 694 297 740 q 211 584 229 649 q 192 434 192 518 q 210 287 192 351 q 261 179 228 222 q 344 114 295 136 q 454 92 393 92 q 544 105 504 92 q 611 134 583 117 q 657 163 640 150 q 685 176 675 176 q 693 174 690 176 q 699 166 696 172 q 702 150 701 160 q 703 124 703 140 q 702 105 703 113 q 700 91 701 97 q 695 80 698 85 q 686 68 692 75 q 657 48 679 62 q 605 21 635 34 q 542 1 574 8 q 481 -9 510 -7 l 500 -50 z "},"D":{"ha":854,"x_min":117,"x_max":791,"o":"m 791 452 q 762 253 791 338 q 677 112 733 168 q 540 28 621 56 q 346 0 458 0 l 160 0 q 131 11 144 0 q 117 47 117 21 l 117 830 q 131 867 117 857 q 160 878 144 878 l 359 878 q 551 848 473 878 q 683 763 630 819 q 764 629 736 708 q 791 452 791 551 m 669 447 q 651 579 669 518 q 596 686 633 641 q 500 755 558 730 q 352 781 443 781 l 233 781 l 233 98 l 353 98 q 495 119 437 98 q 591 183 553 140 q 649 292 630 227 q 669 447 669 357 z "},"Ď":{"ha":854,"x_min":102,"x_max":791,"o":"m 791 452 q 762 253 791 338 q 677 112 733 168 q 540 28 621 56 q 346 0 458 0 l 160 0 q 131 11 144 0 q 117 47 117 21 l 117 830 q 131 867 117 857 q 160 878 144 878 l 359 878 q 551 848 473 878 q 683 763 630 819 q 764 629 736 708 q 791 452 791 551 m 669 447 q 651 579 669 518 q 596 686 633 641 q 500 755 558 730 q 352 781 443 781 l 233 781 l 233 98 l 353 98 q 495 119 437 98 q 591 183 553 140 q 649 292 630 227 q 669 447 669 357 m 408 946 q 385 947 394 946 q 368 949 375 947 q 356 956 361 951 q 345 966 351 960 l 199 1120 q 192 1132 193 1126 q 195 1140 191 1137 q 208 1144 199 1143 q 233 1145 218 1145 q 265 1144 253 1145 q 285 1142 277 1143 q 296 1137 292 1140 q 304 1130 300 1133 l 409 1013 l 517 1127 q 528 1136 522 1133 q 542 1142 534 1140 q 562 1145 549 1144 q 592 1145 574 1145 q 618 1144 608 1145 q 631 1139 628 1142 q 633 1131 635 1136 q 626 1120 631 1126 l 475 966 q 463 956 469 960 q 450 950 457 952 q 432 947 442 947 q 408 946 422 946 m 102 878 z "},"Đ":{"ha":867,"x_min":18,"x_max":804,"o":"m 804 452 q 775 253 804 338 q 690 112 746 168 q 552 28 633 56 q 358 0 471 0 l 172 0 q 143 11 157 0 q 130 47 130 21 l 130 408 l 41 408 q 32 410 36 408 q 24 419 27 413 q 20 434 21 425 q 18 456 18 443 q 20 478 18 469 q 24 493 21 487 q 32 502 27 499 q 41 505 36 505 l 130 505 l 130 830 q 143 867 130 857 q 172 878 157 878 l 371 878 q 564 848 485 878 q 696 763 643 819 q 777 629 749 708 q 804 452 804 551 m 681 447 q 663 579 681 518 q 608 686 646 641 q 513 755 571 730 q 364 781 455 781 l 245 781 l 245 505 l 406 505 q 415 502 410 505 q 422 493 419 499 q 427 478 425 487 q 428 456 428 469 q 427 434 428 443 q 422 419 425 425 q 415 410 419 413 q 406 408 410 408 l 245 408 l 245 98 l 366 98 q 508 119 450 98 q 604 183 566 140 q 662 292 642 227 q 681 447 681 357 z "},"Ð":{"ha":867,"x_min":18,"x_max":804,"o":"m 804 452 q 775 253 804 338 q 690 112 746 168 q 552 28 633 56 q 358 0 471 0 l 172 0 q 143 11 157 0 q 130 47 130 21 l 130 408 l 41 408 q 32 410 36 408 q 24 419 27 413 q 20 434 21 425 q 18 456 18 443 q 20 478 18 469 q 24 493 21 487 q 32 502 27 499 q 41 505 36 505 l 130 505 l 130 830 q 143 867 130 857 q 172 878 157 878 l 371 878 q 564 848 485 878 q 696 763 643 819 q 777 629 749 708 q 804 452 804 551 m 681 447 q 663 579 681 518 q 608 686 646 641 q 513 755 571 730 q 364 781 455 781 l 245 781 l 245 505 l 406 505 q 415 502 410 505 q 422 493 419 499 q 427 478 425 487 q 428 456 428 469 q 427 434 428 443 q 422 419 425 425 q 415 410 419 413 q 406 408 410 408 l 245 408 l 245 98 l 366 98 q 508 119 450 98 q 604 183 566 140 q 662 292 642 227 q 681 447 681 357 z "},"E":{"ha":678,"x_min":117,"x_max":605,"o":"m 605 48 q 604 27 605 36 q 599 12 602 18 q 591 3 595 5 q 581 0 587 0 l 160 0 q 131 11 144 0 q 117 47 117 21 l 117 830 q 131 867 117 857 q 160 878 144 878 l 576 878 q 586 875 582 878 q 593 866 591 872 q 598 851 596 860 q 600 828 600 842 q 598 807 600 816 q 593 792 596 798 q 586 783 591 786 q 576 781 582 781 l 233 781 l 233 505 l 528 505 q 537 502 533 505 q 545 494 542 499 q 549 479 548 488 q 551 456 551 469 q 549 435 551 444 q 545 421 548 427 q 537 413 542 416 q 528 411 533 411 l 233 411 l 233 97 l 581 97 q 591 94 587 97 q 599 86 595 92 q 604 71 602 80 q 605 48 605 62 z "},"È":{"ha":678,"x_min":47,"x_max":605,"o":"m 605 48 q 604 27 605 36 q 599 12 602 18 q 591 3 595 5 q 581 0 587 0 l 160 0 q 131 11 144 0 q 117 47 117 21 l 117 830 q 131 867 117 857 q 160 878 144 878 l 576 878 q 586 875 582 878 q 593 866 591 872 q 598 851 596 860 q 600 828 600 842 q 598 807 600 816 q 593 792 596 798 q 586 783 591 786 q 576 781 582 781 l 233 781 l 233 505 l 528 505 q 537 502 533 505 q 545 494 542 499 q 549 479 548 488 q 551 456 551 469 q 549 435 551 444 q 545 421 548 427 q 537 413 542 416 q 528 411 533 411 l 233 411 l 233 97 l 581 97 q 591 94 587 97 q 599 86 595 92 q 604 71 602 80 q 605 48 605 62 m 397 975 q 405 962 403 968 q 403 953 406 957 q 390 948 399 949 q 366 946 381 946 q 342 947 351 946 q 325 950 332 948 q 312 957 317 953 q 299 967 306 960 l 146 1111 q 137 1124 138 1118 q 140 1135 135 1130 q 156 1142 144 1139 q 189 1145 168 1145 q 217 1144 205 1145 q 238 1141 229 1143 q 254 1133 247 1138 q 269 1120 262 1128 l 397 975 m 47 878 z "},"É":{"ha":678,"x_min":117,"x_max":605,"o":"m 605 48 q 604 27 605 36 q 599 12 602 18 q 591 3 595 5 q 581 0 587 0 l 160 0 q 131 11 144 0 q 117 47 117 21 l 117 830 q 131 867 117 857 q 160 878 144 878 l 576 878 q 586 875 582 878 q 593 866 591 872 q 598 851 596 860 q 600 828 600 842 q 598 807 600 816 q 593 792 596 798 q 586 783 591 786 q 576 781 582 781 l 233 781 l 233 505 l 528 505 q 537 502 533 505 q 545 494 542 499 q 549 479 548 488 q 551 456 551 469 q 549 435 551 444 q 545 421 548 427 q 537 413 542 416 q 528 411 533 411 l 233 411 l 233 97 l 581 97 q 591 94 587 97 q 599 86 595 92 q 604 71 602 80 q 605 48 605 62 m 444 1120 q 458 1133 451 1128 q 474 1141 465 1138 q 495 1144 483 1143 q 524 1145 507 1145 q 556 1142 545 1145 q 572 1135 568 1139 q 575 1124 577 1130 q 568 1111 574 1118 l 414 967 q 401 957 407 960 q 388 950 395 953 q 371 947 380 948 q 347 946 361 946 q 322 948 331 946 q 310 953 313 949 q 308 962 307 957 q 315 975 309 968 l 444 1120 m 218 878 z "},"Ê":{"ha":678,"x_min":47,"x_max":605,"o":"m 605 48 q 604 27 605 36 q 599 12 602 18 q 591 3 595 5 q 581 0 587 0 l 160 0 q 131 11 144 0 q 117 47 117 21 l 117 830 q 131 867 117 857 q 160 878 144 878 l 576 878 q 586 875 582 878 q 593 866 591 872 q 598 851 596 860 q 600 828 600 842 q 598 807 600 816 q 593 792 596 798 q 586 783 591 786 q 576 781 582 781 l 233 781 l 233 505 l 528 505 q 537 502 533 505 q 545 494 542 499 q 549 479 548 488 q 551 456 551 469 q 549 435 551 444 q 545 421 548 427 q 537 413 542 416 q 528 411 533 411 l 233 411 l 233 97 l 581 97 q 591 94 587 97 q 599 86 595 92 q 604 71 602 80 q 605 48 605 62 m 363 1145 q 387 1145 377 1145 q 403 1142 396 1144 q 415 1136 410 1139 q 427 1126 420 1132 l 572 972 q 579 960 578 965 q 576 952 581 955 q 563 947 572 949 q 538 946 553 946 q 506 947 518 946 q 486 950 494 948 q 474 955 479 951 q 467 961 470 958 l 362 1078 l 254 964 q 243 955 249 959 q 230 949 238 951 q 210 947 222 947 q 179 946 197 946 q 153 948 162 946 q 140 952 144 949 q 138 960 136 956 q 145 972 139 965 l 297 1126 q 308 1136 302 1132 q 321 1142 314 1139 q 339 1145 329 1144 q 363 1145 349 1145 m 47 878 z "},"Ě":{"ha":678,"x_min":47,"x_max":605,"o":"m 605 48 q 604 27 605 36 q 599 12 602 18 q 591 3 595 5 q 581 0 587 0 l 160 0 q 131 11 144 0 q 117 47 117 21 l 117 830 q 131 867 117 857 q 160 878 144 878 l 576 878 q 586 875 582 878 q 593 866 591 872 q 598 851 596 860 q 600 828 600 842 q 598 807 600 816 q 593 792 596 798 q 586 783 591 786 q 576 781 582 781 l 233 781 l 233 505 l 528 505 q 537 502 533 505 q 545 494 542 499 q 549 479 548 488 q 551 456 551 469 q 549 435 551 444 q 545 421 548 427 q 537 413 542 416 q 528 411 533 411 l 233 411 l 233 97 l 581 97 q 591 94 587 97 q 599 86 595 92 q 604 71 602 80 q 605 48 605 62 m 353 946 q 330 947 339 946 q 313 949 320 947 q 301 956 306 951 q 290 966 296 960 l 144 1120 q 137 1132 138 1126 q 140 1140 136 1137 q 153 1144 144 1143 q 178 1145 163 1145 q 210 1144 198 1145 q 230 1142 222 1143 q 241 1137 237 1140 q 250 1130 245 1133 l 354 1013 l 463 1127 q 473 1136 467 1133 q 487 1142 479 1140 q 507 1145 494 1144 q 537 1145 519 1145 q 563 1144 553 1145 q 576 1139 573 1142 q 578 1131 580 1136 q 571 1120 576 1126 l 420 966 q 408 956 414 960 q 395 950 402 952 q 377 947 387 947 q 353 946 368 946 m 47 878 z "},"Ë":{"ha":678,"x_min":67,"x_max":605,"o":"m 605 48 q 604 27 605 36 q 599 12 602 18 q 591 3 595 5 q 581 0 587 0 l 160 0 q 131 11 144 0 q 117 47 117 21 l 117 830 q 131 867 117 857 q 160 878 144 878 l 576 878 q 586 875 582 878 q 593 866 591 872 q 598 851 596 860 q 600 828 600 842 q 598 807 600 816 q 593 792 596 798 q 586 783 591 786 q 576 781 582 781 l 233 781 l 233 505 l 528 505 q 537 502 533 505 q 545 494 542 499 q 549 479 548 488 q 551 456 551 469 q 549 435 551 444 q 545 421 548 427 q 537 413 542 416 q 528 411 533 411 l 233 411 l 233 97 l 581 97 q 591 94 587 97 q 599 86 595 92 q 604 71 602 80 q 605 48 605 62 m 288 1037 q 274 985 288 999 q 222 970 260 970 q 170 984 184 970 q 157 1036 157 998 q 171 1087 157 1074 q 222 1101 184 1101 q 274 1088 260 1101 q 288 1037 288 1074 m 568 1037 q 554 985 568 999 q 502 970 541 970 q 451 984 465 970 q 437 1036 437 998 q 451 1087 437 1074 q 503 1101 465 1101 q 555 1088 541 1101 q 568 1037 568 1074 m 67 878 z "},"Ē":{"ha":678,"x_min":64,"x_max":605,"o":"m 605 48 q 604 27 605 36 q 599 12 602 18 q 591 3 595 5 q 581 0 587 0 l 160 0 q 131 11 144 0 q 117 47 117 21 l 117 830 q 131 867 117 857 q 160 878 144 878 l 576 878 q 586 875 582 878 q 593 866 591 872 q 598 851 596 860 q 600 828 600 842 q 598 807 600 816 q 593 792 596 798 q 586 783 591 786 q 576 781 582 781 l 233 781 l 233 505 l 528 505 q 537 502 533 505 q 545 494 542 499 q 549 479 548 488 q 551 456 551 469 q 549 435 551 444 q 545 421 548 427 q 537 413 542 416 q 528 411 533 411 l 233 411 l 233 97 l 581 97 q 591 94 587 97 q 599 86 595 92 q 604 71 602 80 q 605 48 605 62 m 547 1078 q 555 1076 551 1078 q 563 1067 559 1073 q 567 1054 566 1062 q 568 1034 568 1045 q 567 1014 568 1022 q 563 999 566 1005 q 555 991 559 994 q 547 988 551 988 l 176 988 q 166 991 171 988 q 159 999 162 994 q 155 1014 157 1005 q 154 1034 154 1022 q 155 1053 154 1044 q 159 1067 157 1062 q 166 1076 162 1073 q 176 1078 171 1078 l 547 1078 m 64 878 z "},"Ĕ":{"ha":678,"x_min":87,"x_max":605,"o":"m 605 48 q 604 27 605 36 q 599 12 602 18 q 591 3 595 5 q 581 0 587 0 l 160 0 q 131 11 144 0 q 117 47 117 21 l 117 830 q 131 867 117 857 q 160 878 144 878 l 576 878 q 586 875 582 878 q 593 866 591 872 q 598 851 596 860 q 600 828 600 842 q 598 807 600 816 q 593 792 596 798 q 586 783 591 786 q 576 781 582 781 l 233 781 l 233 505 l 528 505 q 537 502 533 505 q 545 494 542 499 q 549 479 548 488 q 551 456 551 469 q 549 435 551 444 q 545 421 548 427 q 537 413 542 416 q 528 411 533 411 l 233 411 l 233 97 l 581 97 q 591 94 587 97 q 599 86 595 92 q 604 71 602 80 q 605 48 605 62 m 531 1128 q 519 1052 531 1086 q 484 995 507 1019 q 428 959 461 971 q 353 946 395 946 q 274 960 307 946 q 219 998 241 974 q 187 1055 197 1022 q 177 1128 177 1088 q 185 1143 177 1139 q 216 1147 193 1147 q 251 1144 241 1147 q 261 1131 260 1141 q 267 1097 261 1120 q 284 1059 273 1074 q 313 1036 296 1044 q 355 1028 330 1028 q 410 1044 389 1028 q 438 1083 431 1061 q 447 1121 446 1105 q 455 1142 448 1137 q 490 1147 463 1147 q 523 1143 515 1147 q 531 1128 531 1139 m 87 878 z "},"Ė":{"ha":678,"x_min":117,"x_max":605,"o":"m 605 48 q 604 27 605 36 q 599 12 602 18 q 591 3 595 5 q 581 0 587 0 l 160 0 q 131 11 144 0 q 117 47 117 21 l 117 830 q 131 867 117 857 q 160 878 144 878 l 576 878 q 586 875 582 878 q 593 866 591 872 q 598 851 596 860 q 600 828 600 842 q 598 807 600 816 q 593 792 596 798 q 586 783 591 786 q 576 781 582 781 l 233 781 l 233 505 l 528 505 q 537 502 533 505 q 545 494 542 499 q 549 479 548 488 q 551 456 551 469 q 549 435 551 444 q 545 421 548 427 q 537 413 542 416 q 528 411 533 411 l 233 411 l 233 97 l 581 97 q 591 94 587 97 q 599 86 595 92 q 604 71 602 80 q 605 48 605 62 m 431 1037 q 416 985 431 999 q 362 970 401 970 q 310 984 324 970 q 296 1036 296 998 q 310 1087 296 1073 q 363 1102 325 1102 q 416 1088 401 1102 q 431 1037 431 1074 m 206 878 z "},"Ę":{"ha":678,"x_min":117,"x_max":632,"o":"m 632 -197 q 631 -214 632 -208 q 627 -224 629 -220 q 620 -231 625 -229 q 602 -237 616 -233 q 565 -244 587 -241 q 513 -248 542 -248 q 457 -241 481 -248 q 414 -222 432 -235 q 388 -190 397 -209 q 379 -145 379 -171 q 390 -96 379 -121 q 429 -42 401 -71 l 471 0 l 160 0 q 131 11 144 0 q 117 47 117 21 l 117 830 q 131 867 117 857 q 160 878 144 878 l 576 878 q 586 875 582 878 q 593 866 591 872 q 598 851 596 860 q 600 828 600 842 q 598 807 600 816 q 593 792 596 798 q 586 783 591 786 q 576 781 582 781 l 233 781 l 233 505 l 528 505 q 537 503 533 505 q 545 495 542 500 q 549 481 548 490 q 551 459 551 472 q 549 437 551 446 q 545 422 548 428 q 537 414 542 416 q 528 411 533 411 l 233 411 l 233 97 l 581 97 q 599 86 593 97 q 605 51 605 75 q 604 33 605 41 q 602 19 604 25 q 597 7 600 13 q 589 -3 594 2 l 515 -76 q 495 -103 501 -92 q 490 -127 490 -115 q 502 -155 490 -146 q 541 -163 514 -163 l 613 -163 q 622 -165 618 -163 q 627 -170 625 -166 q 631 -180 629 -174 q 632 -197 632 -186 z "},"F":{"ha":638,"x_min":117,"x_max":578,"o":"m 578 827 q 576 805 578 814 q 572 790 575 795 q 564 781 568 784 q 555 779 559 779 l 233 779 l 233 480 l 537 480 q 546 478 542 480 q 554 470 551 475 q 559 455 557 465 q 560 432 560 446 q 559 410 560 419 q 554 395 557 401 q 546 386 551 389 q 537 383 542 383 l 233 383 l 233 18 q 231 8 233 13 q 221 2 228 4 q 203 -2 214 -1 q 175 -4 193 -4 q 147 -2 159 -4 q 129 2 136 -1 q 119 8 122 4 q 117 18 117 13 l 117 830 q 131 867 117 857 q 160 878 144 878 l 555 878 q 564 875 559 878 q 572 866 568 872 q 576 850 575 860 q 578 827 578 840 z "},"G":{"ha":876,"x_min":62,"x_max":776,"o":"m 776 758 q 774 735 776 745 q 770 719 773 726 q 764 710 768 713 q 755 707 760 707 q 728 720 747 707 q 677 749 709 733 q 601 777 645 764 q 495 790 556 790 q 365 764 422 790 q 267 690 307 737 q 206 579 227 644 q 184 439 184 515 q 208 290 184 355 q 273 180 231 225 q 371 113 314 136 q 497 90 429 90 q 579 99 538 90 q 657 129 621 109 l 657 385 l 454 385 q 436 396 442 385 q 431 432 431 408 q 432 454 431 445 q 436 469 433 463 q 444 477 439 475 q 454 480 448 480 l 732 480 q 747 477 740 480 q 761 469 755 475 q 770 454 767 464 q 774 433 774 445 l 774 98 q 768 68 774 81 q 742 45 762 55 q 691 24 722 35 q 627 4 660 12 q 559 -8 593 -4 q 492 -12 526 -12 q 311 19 391 -12 q 175 109 231 51 q 91 249 120 168 q 62 431 62 330 q 93 620 62 535 q 182 764 125 705 q 320 857 239 824 q 498 890 400 890 q 592 881 548 890 q 670 860 636 872 q 728 834 705 848 q 760 812 751 821 q 772 791 769 803 q 776 758 776 780 z "},"Ĝ":{"ha":876,"x_min":62,"x_max":776,"o":"m 776 758 q 774 735 776 745 q 770 719 773 726 q 764 710 768 713 q 755 707 760 707 q 728 720 747 707 q 677 749 709 733 q 601 777 645 764 q 495 790 556 790 q 365 764 422 790 q 267 690 307 737 q 206 579 227 644 q 184 439 184 515 q 208 290 184 355 q 273 180 231 225 q 371 113 314 136 q 497 90 429 90 q 579 99 538 90 q 657 129 621 109 l 657 385 l 454 385 q 436 396 442 385 q 431 432 431 408 q 432 454 431 445 q 436 469 433 463 q 444 477 439 475 q 454 480 448 480 l 732 480 q 747 477 740 480 q 761 469 755 475 q 770 454 767 464 q 774 433 774 445 l 774 98 q 768 68 774 81 q 742 45 762 55 q 691 24 722 35 q 627 4 660 12 q 559 -8 593 -4 q 492 -12 526 -12 q 311 19 391 -12 q 175 109 231 51 q 91 249 120 168 q 62 431 62 330 q 93 620 62 535 q 182 764 125 705 q 320 857 239 824 q 498 890 400 890 q 592 881 548 890 q 670 860 636 872 q 728 834 705 848 q 760 812 751 821 q 772 791 769 803 q 776 758 776 780 m 471 1145 q 494 1145 485 1145 q 511 1142 504 1144 q 523 1136 518 1139 q 534 1126 528 1132 l 680 972 q 687 960 686 965 q 684 952 688 955 q 671 947 680 949 q 646 946 661 946 q 614 947 626 946 q 594 950 602 948 q 582 955 587 951 q 574 961 578 958 l 470 1078 l 362 964 q 351 955 357 959 q 338 949 346 951 q 317 947 330 947 q 287 946 305 946 q 261 948 270 946 q 248 952 252 949 q 245 960 244 956 q 253 972 247 965 l 405 1126 q 416 1136 410 1132 q 429 1142 422 1139 q 447 1145 437 1144 q 471 1145 456 1145 m 155 878 z "},"Ğ":{"ha":876,"x_min":62,"x_max":776,"o":"m 776 758 q 774 735 776 745 q 770 719 773 726 q 764 710 768 713 q 755 707 760 707 q 728 720 747 707 q 677 749 709 733 q 601 777 645 764 q 495 790 556 790 q 365 764 422 790 q 267 690 307 737 q 206 579 227 644 q 184 439 184 515 q 208 290 184 355 q 273 180 231 225 q 371 113 314 136 q 497 90 429 90 q 579 99 538 90 q 657 129 621 109 l 657 385 l 454 385 q 436 396 442 385 q 431 432 431 408 q 432 454 431 445 q 436 469 433 463 q 444 477 439 475 q 454 480 448 480 l 732 480 q 747 477 740 480 q 761 469 755 475 q 770 454 767 464 q 774 433 774 445 l 774 98 q 768 68 774 81 q 742 45 762 55 q 691 24 722 35 q 627 4 660 12 q 559 -8 593 -4 q 492 -12 526 -12 q 311 19 391 -12 q 175 109 231 51 q 91 249 120 168 q 62 431 62 330 q 93 620 62 535 q 182 764 125 705 q 320 857 239 824 q 498 890 400 890 q 592 881 548 890 q 670 860 636 872 q 728 834 705 848 q 760 812 751 821 q 772 791 769 803 q 776 758 776 780 m 642 1128 q 630 1052 642 1086 q 595 995 618 1019 q 539 959 572 971 q 464 946 506 946 q 385 960 418 946 q 330 998 352 974 q 298 1055 309 1022 q 288 1128 288 1088 q 296 1143 288 1139 q 328 1147 304 1147 q 362 1144 352 1147 q 372 1131 372 1141 q 378 1097 372 1120 q 395 1059 384 1074 q 424 1036 407 1044 q 466 1028 441 1028 q 521 1044 500 1028 q 550 1083 542 1061 q 558 1121 557 1105 q 566 1142 559 1137 q 601 1147 574 1147 q 634 1143 626 1147 q 642 1128 642 1139 m 199 878 z "},"Ġ":{"ha":876,"x_min":62,"x_max":776,"o":"m 776 758 q 774 735 776 745 q 770 719 773 726 q 764 710 768 713 q 755 707 760 707 q 728 720 747 707 q 677 749 709 733 q 601 777 645 764 q 495 790 556 790 q 365 764 422 790 q 267 690 307 737 q 206 579 227 644 q 184 439 184 515 q 208 290 184 355 q 273 180 231 225 q 371 113 314 136 q 497 90 429 90 q 579 99 538 90 q 657 129 621 109 l 657 385 l 454 385 q 436 396 442 385 q 431 432 431 408 q 432 454 431 445 q 436 469 433 463 q 444 477 439 475 q 454 480 448 480 l 732 480 q 747 477 740 480 q 761 469 755 475 q 770 454 767 464 q 774 433 774 445 l 774 98 q 768 68 774 81 q 742 45 762 55 q 691 24 722 35 q 627 4 660 12 q 559 -8 593 -4 q 492 -12 526 -12 q 311 19 391 -12 q 175 109 231 51 q 91 249 120 168 q 62 431 62 330 q 93 620 62 535 q 182 764 125 705 q 320 857 239 824 q 498 890 400 890 q 592 881 548 890 q 670 860 636 872 q 728 834 705 848 q 760 812 751 821 q 772 791 769 803 q 776 758 776 780 m 555 1037 q 541 985 555 999 q 487 970 526 970 q 435 984 449 970 q 420 1036 420 998 q 435 1087 420 1073 q 488 1102 450 1102 q 541 1088 526 1102 q 555 1037 555 1074 m 331 878 z "},"Ģ":{"ha":876,"x_min":62,"x_max":776,"o":"m 776 758 q 774 735 776 745 q 770 719 773 726 q 764 710 768 713 q 755 707 760 707 q 728 720 747 707 q 677 749 709 733 q 601 777 645 764 q 495 790 556 790 q 365 764 422 790 q 267 690 307 737 q 206 579 227 644 q 184 439 184 515 q 208 290 184 355 q 273 180 231 225 q 371 113 314 136 q 497 90 429 90 q 579 99 538 90 q 657 129 621 109 l 657 385 l 454 385 q 436 396 442 385 q 431 432 431 408 q 432 454 431 445 q 436 469 433 463 q 444 477 439 475 q 454 480 448 480 l 732 480 q 747 477 740 480 q 761 469 755 475 q 770 454 767 464 q 774 433 774 445 l 774 98 q 768 68 774 81 q 742 45 762 55 q 691 24 722 35 q 627 4 660 12 q 559 -8 593 -4 q 492 -12 526 -12 q 311 19 391 -12 q 175 109 231 51 q 91 249 120 168 q 62 431 62 330 q 93 620 62 535 q 182 764 125 705 q 320 857 239 824 q 498 890 400 890 q 592 881 548 890 q 670 860 636 872 q 728 834 705 848 q 760 812 751 821 q 772 791 769 803 q 776 758 776 780 m 408 -82 q 414 -70 410 -75 q 425 -62 418 -64 q 445 -58 433 -59 q 475 -56 456 -56 q 503 -59 492 -56 q 517 -65 513 -61 q 521 -76 522 -70 q 517 -89 521 -81 l 452 -227 q 445 -237 449 -233 q 434 -243 441 -241 q 418 -247 428 -245 q 395 -248 409 -248 q 374 -246 381 -248 q 363 -241 366 -244 q 360 -232 359 -237 q 363 -219 361 -227 l 408 -82 z "},"H":{"ha":865,"x_min":117,"x_max":749,"o":"m 749 18 q 746 8 749 12 q 736 2 743 4 q 719 -2 730 -1 q 691 -4 707 -4 q 663 -2 673 -4 q 645 2 652 -1 q 635 8 638 4 q 633 18 633 12 l 633 407 l 233 407 l 233 18 q 231 8 233 12 q 221 2 228 4 q 203 -2 214 -1 q 175 -4 192 -4 q 147 -2 159 -4 q 129 2 136 -1 q 119 8 122 4 q 117 18 117 12 l 117 860 q 119 869 117 865 q 129 876 122 873 q 147 880 136 878 q 175 882 159 882 q 203 880 192 882 q 221 876 214 878 q 231 869 228 873 q 233 860 233 865 l 233 509 l 633 509 l 633 860 q 635 869 633 865 q 645 876 638 873 q 663 880 652 878 q 691 882 673 882 q 719 880 707 882 q 736 876 730 878 q 746 869 743 873 q 749 860 749 865 l 749 18 z "},"Ĥ":{"ha":865,"x_min":117,"x_max":749,"o":"m 749 18 q 746 8 749 12 q 736 2 743 4 q 719 -2 730 -1 q 691 -4 707 -4 q 663 -2 673 -4 q 645 2 652 -1 q 635 8 638 4 q 633 18 633 12 l 633 407 l 233 407 l 233 18 q 231 8 233 12 q 221 2 228 4 q 203 -2 214 -1 q 175 -4 192 -4 q 147 -2 159 -4 q 129 2 136 -1 q 119 8 122 4 q 117 18 117 12 l 117 860 q 119 869 117 865 q 129 876 122 873 q 147 880 136 878 q 175 882 159 882 q 203 880 192 882 q 221 876 214 878 q 231 869 228 873 q 233 860 233 865 l 233 509 l 633 509 l 633 860 q 635 869 633 865 q 645 876 638 873 q 663 880 652 878 q 691 882 673 882 q 719 880 707 882 q 736 876 730 878 q 746 869 743 873 q 749 860 749 865 l 749 18 m 436 1145 q 460 1145 450 1145 q 476 1142 469 1144 q 489 1136 484 1139 q 500 1126 494 1132 l 645 972 q 652 960 651 965 q 650 952 654 955 q 636 947 646 949 q 612 946 627 946 q 579 947 591 946 q 559 950 567 948 q 548 955 552 951 q 540 961 543 958 l 435 1078 l 328 964 q 317 955 322 959 q 303 949 311 951 q 283 947 295 947 q 252 946 271 946 q 226 948 235 946 q 213 952 217 949 q 211 960 210 956 q 218 972 212 965 l 370 1126 q 381 1136 376 1132 q 395 1142 387 1139 q 412 1145 402 1144 q 436 1145 422 1145 m 121 878 z "},"Ħ":{"ha":911,"x_min":22,"x_max":890,"o":"m 256 621 l 256 484 l 655 484 l 655 621 l 256 621 m 772 712 l 867 712 q 877 710 872 712 q 884 702 881 708 q 889 688 887 696 q 890 666 890 680 q 889 645 890 654 q 884 631 887 636 q 877 623 881 625 q 867 621 872 621 l 772 621 l 772 17 q 769 8 772 12 q 760 1 766 4 q 742 -3 753 -1 q 713 -4 730 -4 q 686 -3 697 -4 q 668 1 674 -1 q 658 8 661 4 q 655 17 655 12 l 655 387 l 256 387 l 256 17 q 253 8 256 12 q 243 1 250 4 q 226 -3 237 -1 q 198 -4 215 -4 q 170 -3 181 -4 q 152 1 159 -1 q 142 8 145 4 q 140 17 140 12 l 140 621 l 45 621 q 35 623 39 621 q 28 631 31 625 q 23 645 25 637 q 22 667 22 654 q 23 688 22 680 q 28 702 25 697 q 35 710 31 707 q 45 712 39 712 l 140 712 l 140 861 q 142 869 140 865 q 152 876 145 873 q 170 880 159 879 q 198 882 181 882 q 226 880 215 882 q 243 876 237 879 q 253 869 250 873 q 256 861 256 865 l 256 712 l 655 712 l 655 861 q 658 869 655 865 q 668 876 661 873 q 686 880 674 879 q 713 882 697 882 q 742 880 730 882 q 760 876 753 879 q 769 869 766 873 q 772 861 772 865 l 772 712 z "},"I":{"ha":350,"x_min":117,"x_max":233,"o":"m 233 18 q 231 8 233 12 q 221 2 228 4 q 203 -2 214 -1 q 175 -4 192 -4 q 147 -2 159 -4 q 129 2 136 -1 q 119 8 122 4 q 117 18 117 12 l 117 860 q 120 869 117 865 q 130 876 123 873 q 148 880 137 878 q 175 882 159 882 q 203 880 192 882 q 221 876 214 878 q 231 869 228 873 q 233 860 233 865 l 233 18 z "},"Ì":{"ha":350,"x_min":-123,"x_max":236,"o":"m 233 18 q 231 8 233 12 q 221 2 228 4 q 203 -2 214 -1 q 175 -4 192 -4 q 147 -2 159 -4 q 129 2 136 -1 q 119 8 122 4 q 117 18 117 12 l 117 860 q 120 869 117 865 q 130 876 123 873 q 148 880 137 878 q 175 882 159 882 q 203 880 192 882 q 221 876 214 878 q 231 869 228 873 q 233 860 233 865 l 233 18 m 227 975 q 234 962 233 968 q 233 953 236 957 q 220 948 229 949 q 195 946 211 946 q 172 947 181 946 q 155 950 162 948 q 141 957 147 953 q 129 967 136 960 l -24 1111 q -34 1124 -32 1118 q -31 1135 -35 1130 q -14 1142 -26 1139 q 18 1145 -2 1145 q 47 1144 35 1145 q 68 1141 59 1143 q 84 1133 77 1138 q 99 1120 92 1128 l 227 975 m -123 878 z "},"Í":{"ha":350,"x_min":27,"x_max":387,"o":"m 233 18 q 231 8 233 12 q 221 2 228 4 q 203 -2 214 -1 q 175 -4 192 -4 q 147 -2 159 -4 q 129 2 136 -1 q 119 8 122 4 q 117 18 117 12 l 117 860 q 120 869 117 865 q 130 876 123 873 q 148 880 137 878 q 175 882 159 882 q 203 880 192 882 q 221 876 214 878 q 231 869 228 873 q 233 860 233 865 l 233 18 m 253 1120 q 268 1133 260 1128 q 283 1141 275 1138 q 304 1144 292 1143 q 334 1145 317 1145 q 366 1142 354 1145 q 382 1135 377 1139 q 385 1124 387 1130 q 377 1111 383 1118 l 223 967 q 211 957 216 960 q 197 950 205 953 q 180 947 190 948 q 156 946 170 946 q 132 948 140 946 q 119 953 123 949 q 117 962 116 957 q 125 975 119 968 l 253 1120 m 27 878 z "},"Î":{"ha":350,"x_min":-135,"x_max":398,"o":"m 233 18 q 231 8 233 12 q 221 2 228 4 q 203 -2 214 -1 q 175 -4 192 -4 q 147 -2 159 -4 q 129 2 136 -1 q 119 8 122 4 q 117 18 117 12 l 117 860 q 120 869 117 865 q 130 876 123 873 q 148 880 137 878 q 175 882 159 882 q 203 880 192 882 q 221 876 214 878 q 231 869 228 873 q 233 860 233 865 l 233 18 m 180 1145 q 204 1145 195 1145 q 221 1142 214 1144 q 233 1136 228 1139 q 244 1126 238 1132 l 389 972 q 397 960 395 965 q 394 952 398 955 q 380 947 390 949 q 356 946 371 946 q 323 947 336 946 q 304 950 311 948 q 292 955 296 951 q 284 961 288 958 l 180 1078 l 72 964 q 61 955 66 959 q 47 949 56 951 q 27 947 39 947 q -3 946 15 946 q -30 948 -20 946 q -42 952 -39 949 q -45 960 -46 956 q -37 972 -43 965 l 115 1126 q 126 1136 120 1132 q 139 1142 132 1139 q 156 1145 146 1144 q 180 1145 166 1145 m -135 878 z "},"Ĩ":{"ha":350,"x_min":-140,"x_max":407,"o":"m 233 18 q 231 8 233 12 q 221 2 228 4 q 203 -2 214 -1 q 175 -4 192 -4 q 147 -2 159 -4 q 129 2 136 -1 q 119 8 122 4 q 117 18 117 12 l 117 860 q 120 869 117 865 q 130 876 123 873 q 148 880 137 878 q 175 882 159 882 q 203 880 192 882 q 221 876 214 878 q 231 869 228 873 q 233 860 233 865 l 233 18 m 326 1095 q 335 1106 326 1103 q 368 1109 345 1109 q 399 1104 392 1109 q 407 1082 407 1099 q 372 983 407 1019 q 273 947 337 947 q 211 959 237 947 q 162 986 184 971 q 121 1012 140 1000 q 80 1024 102 1024 q 40 1007 52 1024 q 28 962 28 990 q 25 954 28 957 q 17 949 22 951 q 4 947 12 947 q -14 947 -4 947 q -45 952 -38 947 q -53 974 -53 958 q -43 1032 -53 1006 q -16 1074 -34 1057 q 26 1100 1 1091 q 81 1109 51 1109 q 143 1097 117 1109 q 191 1071 170 1085 q 232 1044 213 1057 q 274 1032 252 1032 q 312 1046 298 1032 q 326 1095 326 1060 m -140 878 z "},"Ï":{"ha":350,"x_min":-119,"x_max":382,"o":"m 233 18 q 231 8 233 12 q 221 2 228 4 q 203 -2 214 -1 q 175 -4 192 -4 q 147 -2 159 -4 q 129 2 136 -1 q 119 8 122 4 q 117 18 117 12 l 117 860 q 120 869 117 865 q 130 876 123 873 q 148 880 137 878 q 175 882 159 882 q 203 880 192 882 q 221 876 214 878 q 231 869 228 873 q 233 860 233 865 l 233 18 m 102 1037 q 87 985 102 999 q 35 970 73 970 q -16 984 -3 970 q -30 1036 -30 998 q -16 1087 -30 1074 q 36 1101 -2 1101 q 88 1088 74 1101 q 102 1037 102 1074 m 382 1037 q 368 985 382 999 q 315 970 354 970 q 264 984 278 970 q 250 1036 250 998 q 264 1087 250 1074 q 316 1101 279 1101 q 368 1088 355 1101 q 382 1037 382 1074 m -119 878 z "},"Ī":{"ha":350,"x_min":-120,"x_max":383,"o":"m 233 18 q 231 8 233 12 q 221 2 228 4 q 203 -2 214 -1 q 175 -4 192 -4 q 147 -2 159 -4 q 129 2 136 -1 q 119 8 122 4 q 117 18 117 12 l 117 860 q 120 869 117 865 q 130 876 123 873 q 148 880 137 878 q 175 882 159 882 q 203 880 192 882 q 221 876 214 878 q 231 869 228 873 q 233 860 233 865 l 233 18 m 362 1078 q 371 1076 367 1078 q 378 1067 375 1073 q 382 1054 381 1062 q 383 1034 383 1045 q 382 1014 383 1022 q 378 999 381 1005 q 371 991 375 994 q 362 988 367 988 l -8 988 q -18 991 -14 988 q -25 999 -22 994 q -29 1014 -28 1005 q -31 1034 -31 1022 q -29 1053 -31 1044 q -25 1067 -28 1062 q -18 1076 -22 1073 q -8 1078 -14 1078 l 362 1078 m -120 878 z "},"Ĭ":{"ha":350,"x_min":-90,"x_max":353,"o":"m 233 18 q 231 8 233 12 q 221 2 228 4 q 203 -2 214 -1 q 175 -4 192 -4 q 147 -2 159 -4 q 129 2 136 -1 q 119 8 122 4 q 117 18 117 12 l 117 860 q 120 869 117 865 q 130 876 123 873 q 148 880 137 878 q 175 882 159 882 q 203 880 192 882 q 221 876 214 878 q 231 869 228 873 q 233 860 233 865 l 233 18 m 353 1128 q 341 1052 353 1086 q 307 995 330 1019 q 250 959 283 971 q 175 946 217 946 q 96 960 130 946 q 41 998 63 974 q 9 1055 20 1022 q -1 1128 -1 1088 q 7 1143 -1 1139 q 39 1147 15 1147 q 73 1144 63 1147 q 83 1131 83 1141 q 89 1097 83 1120 q 106 1059 95 1074 q 135 1036 118 1044 q 177 1028 153 1028 q 232 1044 212 1028 q 261 1083 253 1061 q 269 1121 269 1105 q 277 1142 270 1137 q 312 1147 285 1147 q 345 1143 337 1147 q 353 1128 353 1139 m -90 878 z "},"İ":{"ha":350,"x_min":20,"x_max":245,"o":"m 233 18 q 231 8 233 12 q 221 2 228 4 q 203 -2 214 -1 q 175 -4 192 -4 q 147 -2 159 -4 q 129 2 136 -1 q 119 8 122 4 q 117 18 117 12 l 117 860 q 120 869 117 865 q 130 876 123 873 q 148 880 137 878 q 175 882 159 882 q 203 880 192 882 q 221 876 214 878 q 231 869 228 873 q 233 860 233 865 l 233 18 m 245 1037 q 230 985 245 999 q 176 970 215 970 q 124 984 138 970 q 110 1036 110 998 q 124 1087 110 1073 q 178 1102 139 1102 q 230 1088 216 1102 q 245 1037 245 1074 m 20 878 z "},"Į":{"ha":350,"x_min":26,"x_max":279,"o":"m 279 -197 q 278 -214 279 -208 q 275 -224 277 -220 q 268 -231 273 -229 q 257 -235 264 -233 q 211 -244 235 -241 q 160 -248 187 -248 q 62 -222 97 -248 q 26 -146 26 -197 q 28 -124 26 -136 q 35 -99 30 -113 q 52 -71 41 -86 q 80 -39 62 -56 l 123 4 q 118 9 120 6 q 117 16 117 12 l 117 861 q 120 869 117 865 q 130 876 123 873 q 148 880 137 879 q 175 882 159 882 q 203 880 192 882 q 221 876 214 879 q 231 869 228 873 q 233 861 233 865 l 233 16 q 230 -3 233 5 q 220 -19 227 -12 l 170 -70 q 142 -104 149 -91 q 136 -127 136 -117 q 149 -155 136 -146 q 186 -163 161 -163 l 260 -163 q 275 -170 271 -163 q 279 -197 279 -176 z "},"Ĳ":{"ha":793,"x_min":117,"x_max":679,"o":"m 233 18 q 231 8 233 12 q 221 2 228 4 q 203 -2 214 -1 q 175 -4 192 -4 q 147 -2 159 -4 q 129 2 136 -1 q 119 8 122 4 q 117 18 117 12 l 117 860 q 120 869 117 865 q 130 876 123 873 q 148 880 137 878 q 175 882 159 882 q 203 880 192 882 q 221 876 214 878 q 231 869 228 873 q 233 860 233 865 l 233 18 m 679 221 q 669 125 679 169 q 637 52 660 82 q 576 4 614 21 q 483 -12 538 -12 q 445 -9 464 -12 q 411 -1 427 -6 q 384 10 395 4 q 369 20 372 16 q 362 28 365 24 q 358 38 360 32 q 356 52 357 43 q 355 73 355 60 q 356 97 355 87 q 360 113 357 107 q 367 121 363 119 q 376 123 370 123 q 390 118 381 123 q 410 107 398 113 q 437 96 422 101 q 474 91 453 91 q 513 97 497 91 q 541 118 530 102 q 557 161 551 134 q 562 233 562 189 l 562 861 q 565 869 562 865 q 574 876 568 873 q 592 880 581 879 q 621 882 604 882 q 648 880 637 882 q 666 876 660 879 q 676 869 673 873 q 679 861 679 865 l 679 221 z "},"J":{"ha":443,"x_min":5,"x_max":328,"o":"m 328 221 q 319 125 328 169 q 286 52 309 82 q 225 4 263 21 q 132 -12 188 -12 q 95 -9 113 -12 q 60 -1 76 -6 q 33 10 45 4 q 18 20 22 16 q 12 28 14 24 q 8 38 9 32 q 5 52 6 43 q 5 73 5 60 q 6 97 5 87 q 9 113 7 107 q 16 121 12 119 q 25 123 20 123 q 39 118 31 123 q 59 107 47 113 q 87 96 71 101 q 123 91 102 91 q 163 97 146 91 q 190 118 179 102 q 206 161 201 134 q 212 233 212 189 l 212 861 q 214 869 212 865 q 224 876 217 873 q 242 880 231 879 q 270 882 253 882 q 298 880 286 882 q 316 876 309 879 q 325 869 322 873 q 328 861 328 865 l 328 221 z "},"Ĵ":{"ha":443,"x_min":-59,"x_max":474,"o":"m 328 221 q 319 125 328 169 q 286 52 309 82 q 225 4 263 21 q 132 -12 188 -12 q 95 -9 113 -12 q 60 -1 76 -6 q 33 10 45 4 q 18 20 22 16 q 12 28 14 24 q 8 38 9 32 q 5 52 6 43 q 5 73 5 60 q 6 97 5 87 q 9 113 7 107 q 16 121 12 119 q 25 123 20 123 q 39 118 31 123 q 59 107 47 113 q 87 96 71 101 q 123 91 102 91 q 163 97 146 91 q 190 118 179 102 q 206 161 201 134 q 212 233 212 189 l 212 861 q 214 869 212 865 q 224 876 217 873 q 242 880 231 879 q 270 882 253 882 q 298 880 286 882 q 316 876 309 879 q 325 869 322 873 q 328 861 328 865 l 328 221 m 256 1145 q 280 1145 271 1145 q 297 1142 290 1144 q 309 1136 304 1139 q 320 1126 314 1132 l 465 972 q 473 960 471 965 q 470 952 474 955 q 456 947 466 949 q 432 946 447 946 q 399 947 412 946 q 380 950 387 948 q 368 955 372 951 q 360 961 363 958 l 256 1078 l 148 964 q 137 955 142 959 q 123 949 132 951 q 103 947 115 947 q 73 946 91 946 q 46 948 56 946 q 34 952 37 949 q 31 960 30 956 q 39 972 33 965 l 191 1126 q 202 1136 196 1132 q 215 1142 208 1139 q 232 1145 222 1144 q 256 1145 242 1145 m -59 878 z "},"K":{"ha":722,"x_min":117,"x_max":689,"o":"m 689 19 q 687 9 689 14 q 677 2 684 5 q 659 -2 671 -1 q 629 -4 648 -4 q 591 -2 606 -4 q 568 5 576 0 q 556 18 561 11 l 233 456 l 233 18 q 231 8 233 13 q 221 2 228 4 q 203 -2 214 -1 q 175 -4 192 -4 q 147 -2 159 -4 q 129 2 136 -1 q 119 8 122 4 q 117 18 117 13 l 117 860 q 119 869 117 865 q 129 876 122 873 q 147 880 136 878 q 175 882 159 882 q 203 880 192 882 q 221 876 214 878 q 231 869 228 873 q 233 860 233 865 l 233 470 l 544 860 q 553 870 548 866 q 567 877 559 874 q 586 880 574 879 q 614 882 597 882 q 643 880 632 882 q 660 876 654 878 q 669 869 667 873 q 671 860 671 865 q 667 842 671 851 q 650 818 663 833 l 359 470 l 673 54 q 687 30 684 36 q 689 19 689 23 z "},"Ķ":{"ha":722,"x_min":117,"x_max":689,"o":"m 689 19 q 687 9 689 14 q 677 2 684 5 q 659 -2 671 -1 q 629 -4 648 -4 q 591 -2 606 -4 q 568 5 576 0 q 556 18 561 11 l 233 456 l 233 18 q 231 8 233 13 q 221 2 228 4 q 203 -2 214 -1 q 175 -4 192 -4 q 147 -2 159 -4 q 129 2 136 -1 q 119 8 122 4 q 117 18 117 13 l 117 860 q 119 869 117 865 q 129 876 122 873 q 147 880 136 878 q 175 882 159 882 q 203 880 192 882 q 221 876 214 878 q 231 869 228 873 q 233 860 233 865 l 233 470 l 544 860 q 553 870 548 866 q 567 877 559 874 q 586 880 574 879 q 614 882 597 882 q 643 880 632 882 q 660 876 654 878 q 669 869 667 873 q 671 860 671 865 q 667 842 671 851 q 650 818 663 833 l 359 470 l 673 54 q 687 30 684 36 q 689 19 689 23 m 327 -82 q 333 -70 329 -75 q 345 -62 337 -64 q 364 -58 352 -59 q 394 -56 376 -56 q 422 -59 412 -56 q 436 -65 432 -61 q 440 -76 441 -70 q 437 -89 440 -81 l 371 -227 q 364 -237 368 -233 q 354 -243 360 -241 q 338 -247 347 -245 q 315 -248 328 -248 q 293 -246 300 -248 q 282 -241 286 -244 q 279 -232 279 -237 q 282 -219 280 -227 l 327 -82 z "},"L":{"ha":584,"x_min":117,"x_max":572,"o":"m 572 51 q 570 28 572 37 q 566 13 569 19 q 558 3 563 6 q 548 0 554 0 l 160 0 q 131 11 144 0 q 117 47 117 21 l 117 860 q 119 869 117 865 q 129 876 122 873 q 147 880 136 878 q 175 882 159 882 q 203 880 192 882 q 221 876 214 878 q 231 869 228 873 q 233 860 233 865 l 233 101 l 548 101 q 558 98 554 101 q 566 89 563 95 q 570 74 569 83 q 572 51 572 64 z "},"Ĺ":{"ha":584,"x_min":87,"x_max":572,"o":"m 572 51 q 570 28 572 37 q 566 13 569 19 q 558 3 563 6 q 548 0 554 0 l 160 0 q 131 11 144 0 q 117 47 117 21 l 117 860 q 119 869 117 865 q 129 876 122 873 q 147 880 136 878 q 175 882 159 882 q 203 880 192 882 q 221 876 214 878 q 231 869 228 873 q 233 860 233 865 l 233 101 l 548 101 q 558 98 554 101 q 566 89 563 95 q 570 74 569 83 q 572 51 572 64 m 313 1120 q 328 1133 321 1128 q 344 1141 335 1138 q 365 1144 353 1143 q 394 1145 377 1145 q 426 1142 414 1145 q 442 1135 437 1139 q 445 1124 447 1130 q 437 1111 444 1118 l 283 967 q 271 957 277 960 q 258 950 265 953 q 240 947 250 948 q 216 946 231 946 q 192 948 201 946 q 180 953 183 949 q 178 962 176 957 q 185 975 179 968 l 313 1120 m 87 878 z "},"Ľ":{"ha":587,"x_min":117,"x_max":572,"o":"m 572 51 q 570 28 572 37 q 566 13 569 19 q 558 3 563 6 q 548 0 554 0 l 160 0 q 131 11 144 0 q 117 47 117 21 l 117 860 q 119 869 117 865 q 129 876 122 873 q 147 880 136 878 q 175 882 159 882 q 203 880 192 882 q 221 876 214 878 q 231 869 228 873 q 233 860 233 865 l 233 101 l 548 101 q 558 98 554 101 q 566 89 563 95 q 570 74 569 83 q 572 51 572 64 m 410 892 q 416 903 412 899 q 427 911 420 908 q 445 915 433 913 q 471 916 456 916 q 495 915 487 916 q 508 910 504 913 q 513 903 513 907 q 511 891 513 898 l 427 680 q 422 672 425 675 q 413 667 419 669 q 398 665 408 665 q 375 664 389 664 q 359 665 365 664 q 350 669 353 667 q 347 676 347 672 q 347 685 346 680 l 410 892 m 256 645 z "},"Ļ":{"ha":584,"x_min":117,"x_max":572,"o":"m 572 51 q 570 28 572 37 q 566 13 569 19 q 558 3 563 6 q 548 0 554 0 l 160 0 q 131 11 144 0 q 117 47 117 21 l 117 860 q 119 869 117 865 q 129 876 122 873 q 147 880 136 878 q 175 882 159 882 q 203 880 192 882 q 221 876 214 878 q 231 869 228 873 q 233 860 233 865 l 233 101 l 548 101 q 558 98 554 101 q 566 89 563 95 q 570 74 569 83 q 572 51 572 64 m 289 -82 q 295 -70 291 -75 q 307 -62 299 -64 q 326 -58 314 -59 q 356 -56 338 -56 q 384 -59 374 -56 q 398 -65 394 -61 q 402 -76 403 -70 q 399 -89 402 -81 l 333 -227 q 326 -237 330 -233 q 316 -243 322 -241 q 300 -247 309 -245 q 277 -248 290 -248 q 255 -246 262 -248 q 244 -241 248 -244 q 241 -232 241 -237 q 244 -219 242 -227 l 289 -82 z "},"Ł":{"ha":597,"x_min":19,"x_max":585,"o":"m 585 51 q 583 28 585 37 q 578 13 582 19 q 571 3 575 6 q 561 0 566 0 l 172 0 q 143 11 157 0 q 130 47 130 21 l 130 371 l 43 315 q 25 317 31 308 q 19 356 19 326 q 20 376 19 368 q 23 392 20 385 q 29 403 25 399 q 39 411 33 408 l 130 469 l 130 861 q 132 869 130 865 q 142 876 135 873 q 160 880 149 879 q 188 882 171 882 q 216 880 204 882 q 234 876 227 879 q 243 869 241 873 q 246 861 246 865 l 246 542 l 399 638 q 417 635 411 645 q 423 597 423 626 q 422 576 423 585 q 419 561 421 568 q 413 550 416 555 q 404 542 410 545 l 246 444 l 246 101 l 561 101 q 571 98 566 101 q 578 89 575 95 q 583 74 582 83 q 585 51 585 64 z "},"Ŀ":{"ha":758,"x_min":117,"x_max":671,"o":"m 572 51 q 570 28 572 37 q 566 13 569 19 q 558 3 563 6 q 548 0 554 0 l 160 0 q 131 11 144 0 q 117 47 117 21 l 117 860 q 119 869 117 865 q 129 876 122 873 q 147 880 136 878 q 175 882 159 882 q 203 880 192 882 q 221 876 214 878 q 231 869 228 873 q 233 860 233 865 l 233 101 l 548 101 q 558 98 554 101 q 566 89 563 95 q 570 74 569 83 q 572 51 572 64 m 671 454 q 655 390 671 406 q 597 374 639 374 q 541 389 556 374 q 525 452 525 405 q 541 516 525 500 q 599 532 557 532 q 655 516 640 532 q 671 454 671 500 z "},"M":{"ha":1187,"x_min":117,"x_max":1071,"o":"m 1071 18 q 1068 8 1071 12 q 1059 2 1065 4 q 1041 -2 1052 -1 q 1014 -4 1031 -4 q 987 -2 998 -4 q 969 2 976 -1 q 960 8 963 4 q 958 18 958 12 l 958 782 l 956 782 l 644 14 q 638 6 642 9 q 627 0 634 3 q 610 -3 620 -2 q 587 -4 600 -4 q 562 -3 572 -4 q 545 1 552 -1 q 535 7 538 3 q 530 14 531 10 l 231 782 l 230 782 l 230 18 q 227 8 230 12 q 218 2 224 4 q 200 -2 211 -1 q 172 -4 189 -4 q 145 -2 156 -4 q 128 2 134 -1 q 119 8 121 4 q 117 18 117 12 l 117 825 q 132 865 117 853 q 165 878 146 878 l 235 878 q 273 873 257 878 q 302 861 290 869 q 322 838 314 852 q 336 806 330 825 l 591 171 l 594 171 l 859 804 q 875 839 866 825 q 894 862 884 853 q 918 874 905 870 q 947 878 930 878 l 1021 878 q 1041 874 1031 878 q 1056 865 1050 871 q 1067 849 1063 859 q 1071 825 1071 839 l 1071 18 z "},"N":{"ha":897,"x_min":117,"x_max":780,"o":"m 780 48 q 775 25 780 35 q 764 9 771 16 q 748 1 757 3 q 730 -2 739 -2 l 693 -2 q 662 2 675 -2 q 637 15 649 5 q 613 42 625 25 q 587 85 602 59 l 311 585 q 267 666 289 623 q 226 748 245 708 l 224 748 q 227 648 226 699 q 227 547 227 597 l 227 18 q 224 8 227 13 q 215 2 222 4 q 198 -2 209 -1 q 172 -4 188 -4 q 145 -2 155 -4 q 128 2 134 -1 q 119 8 122 4 q 117 18 117 13 l 117 827 q 132 866 117 854 q 164 878 146 878 l 220 878 q 253 874 239 878 q 276 863 266 871 q 297 841 287 855 q 318 806 307 827 l 531 421 q 569 352 551 386 q 604 286 587 319 q 638 222 621 254 q 671 159 654 191 l 671 159 q 670 270 670 212 q 669 382 669 328 l 669 858 q 672 867 669 863 q 681 874 675 871 q 698 878 688 877 q 726 880 709 880 q 751 878 741 880 q 768 874 762 877 q 777 867 774 871 q 780 858 780 863 l 780 48 z "},"Ń":{"ha":897,"x_min":117,"x_max":780,"o":"m 780 48 q 775 25 780 35 q 764 9 771 16 q 748 1 757 3 q 730 -2 739 -2 l 693 -2 q 662 2 675 -2 q 637 15 649 5 q 613 42 625 25 q 587 85 602 59 l 311 585 q 267 666 289 623 q 226 748 245 708 l 224 748 q 227 648 226 699 q 227 547 227 597 l 227 18 q 224 8 227 13 q 215 2 222 4 q 198 -2 209 -1 q 172 -4 188 -4 q 145 -2 155 -4 q 128 2 134 -1 q 119 8 122 4 q 117 18 117 13 l 117 827 q 132 866 117 854 q 164 878 146 878 l 220 878 q 253 874 239 878 q 276 863 266 871 q 297 841 287 855 q 318 806 307 827 l 531 421 q 569 352 551 386 q 604 286 587 319 q 638 222 621 254 q 671 159 654 191 l 671 159 q 670 270 670 212 q 669 382 669 328 l 669 858 q 672 867 669 863 q 681 874 675 871 q 698 878 688 877 q 726 880 709 880 q 751 878 741 880 q 768 874 762 877 q 777 867 774 871 q 780 858 780 863 l 780 48 m 537 1120 q 552 1133 545 1128 q 568 1141 559 1138 q 589 1144 576 1143 q 618 1145 601 1145 q 650 1142 638 1145 q 666 1135 661 1139 q 669 1124 671 1130 q 661 1111 667 1118 l 507 967 q 495 957 500 960 q 481 950 489 953 q 464 947 474 948 q 440 946 454 946 q 416 948 425 946 q 404 953 407 949 q 401 962 400 957 q 409 975 403 968 l 537 1120 m 311 878 z "},"Ň":{"ha":897,"x_min":117,"x_max":780,"o":"m 780 48 q 775 25 780 35 q 764 9 771 16 q 748 1 757 3 q 730 -2 739 -2 l 693 -2 q 662 2 675 -2 q 637 15 649 5 q 613 42 625 25 q 587 85 602 59 l 311 585 q 267 666 289 623 q 226 748 245 708 l 224 748 q 227 648 226 699 q 227 547 227 597 l 227 18 q 224 8 227 13 q 215 2 222 4 q 198 -2 209 -1 q 172 -4 188 -4 q 145 -2 155 -4 q 128 2 134 -1 q 119 8 122 4 q 117 18 117 13 l 117 827 q 132 866 117 854 q 164 878 146 878 l 220 878 q 253 874 239 878 q 276 863 266 871 q 297 841 287 855 q 318 806 307 827 l 531 421 q 569 352 551 386 q 604 286 587 319 q 638 222 621 254 q 671 159 654 191 l 671 159 q 670 270 670 212 q 669 382 669 328 l 669 858 q 672 867 669 863 q 681 874 675 871 q 698 878 688 877 q 726 880 709 880 q 751 878 741 880 q 768 874 762 877 q 777 867 774 871 q 780 858 780 863 l 780 48 m 450 946 q 426 947 435 946 q 409 949 416 947 q 397 956 402 951 q 386 966 392 960 l 241 1120 q 233 1132 235 1126 q 236 1140 232 1137 q 250 1144 240 1143 q 274 1145 259 1145 q 307 1144 294 1145 q 326 1142 319 1143 q 338 1137 334 1140 q 346 1130 342 1133 l 450 1013 l 559 1127 q 569 1136 564 1133 q 583 1142 575 1140 q 603 1145 591 1144 q 633 1145 615 1145 q 660 1144 650 1145 q 673 1139 669 1142 q 674 1131 676 1136 q 667 1120 673 1126 l 516 966 q 505 956 511 960 q 491 950 498 952 q 474 947 484 947 q 450 946 464 946 m 144 878 z "},"Ñ":{"ha":897,"x_min":117,"x_max":780,"o":"m 780 48 q 775 25 780 35 q 764 9 771 16 q 748 1 757 3 q 730 -2 739 -2 l 693 -2 q 662 2 675 -2 q 637 15 649 5 q 613 42 625 25 q 587 85 602 59 l 311 585 q 267 666 289 623 q 226 748 245 708 l 224 748 q 227 648 226 699 q 227 547 227 597 l 227 18 q 224 8 227 13 q 215 2 222 4 q 198 -2 209 -1 q 172 -4 188 -4 q 145 -2 155 -4 q 128 2 134 -1 q 119 8 122 4 q 117 18 117 13 l 117 827 q 132 866 117 854 q 164 878 146 878 l 220 878 q 253 874 239 878 q 276 863 266 871 q 297 841 287 855 q 318 806 307 827 l 531 421 q 569 352 551 386 q 604 286 587 319 q 638 222 621 254 q 671 159 654 191 l 671 159 q 670 270 670 212 q 669 382 669 328 l 669 858 q 672 867 669 863 q 681 874 675 871 q 698 878 688 877 q 726 880 709 880 q 751 878 741 880 q 768 874 762 877 q 777 867 774 871 q 780 858 780 863 l 780 48 m 597 1095 q 607 1106 597 1103 q 640 1109 616 1109 q 671 1104 664 1109 q 679 1082 679 1099 q 644 983 679 1019 q 545 947 609 947 q 483 959 509 947 q 434 986 456 971 q 393 1012 412 1000 q 352 1024 374 1024 q 312 1007 323 1024 q 300 962 300 990 q 297 954 300 957 q 289 949 294 951 q 276 947 283 947 q 258 947 268 947 q 227 952 234 947 q 219 974 219 958 q 229 1032 219 1006 q 256 1074 238 1057 q 298 1100 273 1091 q 353 1109 323 1109 q 415 1097 389 1109 q 463 1071 441 1085 q 504 1044 485 1057 q 546 1032 524 1032 q 584 1046 570 1032 q 597 1095 597 1060 m 132 878 z "},"Ņ":{"ha":897,"x_min":117,"x_max":780,"o":"m 780 48 q 775 25 780 35 q 764 9 771 16 q 748 1 757 3 q 730 -2 739 -2 l 693 -2 q 662 2 675 -2 q 637 15 649 5 q 613 42 625 25 q 587 85 602 59 l 311 585 q 267 666 289 623 q 226 748 245 708 l 224 748 q 227 648 226 699 q 227 547 227 597 l 227 18 q 224 8 227 13 q 215 2 222 4 q 198 -2 209 -1 q 172 -4 188 -4 q 145 -2 155 -4 q 128 2 134 -1 q 119 8 122 4 q 117 18 117 13 l 117 827 q 132 866 117 854 q 164 878 146 878 l 220 878 q 253 874 239 878 q 276 863 266 871 q 297 841 287 855 q 318 806 307 827 l 531 421 q 569 352 551 386 q 604 286 587 319 q 638 222 621 254 q 671 159 654 191 l 671 159 q 670 270 670 212 q 669 382 669 328 l 669 858 q 672 867 669 863 q 681 874 675 871 q 698 878 688 877 q 726 880 709 880 q 751 878 741 880 q 768 874 762 877 q 777 867 774 871 q 780 858 780 863 l 780 48 m 376 -82 q 382 -70 378 -75 q 393 -62 386 -64 q 413 -58 401 -59 q 443 -56 425 -56 q 471 -59 460 -56 q 485 -65 481 -61 q 489 -76 490 -70 q 486 -89 489 -81 l 420 -227 q 413 -237 417 -233 q 402 -243 409 -241 q 387 -247 396 -245 q 363 -248 377 -248 q 342 -246 349 -248 q 331 -241 334 -244 q 328 -232 328 -237 q 331 -219 329 -227 l 376 -82 z "},"Ŋ":{"ha":873,"x_min":117,"x_max":755,"o":"m 755 -22 q 746 -115 755 -73 q 715 -186 737 -157 q 658 -232 694 -216 q 568 -248 622 -248 q 534 -246 549 -248 q 507 -242 519 -245 q 486 -235 495 -239 q 473 -227 477 -231 q 467 -213 469 -223 q 465 -185 465 -203 q 466 -164 465 -173 q 469 -151 467 -156 q 474 -143 471 -146 q 481 -141 477 -141 q 493 -143 488 -141 q 505 -148 498 -145 q 524 -152 513 -151 q 555 -154 536 -154 q 593 -148 577 -154 q 620 -126 610 -141 q 635 -87 630 -111 q 640 -28 640 -63 l 640 0 l 328 549 q 277 641 302 593 q 227 736 251 688 l 226 736 q 228 600 227 669 q 228 463 228 530 l 228 17 q 225 8 228 12 q 216 1 222 4 q 199 -3 210 -1 q 172 -4 189 -4 q 146 -3 157 -4 q 129 1 135 -1 q 119 8 122 4 q 117 17 117 12 l 117 827 q 131 866 117 854 q 163 878 145 878 l 220 878 q 247 874 235 878 q 268 865 258 871 q 284 848 277 859 q 300 823 292 838 l 522 433 q 585 320 553 378 q 646 205 616 262 l 648 205 q 645 332 646 267 q 645 459 645 397 l 645 859 q 648 867 645 863 q 657 874 650 871 q 674 878 663 877 q 701 880 684 880 q 726 878 715 880 q 744 874 737 877 q 753 867 750 871 q 755 859 755 863 l 755 -22 z "},"O":{"ha":920,"x_min":67,"x_max":852,"o":"m 852 449 q 827 257 852 342 q 752 112 802 172 q 627 19 702 52 q 451 -13 551 -13 q 280 17 352 -13 q 160 102 208 46 q 90 242 113 159 q 67 434 67 326 q 92 623 67 538 q 168 767 117 707 q 293 858 218 826 q 469 890 368 890 q 637 861 566 890 q 757 776 709 832 q 828 638 805 720 q 852 449 852 555 m 729 441 q 716 579 729 515 q 672 691 703 644 q 589 764 641 738 q 462 791 538 791 q 334 762 386 791 q 251 686 283 734 q 204 575 218 639 q 191 442 191 512 q 203 300 191 365 q 247 188 216 235 q 329 114 277 140 q 457 88 380 88 q 586 117 534 88 q 670 194 638 145 q 715 306 702 242 q 729 441 729 370 z "},"Ò":{"ha":920,"x_min":67,"x_max":852,"o":"m 852 449 q 827 257 852 342 q 752 112 802 172 q 627 19 702 52 q 451 -13 551 -13 q 280 17 352 -13 q 160 102 208 46 q 90 242 113 159 q 67 434 67 326 q 92 623 67 538 q 168 767 117 707 q 293 858 218 826 q 469 890 368 890 q 637 861 566 890 q 757 776 709 832 q 828 638 805 720 q 852 449 852 555 m 729 441 q 716 579 729 515 q 672 691 703 644 q 589 764 641 738 q 462 791 538 791 q 334 762 386 791 q 251 686 283 734 q 204 575 218 639 q 191 442 191 512 q 203 300 191 365 q 247 188 216 235 q 329 114 277 140 q 457 88 380 88 q 586 117 534 88 q 670 194 638 145 q 715 306 702 242 q 729 441 729 370 m 513 975 q 521 962 519 968 q 519 953 523 957 q 507 948 516 949 q 482 946 498 946 q 458 947 468 946 q 441 950 449 948 q 428 957 434 953 q 416 967 422 960 l 262 1111 q 253 1124 255 1118 q 256 1135 252 1130 q 273 1142 261 1139 q 305 1145 285 1145 q 334 1144 322 1145 q 355 1141 346 1143 q 371 1133 363 1138 q 386 1120 378 1128 l 513 975 m 163 878 z "},"Ó":{"ha":920,"x_min":67,"x_max":852,"o":"m 852 449 q 827 257 852 342 q 752 112 802 172 q 627 19 702 52 q 451 -13 551 -13 q 280 17 352 -13 q 160 102 208 46 q 90 242 113 159 q 67 434 67 326 q 92 623 67 538 q 168 767 117 707 q 293 858 218 826 q 469 890 368 890 q 637 861 566 890 q 757 776 709 832 q 828 638 805 720 q 852 449 852 555 m 729 441 q 716 579 729 515 q 672 691 703 644 q 589 764 641 738 q 462 791 538 791 q 334 762 386 791 q 251 686 283 734 q 204 575 218 639 q 191 442 191 512 q 203 300 191 365 q 247 188 216 235 q 329 114 277 140 q 457 88 380 88 q 586 117 534 88 q 670 194 638 145 q 715 306 702 242 q 729 441 729 370 m 530 1120 q 545 1133 538 1128 q 561 1141 552 1138 q 582 1144 570 1143 q 611 1145 594 1145 q 643 1142 631 1145 q 659 1135 654 1139 q 662 1124 664 1130 q 654 1111 661 1118 l 500 967 q 488 957 494 960 q 475 950 482 953 q 457 947 467 948 q 433 946 448 946 q 409 948 418 946 q 397 953 400 949 q 395 962 393 957 q 402 975 396 968 l 530 1120 m 304 878 z "},"Ô":{"ha":920,"x_min":67,"x_max":852,"o":"m 852 449 q 827 257 852 342 q 752 112 802 172 q 627 19 702 52 q 451 -13 551 -13 q 280 17 352 -13 q 160 102 208 46 q 90 242 113 159 q 67 434 67 326 q 92 623 67 538 q 168 767 117 707 q 293 858 218 826 q 469 890 368 890 q 637 861 566 890 q 757 776 709 832 q 828 638 805 720 q 852 449 852 555 m 729 441 q 716 579 729 515 q 672 691 703 644 q 589 764 641 738 q 462 791 538 791 q 334 762 386 791 q 251 686 283 734 q 204 575 218 639 q 191 442 191 512 q 203 300 191 365 q 247 188 216 235 q 329 114 277 140 q 457 88 380 88 q 586 117 534 88 q 670 194 638 145 q 715 306 702 242 q 729 441 729 370 m 467 1145 q 491 1145 481 1145 q 508 1142 500 1144 q 520 1136 515 1139 q 531 1126 525 1132 l 676 972 q 684 960 682 965 q 681 952 685 955 q 667 947 677 949 q 643 946 658 946 q 610 947 623 946 q 591 950 598 948 q 579 955 583 951 q 571 961 574 958 l 467 1078 l 359 964 q 348 955 353 959 q 334 949 342 951 q 314 947 326 947 q 283 946 302 946 q 257 948 267 946 q 244 952 248 949 q 242 960 241 956 q 250 972 243 965 l 401 1126 q 413 1136 407 1132 q 426 1142 418 1139 q 443 1145 433 1144 q 467 1145 453 1145 m 152 878 z "},"Õ":{"ha":920,"x_min":67,"x_max":852,"o":"m 852 449 q 827 257 852 342 q 752 112 802 172 q 627 19 702 52 q 451 -13 551 -13 q 280 17 352 -13 q 160 102 208 46 q 90 242 113 159 q 67 434 67 326 q 92 623 67 538 q 168 767 117 707 q 293 858 218 826 q 469 890 368 890 q 637 861 566 890 q 757 776 709 832 q 828 638 805 720 q 852 449 852 555 m 729 441 q 716 579 729 515 q 672 691 703 644 q 589 764 641 738 q 462 791 538 791 q 334 762 386 791 q 251 686 283 734 q 204 575 218 639 q 191 442 191 512 q 203 300 191 365 q 247 188 216 235 q 329 114 277 140 q 457 88 380 88 q 586 117 534 88 q 670 194 638 145 q 715 306 702 242 q 729 441 729 370 m 612 1095 q 622 1106 612 1103 q 654 1109 631 1109 q 686 1104 679 1109 q 694 1082 694 1099 q 659 983 694 1019 q 560 947 624 947 q 498 959 524 947 q 449 986 471 971 q 408 1012 427 1000 q 367 1024 389 1024 q 327 1007 338 1024 q 315 962 315 990 q 312 954 315 957 q 304 949 309 951 q 291 947 298 947 q 273 947 283 947 q 241 952 249 947 q 234 974 234 958 q 243 1032 234 1006 q 271 1074 253 1057 q 313 1100 288 1091 q 368 1109 338 1109 q 430 1097 404 1109 q 478 1071 456 1085 q 519 1044 500 1057 q 561 1032 538 1032 q 598 1046 585 1032 q 612 1095 612 1060 m 146 878 z "},"Ö":{"ha":920,"x_min":67,"x_max":852,"o":"m 852 449 q 827 257 852 342 q 752 112 802 172 q 627 19 702 52 q 451 -13 551 -13 q 280 17 352 -13 q 160 102 208 46 q 90 242 113 159 q 67 434 67 326 q 92 623 67 538 q 168 767 117 707 q 293 858 218 826 q 469 890 368 890 q 637 861 566 890 q 757 776 709 832 q 828 638 805 720 q 852 449 852 555 m 729 441 q 716 579 729 515 q 672 691 703 644 q 589 764 641 738 q 462 791 538 791 q 334 762 386 791 q 251 686 283 734 q 204 575 218 639 q 191 442 191 512 q 203 300 191 365 q 247 188 216 235 q 329 114 277 140 q 457 88 380 88 q 586 117 534 88 q 670 194 638 145 q 715 306 702 242 q 729 441 729 370 m 388 1037 q 374 985 388 999 q 321 970 359 970 q 270 984 283 970 q 256 1036 256 998 q 270 1087 256 1074 q 322 1101 284 1101 q 374 1088 360 1101 q 388 1037 388 1074 m 668 1037 q 654 985 668 999 q 602 970 640 970 q 550 984 564 970 q 536 1036 536 998 q 551 1087 536 1074 q 602 1101 565 1101 q 654 1088 641 1101 q 668 1037 668 1074 m 167 878 z "},"Ō":{"ha":920,"x_min":67,"x_max":852,"o":"m 852 449 q 827 257 852 342 q 752 112 802 172 q 627 19 702 52 q 451 -13 551 -13 q 280 17 352 -13 q 160 102 208 46 q 90 242 113 159 q 67 434 67 326 q 92 623 67 538 q 168 767 117 707 q 293 858 218 826 q 469 890 368 890 q 637 861 566 890 q 757 776 709 832 q 828 638 805 720 q 852 449 852 555 m 729 441 q 716 579 729 515 q 672 691 703 644 q 589 764 641 738 q 462 791 538 791 q 334 762 386 791 q 251 686 283 734 q 204 575 218 639 q 191 442 191 512 q 203 300 191 365 q 247 188 216 235 q 329 114 277 140 q 457 88 380 88 q 586 117 534 88 q 670 194 638 145 q 715 306 702 242 q 729 441 729 370 m 648 1078 q 657 1076 653 1078 q 664 1067 661 1073 q 668 1054 667 1062 q 669 1034 669 1045 q 668 1014 669 1022 q 664 999 667 1005 q 657 991 661 994 q 648 988 653 988 l 278 988 q 268 991 273 988 q 261 999 264 994 q 257 1014 258 1005 q 256 1034 256 1022 q 257 1053 256 1044 q 261 1067 258 1062 q 268 1076 264 1073 q 278 1078 273 1078 l 648 1078 m 166 878 z "},"Ŏ":{"ha":920,"x_min":67,"x_max":852,"o":"m 852 449 q 827 257 852 342 q 752 112 802 172 q 627 19 702 52 q 451 -13 551 -13 q 280 17 352 -13 q 160 102 208 46 q 90 242 113 159 q 67 434 67 326 q 92 623 67 538 q 168 767 117 707 q 293 858 218 826 q 469 890 368 890 q 637 861 566 890 q 757 776 709 832 q 828 638 805 720 q 852 449 852 555 m 729 441 q 716 579 729 515 q 672 691 703 644 q 589 764 641 738 q 462 791 538 791 q 334 762 386 791 q 251 686 283 734 q 204 575 218 639 q 191 442 191 512 q 203 300 191 365 q 247 188 216 235 q 329 114 277 140 q 457 88 380 88 q 586 117 534 88 q 670 194 638 145 q 715 306 702 242 q 729 441 729 370 m 640 1128 q 628 1052 640 1086 q 593 995 616 1019 q 536 959 570 971 q 461 946 503 946 q 382 960 416 946 q 328 998 349 974 q 296 1055 306 1022 q 286 1128 286 1088 q 293 1143 286 1139 q 325 1147 301 1147 q 359 1144 349 1147 q 369 1131 369 1141 q 375 1097 370 1120 q 393 1059 381 1074 q 421 1036 404 1044 q 463 1028 439 1028 q 518 1044 498 1028 q 547 1083 539 1061 q 555 1121 555 1105 q 564 1142 556 1137 q 598 1147 571 1147 q 631 1143 623 1147 q 640 1128 640 1139 m 196 878 z "},"Ő":{"ha":920,"x_min":67,"x_max":852,"o":"m 852 449 q 827 257 852 342 q 752 112 802 172 q 627 19 702 52 q 451 -13 551 -13 q 280 17 352 -13 q 160 102 208 46 q 90 242 113 159 q 67 434 67 326 q 92 623 67 538 q 168 767 117 707 q 293 858 218 826 q 469 890 368 890 q 637 861 566 890 q 757 776 709 832 q 828 638 805 720 q 852 449 852 555 m 729 441 q 716 579 729 515 q 672 691 703 644 q 589 764 641 738 q 462 791 538 791 q 334 762 386 791 q 251 686 283 734 q 204 575 218 639 q 191 442 191 512 q 203 300 191 365 q 247 188 216 235 q 329 114 277 140 q 457 88 380 88 q 586 117 534 88 q 670 194 638 145 q 715 306 702 242 q 729 441 729 370 m 378 960 q 369 952 374 956 q 356 948 363 949 q 340 946 349 947 q 317 946 330 946 q 288 952 296 946 q 286 969 279 959 l 401 1128 q 410 1137 405 1133 q 424 1143 416 1141 q 444 1146 432 1145 q 473 1147 456 1147 q 514 1145 498 1147 q 535 1139 529 1143 q 539 1129 541 1135 q 530 1116 537 1123 l 378 960 m 636 961 q 627 952 631 956 q 615 948 622 949 q 600 946 609 947 q 577 946 591 946 q 555 947 564 946 q 542 951 547 949 q 536 959 536 954 q 538 968 535 963 l 660 1128 q 669 1137 663 1133 q 684 1143 675 1141 q 705 1146 692 1145 q 736 1147 718 1147 q 772 1145 759 1147 q 792 1139 786 1143 q 798 1130 798 1135 q 791 1119 798 1125 l 636 961 m 193 878 z "},"Ø":{"ha":922,"x_min":67,"x_max":854,"o":"m 854 449 q 829 257 854 342 q 753 112 804 172 q 627 19 702 52 q 452 -13 551 -13 q 374 -7 410 -13 q 307 11 338 -1 l 232 -140 q 225 -147 230 -144 q 213 -152 220 -151 q 194 -155 205 -154 q 170 -156 184 -156 q 142 -154 153 -156 q 127 -146 132 -151 q 123 -135 123 -142 q 127 -121 123 -129 l 214 54 q 150 118 177 81 q 104 203 122 155 q 76 308 85 250 q 67 434 67 366 q 92 623 67 538 q 168 767 117 707 q 293 858 218 826 q 469 890 369 890 q 546 884 511 890 q 615 865 581 878 l 688 1015 q 696 1023 691 1020 q 708 1029 701 1027 q 727 1031 716 1031 q 752 1032 738 1032 q 779 1029 769 1032 q 793 1022 789 1027 q 798 1011 798 1018 q 793 997 798 1005 l 707 822 q 771 758 744 795 q 817 673 798 720 q 845 571 836 627 q 854 449 854 515 m 733 442 q 714 596 733 527 q 653 714 696 665 l 352 108 q 400 92 374 98 q 459 87 427 87 q 589 115 536 87 q 674 192 642 144 q 720 305 706 241 q 733 442 733 370 m 571 770 q 522 787 549 781 q 462 792 495 792 q 333 764 385 792 q 249 688 281 736 q 202 576 216 640 q 189 441 189 513 q 207 282 189 354 q 269 162 226 210 l 571 770 z "},"Ǿ":{"ha":922,"x_min":67,"x_max":854,"o":"m 854 449 q 829 257 854 342 q 753 112 804 172 q 627 19 702 52 q 452 -13 551 -13 q 374 -7 410 -13 q 307 11 338 -1 l 232 -140 q 225 -147 230 -144 q 213 -152 220 -151 q 194 -155 205 -154 q 170 -156 184 -156 q 142 -154 153 -156 q 127 -146 132 -151 q 123 -135 123 -142 q 127 -121 123 -129 l 214 54 q 150 118 177 81 q 104 203 122 155 q 76 308 85 250 q 67 434 67 366 q 92 623 67 538 q 168 767 117 707 q 293 858 218 826 q 469 890 369 890 q 546 884 511 890 q 615 865 581 878 l 688 1015 q 696 1023 691 1020 q 708 1029 701 1027 q 727 1031 716 1031 q 752 1032 738 1032 q 779 1029 769 1032 q 793 1022 789 1027 q 798 1011 798 1018 q 793 997 798 1005 l 707 822 q 771 758 744 795 q 817 673 798 720 q 845 571 836 627 q 854 449 854 515 m 733 442 q 714 596 733 527 q 653 714 696 665 l 352 108 q 400 92 374 98 q 459 87 427 87 q 589 115 536 87 q 674 192 642 144 q 720 305 706 241 q 733 442 733 370 m 571 770 q 522 787 549 781 q 462 792 495 792 q 333 764 385 792 q 249 688 281 736 q 202 576 216 640 q 189 441 189 513 q 207 282 189 354 q 269 162 226 210 l 571 770 m 465 1120 q 479 1133 472 1128 q 495 1141 486 1138 q 516 1144 504 1143 q 545 1145 528 1145 q 577 1142 566 1145 q 593 1135 589 1139 q 596 1124 598 1130 q 589 1111 595 1118 l 435 967 q 422 957 428 960 q 409 950 416 953 q 392 947 401 948 q 368 946 382 946 q 343 948 352 946 q 331 953 334 949 q 329 962 328 957 q 336 975 330 968 l 465 1120 m 239 878 z "},"Œ":{"ha":1204,"x_min":67,"x_max":1130,"o":"m 1130 48 q 1128 27 1130 36 q 1124 12 1127 18 q 1116 3 1120 5 q 1107 0 1112 0 l 689 0 q 665 7 677 0 q 650 33 652 14 q 560 -1 610 10 q 451 -13 510 -13 q 280 16 352 -13 q 160 102 208 45 q 90 242 113 158 q 67 434 67 326 q 92 623 67 538 q 168 767 117 707 q 293 858 218 826 q 469 890 368 890 q 567 879 519 890 q 650 849 614 867 q 665 871 654 865 q 688 878 676 878 l 1101 878 q 1111 875 1107 878 q 1118 866 1116 872 q 1123 851 1121 860 q 1124 828 1124 842 q 1123 807 1124 816 q 1118 792 1121 798 q 1111 783 1116 786 q 1101 781 1107 781 l 758 781 l 758 505 l 1053 505 q 1062 502 1058 505 q 1070 493 1067 499 q 1074 478 1073 487 q 1076 456 1076 469 q 1074 434 1076 443 q 1070 419 1073 425 q 1062 410 1067 413 q 1053 408 1058 408 l 758 408 l 758 97 l 1107 97 q 1116 94 1112 97 q 1124 86 1120 92 q 1128 71 1127 80 q 1130 48 1130 62 m 642 736 q 560 776 604 761 q 462 791 516 791 q 334 763 386 791 q 251 687 283 734 q 204 576 218 639 q 191 442 191 513 q 203 300 191 365 q 247 188 216 235 q 329 114 277 140 q 457 88 380 88 q 561 104 515 88 q 642 146 607 119 l 642 736 z "},"P":{"ha":718,"x_min":117,"x_max":656,"o":"m 656 621 q 634 502 656 555 q 572 412 612 449 q 473 354 532 374 q 333 334 414 334 l 233 334 l 233 18 q 230 8 233 12 q 221 2 227 4 q 203 -2 214 -1 q 175 -4 192 -4 q 147 -2 158 -4 q 129 2 136 -1 q 119 8 122 4 q 117 18 117 12 l 117 827 q 131 866 117 854 q 163 878 145 878 l 351 878 q 405 875 379 878 q 467 865 431 873 q 539 836 503 857 q 602 783 576 814 q 642 711 628 752 q 656 621 656 670 m 533 611 q 513 701 533 665 q 464 754 493 736 q 402 777 434 772 q 341 781 371 781 l 233 781 l 233 429 l 338 429 q 426 443 391 429 q 485 480 461 456 q 521 538 509 505 q 533 611 533 572 z "},"Þ":{"ha":718,"x_min":117,"x_max":656,"o":"m 656 473 q 634 354 656 408 q 573 264 613 301 q 476 206 534 227 q 348 186 419 186 l 233 186 l 233 15 q 230 6 233 9 q 221 -1 227 2 q 203 -5 214 -3 q 175 -6 192 -6 q 147 -5 158 -6 q 129 -1 136 -3 q 119 6 122 2 q 117 15 117 9 l 117 862 q 119 871 117 867 q 129 878 122 875 q 147 882 136 880 q 175 883 158 883 q 203 882 192 883 q 221 878 214 880 q 230 871 227 875 q 233 862 233 867 l 233 730 l 351 730 q 406 727 379 730 q 458 720 433 725 q 541 688 504 709 q 603 635 577 667 q 642 563 629 604 q 656 473 656 522 m 533 463 q 503 569 533 527 q 417 625 473 611 q 379 632 399 631 q 343 633 359 633 l 233 633 l 233 281 l 357 281 q 432 295 399 281 q 487 333 465 309 q 522 390 510 357 q 533 463 533 424 z "},"Q":{"ha":935,"x_min":67,"x_max":960,"o":"m 960 -77 q 958 -103 960 -93 q 953 -120 956 -114 q 945 -127 949 -125 q 937 -130 941 -130 q 893 -118 924 -130 q 824 -86 863 -107 q 740 -34 785 -64 q 653 37 695 -3 q 569 2 620 17 q 451 -13 518 -13 q 280 16 352 -13 q 160 102 208 45 q 90 242 113 158 q 67 434 67 326 q 92 623 67 538 q 168 767 117 707 q 293 858 218 826 q 469 890 368 890 q 634 861 563 890 q 754 776 706 832 q 827 638 803 720 q 852 450 852 556 q 845 345 852 395 q 825 250 839 294 q 790 167 811 205 q 741 98 769 129 q 827 35 790 58 q 889 1 865 12 q 927 -16 913 -11 q 947 -27 941 -21 q 957 -46 954 -34 q 960 -77 960 -58 m 729 441 q 716 580 729 516 q 672 691 703 644 q 589 764 641 738 q 462 791 538 791 q 334 763 386 791 q 251 687 283 734 q 204 576 218 639 q 191 442 191 513 q 203 300 191 365 q 247 188 216 235 q 329 114 277 140 q 457 88 380 88 q 586 117 534 88 q 670 194 638 145 q 715 306 702 242 q 729 441 729 370 z "},"R":{"ha":754,"x_min":117,"x_max":702,"o":"m 702 18 q 700 8 702 12 q 691 1 698 4 q 672 -3 684 -1 q 640 -4 660 -4 q 611 -3 622 -4 q 593 2 600 -1 q 582 10 586 5 q 576 24 578 16 l 495 231 q 466 295 481 266 q 429 346 450 325 q 380 379 408 368 q 311 391 351 391 l 233 391 l 233 18 q 230 8 233 12 q 221 2 227 4 q 203 -2 214 -1 q 175 -4 192 -4 q 147 -2 158 -4 q 129 2 136 -1 q 119 8 122 4 q 117 18 117 12 l 117 830 q 131 867 117 857 q 160 878 144 878 l 347 878 q 402 876 380 878 q 441 872 424 874 q 531 844 492 863 q 597 796 570 825 q 636 729 623 767 q 650 646 650 692 q 638 567 650 602 q 604 506 626 532 q 550 459 581 479 q 480 426 519 439 q 519 402 502 416 q 552 367 537 387 q 581 320 568 347 q 608 260 595 294 l 687 67 q 699 33 696 43 q 702 18 702 23 m 526 634 q 503 721 526 686 q 426 772 480 757 q 388 779 409 777 q 332 781 366 781 l 233 781 l 233 486 l 347 486 q 427 497 393 486 q 483 528 460 508 q 516 575 505 548 q 526 634 526 602 z "},"Ŕ":{"ha":754,"x_min":117,"x_max":702,"o":"m 702 18 q 700 8 702 12 q 691 1 698 4 q 672 -3 684 -1 q 640 -4 660 -4 q 611 -3 622 -4 q 593 2 600 -1 q 582 10 586 5 q 576 24 578 16 l 495 231 q 466 295 481 266 q 429 346 450 325 q 380 379 408 368 q 311 391 351 391 l 233 391 l 233 18 q 230 8 233 12 q 221 2 227 4 q 203 -2 214 -1 q 175 -4 192 -4 q 147 -2 158 -4 q 129 2 136 -1 q 119 8 122 4 q 117 18 117 12 l 117 830 q 131 867 117 857 q 160 878 144 878 l 347 878 q 402 876 380 878 q 441 872 424 874 q 531 844 492 863 q 597 796 570 825 q 636 729 623 767 q 650 646 650 692 q 638 567 650 602 q 604 506 626 532 q 550 459 581 479 q 480 426 519 439 q 519 402 502 416 q 552 367 537 387 q 581 320 568 347 q 608 260 595 294 l 687 67 q 699 33 696 43 q 702 18 702 23 m 526 634 q 503 721 526 686 q 426 772 480 757 q 388 779 409 777 q 332 781 366 781 l 233 781 l 233 486 l 347 486 q 427 497 393 486 q 483 528 460 508 q 516 575 505 548 q 526 634 526 602 m 421 1120 q 436 1133 429 1128 q 452 1141 443 1138 q 473 1144 460 1143 q 502 1145 485 1145 q 534 1142 522 1145 q 550 1135 545 1139 q 553 1124 555 1130 q 545 1111 551 1118 l 391 967 q 379 957 385 960 q 366 950 373 953 q 348 947 358 948 q 324 946 338 946 q 300 948 309 946 q 288 953 291 949 q 286 962 284 957 q 293 975 287 968 l 421 1120 m 195 878 z "},"Ř":{"ha":754,"x_min":56,"x_max":702,"o":"m 702 18 q 700 8 702 12 q 691 1 698 4 q 672 -3 684 -1 q 640 -4 660 -4 q 611 -3 622 -4 q 593 2 600 -1 q 582 10 586 5 q 576 24 578 16 l 495 231 q 466 295 481 266 q 429 346 450 325 q 380 379 408 368 q 311 391 351 391 l 233 391 l 233 18 q 230 8 233 12 q 221 2 227 4 q 203 -2 214 -1 q 175 -4 192 -4 q 147 -2 158 -4 q 129 2 136 -1 q 119 8 122 4 q 117 18 117 12 l 117 830 q 131 867 117 857 q 160 878 144 878 l 347 878 q 402 876 380 878 q 441 872 424 874 q 531 844 492 863 q 597 796 570 825 q 636 729 623 767 q 650 646 650 692 q 638 567 650 602 q 604 506 626 532 q 550 459 581 479 q 480 426 519 439 q 519 402 502 416 q 552 367 537 387 q 581 320 568 347 q 608 260 595 294 l 687 67 q 699 33 696 43 q 702 18 702 23 m 526 634 q 503 721 526 686 q 426 772 480 757 q 388 779 409 777 q 332 781 366 781 l 233 781 l 233 486 l 347 486 q 427 497 393 486 q 483 528 460 508 q 516 575 505 548 q 526 634 526 602 m 362 946 q 338 947 348 946 q 322 949 329 947 q 310 956 315 951 q 298 966 304 960 l 153 1120 q 146 1132 147 1126 q 149 1140 144 1137 q 162 1144 153 1143 q 186 1145 172 1145 q 219 1144 207 1145 q 239 1142 231 1143 q 250 1137 246 1140 q 258 1130 254 1133 l 363 1013 l 471 1127 q 482 1136 476 1133 q 495 1142 488 1140 q 515 1145 503 1144 q 546 1145 528 1145 q 572 1144 562 1145 q 585 1139 582 1142 q 587 1131 589 1136 q 580 1120 585 1126 l 429 966 q 417 956 423 960 q 404 950 411 952 q 386 947 396 947 q 362 946 376 946 m 56 878 z "},"Ŗ":{"ha":754,"x_min":117,"x_max":702,"o":"m 702 18 q 700 8 702 12 q 691 1 698 4 q 672 -3 684 -1 q 640 -4 660 -4 q 611 -3 622 -4 q 593 2 600 -1 q 582 10 586 5 q 576 24 578 16 l 495 231 q 466 295 481 266 q 429 346 450 325 q 380 379 408 368 q 311 391 351 391 l 233 391 l 233 18 q 230 8 233 12 q 221 2 227 4 q 203 -2 214 -1 q 175 -4 192 -4 q 147 -2 158 -4 q 129 2 136 -1 q 119 8 122 4 q 117 18 117 12 l 117 830 q 131 867 117 857 q 160 878 144 878 l 347 878 q 402 876 380 878 q 441 872 424 874 q 531 844 492 863 q 597 796 570 825 q 636 729 623 767 q 650 646 650 692 q 638 567 650 602 q 604 506 626 532 q 550 459 581 479 q 480 426 519 439 q 519 402 502 416 q 552 367 537 387 q 581 320 568 347 q 608 260 595 294 l 687 67 q 699 33 696 43 q 702 18 702 23 m 526 634 q 503 721 526 686 q 426 772 480 757 q 388 779 409 777 q 332 781 366 781 l 233 781 l 233 486 l 347 486 q 427 497 393 486 q 483 528 460 508 q 516 575 505 548 q 526 634 526 602 m 333 -82 q 339 -70 335 -75 q 351 -62 343 -64 q 370 -58 358 -59 q 400 -56 382 -56 q 428 -59 418 -56 q 443 -65 438 -61 q 447 -76 447 -70 q 443 -89 446 -81 l 377 -227 q 370 -237 374 -233 q 360 -243 366 -241 q 344 -247 353 -245 q 321 -248 334 -248 q 299 -246 307 -248 q 288 -241 292 -244 q 286 -232 285 -237 q 288 -219 286 -227 l 333 -82 z "},"S":{"ha":638,"x_min":48,"x_max":588,"o":"m 588 246 q 565 136 588 184 q 502 55 543 88 q 407 4 462 21 q 290 -13 353 -13 q 208 -5 245 -13 q 141 13 170 2 q 91 35 111 24 q 63 55 71 47 q 52 76 56 63 q 48 109 48 88 q 50 134 48 124 q 54 150 51 144 q 60 158 56 156 q 70 161 64 161 q 97 149 79 161 q 141 124 114 138 q 207 99 168 111 q 295 87 245 87 q 365 97 333 87 q 419 126 396 107 q 454 172 441 144 q 466 233 466 199 q 449 297 466 271 q 404 343 432 323 q 341 380 376 363 q 268 414 305 397 q 195 452 231 431 q 132 502 160 473 q 87 569 104 530 q 70 661 70 607 q 90 759 70 715 q 145 831 110 802 q 230 875 181 860 q 336 890 279 890 q 395 885 366 890 q 451 872 425 880 q 497 853 477 863 q 524 836 517 842 q 532 826 530 829 q 536 816 534 822 q 538 802 537 810 q 538 781 538 794 q 537 760 538 769 q 534 744 536 750 q 529 734 532 737 q 520 731 525 731 q 497 741 513 731 q 458 762 481 750 q 403 784 435 774 q 332 793 372 793 q 269 784 296 793 q 224 758 241 774 q 197 719 206 741 q 189 671 189 696 q 205 608 189 635 q 251 562 222 582 q 315 524 279 541 q 388 490 351 507 q 461 452 425 473 q 525 403 497 431 q 571 337 553 375 q 588 246 588 298 z "},"Ś":{"ha":638,"x_min":48,"x_max":588,"o":"m 588 246 q 565 136 588 184 q 502 55 543 88 q 407 4 462 21 q 290 -13 353 -13 q 208 -5 245 -13 q 141 13 170 2 q 91 35 111 24 q 63 55 71 47 q 52 76 56 63 q 48 109 48 88 q 50 134 48 124 q 54 150 51 144 q 60 158 56 156 q 70 161 64 161 q 97 149 79 161 q 141 124 114 138 q 207 99 168 111 q 295 87 245 87 q 365 97 333 87 q 419 126 396 107 q 454 172 441 144 q 466 233 466 199 q 449 297 466 271 q 404 343 432 323 q 341 380 376 363 q 268 414 305 397 q 195 452 231 431 q 132 502 160 473 q 87 569 104 530 q 70 661 70 607 q 90 759 70 715 q 145 831 110 802 q 230 875 181 860 q 336 890 279 890 q 395 885 366 890 q 451 872 425 880 q 497 853 477 863 q 524 836 517 842 q 532 826 530 829 q 536 816 534 822 q 538 802 537 810 q 538 781 538 794 q 537 760 538 769 q 534 744 536 750 q 529 734 532 737 q 520 731 525 731 q 497 741 513 731 q 458 762 481 750 q 403 784 435 774 q 332 793 372 793 q 269 784 296 793 q 224 758 241 774 q 197 719 206 741 q 189 671 189 696 q 205 608 189 635 q 251 562 222 582 q 315 524 279 541 q 388 490 351 507 q 461 452 425 473 q 525 403 497 431 q 571 337 553 375 q 588 246 588 298 m 405 1120 q 419 1133 412 1128 q 435 1141 427 1138 q 456 1144 444 1143 q 486 1145 469 1145 q 517 1142 506 1145 q 534 1135 529 1139 q 537 1124 538 1130 q 529 1111 535 1118 l 375 967 q 362 957 368 960 q 349 950 357 953 q 332 947 342 948 q 308 946 322 946 q 283 948 292 946 q 271 953 275 949 q 269 962 268 957 q 277 975 271 968 l 405 1120 m 179 878 z "},"Ŝ":{"ha":638,"x_min":14,"x_max":588,"o":"m 588 246 q 565 136 588 184 q 502 55 543 88 q 407 4 462 21 q 290 -13 353 -13 q 208 -5 245 -13 q 141 13 170 2 q 91 35 111 24 q 63 55 71 47 q 52 76 56 63 q 48 109 48 88 q 50 134 48 124 q 54 150 51 144 q 60 158 56 156 q 70 161 64 161 q 97 149 79 161 q 141 124 114 138 q 207 99 168 111 q 295 87 245 87 q 365 97 333 87 q 419 126 396 107 q 454 172 441 144 q 466 233 466 199 q 449 297 466 271 q 404 343 432 323 q 341 380 376 363 q 268 414 305 397 q 195 452 231 431 q 132 502 160 473 q 87 569 104 530 q 70 661 70 607 q 90 759 70 715 q 145 831 110 802 q 230 875 181 860 q 336 890 279 890 q 395 885 366 890 q 451 872 425 880 q 497 853 477 863 q 524 836 517 842 q 532 826 530 829 q 536 816 534 822 q 538 802 537 810 q 538 781 538 794 q 537 760 538 769 q 534 744 536 750 q 529 734 532 737 q 520 731 525 731 q 497 741 513 731 q 458 762 481 750 q 403 784 435 774 q 332 793 372 793 q 269 784 296 793 q 224 758 241 774 q 197 719 206 741 q 189 671 189 696 q 205 608 189 635 q 251 562 222 582 q 315 524 279 541 q 388 490 351 507 q 461 452 425 473 q 525 403 497 431 q 571 337 553 375 q 588 246 588 298 m 330 1145 q 353 1145 344 1145 q 370 1142 363 1144 q 382 1136 377 1139 q 393 1126 387 1132 l 538 972 q 546 960 545 965 q 543 952 547 955 q 530 947 539 949 q 505 946 520 946 q 473 947 485 946 q 453 950 460 948 q 441 955 446 951 q 433 961 437 958 l 329 1078 l 221 964 q 210 955 216 959 q 197 949 205 951 q 176 947 189 947 q 146 946 164 946 q 120 948 129 946 q 107 952 111 949 q 104 960 103 956 q 112 972 106 965 l 264 1126 q 275 1136 269 1132 q 288 1142 281 1139 q 306 1145 296 1144 q 330 1145 315 1145 m 14 878 z "},"Š":{"ha":638,"x_min":16,"x_max":588,"o":"m 588 246 q 565 136 588 184 q 502 55 543 88 q 407 4 462 21 q 290 -13 353 -13 q 208 -5 245 -13 q 141 13 170 2 q 91 35 111 24 q 63 55 71 47 q 52 76 56 63 q 48 109 48 88 q 50 134 48 124 q 54 150 51 144 q 60 158 56 156 q 70 161 64 161 q 97 149 79 161 q 141 124 114 138 q 207 99 168 111 q 295 87 245 87 q 365 97 333 87 q 419 126 396 107 q 454 172 441 144 q 466 233 466 199 q 449 297 466 271 q 404 343 432 323 q 341 380 376 363 q 268 414 305 397 q 195 452 231 431 q 132 502 160 473 q 87 569 104 530 q 70 661 70 607 q 90 759 70 715 q 145 831 110 802 q 230 875 181 860 q 336 890 279 890 q 395 885 366 890 q 451 872 425 880 q 497 853 477 863 q 524 836 517 842 q 532 826 530 829 q 536 816 534 822 q 538 802 537 810 q 538 781 538 794 q 537 760 538 769 q 534 744 536 750 q 529 734 532 737 q 520 731 525 731 q 497 741 513 731 q 458 762 481 750 q 403 784 435 774 q 332 793 372 793 q 269 784 296 793 q 224 758 241 774 q 197 719 206 741 q 189 671 189 696 q 205 608 189 635 q 251 562 222 582 q 315 524 279 541 q 388 490 351 507 q 461 452 425 473 q 525 403 497 431 q 571 337 553 375 q 588 246 588 298 m 322 946 q 298 947 308 946 q 282 949 289 947 q 270 956 275 951 q 258 966 264 960 l 113 1120 q 106 1132 107 1126 q 109 1140 104 1137 q 122 1144 113 1143 q 146 1145 132 1145 q 179 1144 167 1145 q 199 1142 191 1143 q 210 1137 206 1140 q 218 1130 214 1133 l 323 1013 l 431 1127 q 442 1136 436 1133 q 455 1142 448 1140 q 475 1145 463 1144 q 506 1145 488 1145 q 532 1144 522 1145 q 545 1139 542 1142 q 547 1131 549 1136 q 540 1120 545 1126 l 389 966 q 377 956 383 960 q 363 950 371 952 q 346 947 356 947 q 322 946 336 946 m 16 878 z "},"Ş":{"ha":638,"x_min":48,"x_max":588,"o":"m 351 -8 l 370 -50 q 390 -101 384 -81 q 397 -138 397 -121 q 387 -184 397 -164 q 360 -219 378 -205 q 318 -240 342 -233 q 264 -248 294 -248 q 219 -244 240 -248 q 182 -238 197 -241 q 161 -232 167 -235 q 154 -225 156 -229 q 150 -215 151 -221 q 149 -199 149 -209 q 153 -171 149 -178 q 168 -163 157 -163 l 252 -163 q 286 -154 274 -163 q 298 -127 298 -145 q 294 -105 298 -118 q 283 -77 290 -92 l 254 -12 q 196 -3 223 -9 q 139 14 168 3 q 91 36 111 24 q 63 55 71 47 q 52 76 56 63 q 48 109 48 88 q 50 134 48 124 q 54 150 51 144 q 60 158 56 156 q 70 161 64 161 q 97 149 79 161 q 141 124 114 138 q 207 99 168 111 q 295 87 245 87 q 365 97 333 87 q 419 126 396 107 q 454 172 441 144 q 466 233 466 199 q 449 297 466 271 q 404 343 432 323 q 341 380 376 363 q 268 414 305 397 q 195 452 231 431 q 132 502 160 473 q 87 569 104 530 q 70 661 70 607 q 90 759 70 715 q 145 831 110 802 q 230 875 181 860 q 336 890 279 890 q 395 885 366 890 q 451 872 425 880 q 497 853 477 863 q 524 836 517 842 q 532 826 530 829 q 536 816 534 822 q 538 802 537 810 q 538 781 538 794 q 537 760 538 769 q 534 744 536 750 q 529 734 532 737 q 520 731 525 731 q 497 741 513 731 q 458 762 481 750 q 403 784 435 774 q 332 793 372 793 q 269 784 296 793 q 224 758 241 774 q 197 719 206 741 q 189 671 189 696 q 205 608 189 635 q 251 562 222 582 q 315 524 279 541 q 388 490 351 507 q 461 452 425 473 q 525 403 497 431 q 571 337 553 375 q 588 246 588 298 q 563 132 588 185 q 486 42 538 79 q 351 -8 433 4 z "},"Ș":{"ha":638,"x_min":48,"x_max":588,"o":"m 588 246 q 565 136 588 184 q 502 55 543 88 q 407 4 462 21 q 290 -13 353 -13 q 208 -5 245 -13 q 141 13 170 2 q 91 35 111 24 q 63 55 71 47 q 52 76 56 63 q 48 109 48 88 q 50 134 48 124 q 54 150 51 144 q 60 158 56 156 q 70 161 64 161 q 97 149 79 161 q 141 124 114 138 q 207 99 168 111 q 295 87 245 87 q 365 97 333 87 q 419 126 396 107 q 454 172 441 144 q 466 233 466 199 q 449 297 466 271 q 404 343 432 323 q 341 380 376 363 q 268 414 305 397 q 195 452 231 431 q 132 502 160 473 q 87 569 104 530 q 70 661 70 607 q 90 759 70 715 q 145 831 110 802 q 230 875 181 860 q 336 890 279 890 q 395 885 366 890 q 451 872 425 880 q 497 853 477 863 q 524 836 517 842 q 532 826 530 829 q 536 816 534 822 q 538 802 537 810 q 538 781 538 794 q 537 760 538 769 q 534 744 536 750 q 529 734 532 737 q 520 731 525 731 q 497 741 513 731 q 458 762 481 750 q 403 784 435 774 q 332 793 372 793 q 269 784 296 793 q 224 758 241 774 q 197 719 206 741 q 189 671 189 696 q 205 608 189 635 q 251 562 222 582 q 315 524 279 541 q 388 490 351 507 q 461 452 425 473 q 525 403 497 431 q 571 337 553 375 q 588 246 588 298 m 253 -82 q 259 -70 255 -75 q 271 -62 263 -64 q 290 -58 278 -59 q 320 -56 302 -56 q 348 -59 338 -56 q 362 -65 358 -61 q 367 -76 367 -70 q 363 -89 366 -81 l 297 -227 q 290 -237 294 -233 q 280 -243 286 -241 q 264 -247 273 -245 q 241 -248 254 -248 q 219 -246 227 -248 q 208 -241 212 -244 q 205 -232 205 -237 q 208 -219 206 -227 l 253 -82 z "},"T":{"ha":677,"x_min":10,"x_max":667,"o":"m 667 827 q 665 805 667 814 q 661 790 664 795 q 653 781 658 784 q 644 779 649 779 l 397 779 l 397 18 q 394 8 397 12 q 385 2 391 4 q 367 -2 378 -1 q 338 -4 355 -4 q 311 -2 322 -4 q 292 2 299 -1 q 283 8 286 4 q 280 18 280 12 l 280 779 l 33 779 q 23 781 28 779 q 16 790 19 784 q 12 805 14 795 q 10 827 10 814 q 12 850 10 840 q 16 866 14 860 q 23 875 19 872 q 33 878 28 878 l 644 878 q 653 875 649 878 q 661 866 658 872 q 665 850 664 860 q 667 827 667 840 z "},"Ť":{"ha":677,"x_min":10,"x_max":667,"o":"m 667 827 q 665 805 667 814 q 661 790 664 795 q 653 781 658 784 q 644 779 649 779 l 397 779 l 397 18 q 394 8 397 12 q 385 2 391 4 q 367 -2 378 -1 q 338 -4 355 -4 q 311 -2 322 -4 q 292 2 299 -1 q 283 8 286 4 q 280 18 280 12 l 280 779 l 33 779 q 23 781 28 779 q 16 790 19 784 q 12 805 14 795 q 10 827 10 814 q 12 850 10 840 q 16 866 14 860 q 23 875 19 872 q 33 878 28 878 l 644 878 q 653 875 649 878 q 661 866 658 872 q 665 850 664 860 q 667 827 667 840 m 334 946 q 310 947 319 946 q 293 949 300 947 q 281 956 286 951 q 270 966 276 960 l 125 1120 q 117 1132 119 1126 q 120 1140 116 1137 q 134 1144 124 1143 q 158 1145 143 1145 q 191 1144 178 1145 q 210 1142 203 1143 q 222 1137 218 1140 q 230 1130 226 1133 l 334 1013 l 443 1127 q 453 1136 448 1133 q 467 1142 459 1140 q 487 1145 475 1144 q 517 1145 499 1145 q 544 1144 534 1145 q 557 1139 553 1142 q 558 1131 560 1136 q 551 1120 557 1126 l 400 966 q 389 956 395 960 q 375 950 382 952 q 358 947 368 947 q 334 946 348 946 m 28 878 z "},"Ţ":{"ha":677,"x_min":10,"x_max":667,"o":"m 667 827 q 665 805 667 814 q 661 790 664 795 q 653 781 658 784 q 644 779 649 779 l 397 779 l 397 18 q 394 8 397 12 q 385 2 391 4 q 367 -2 378 -1 q 338 -4 355 -4 q 311 -2 322 -4 q 292 2 299 -1 q 283 8 286 4 q 280 18 280 12 l 280 779 l 33 779 q 23 781 28 779 q 16 790 19 784 q 12 805 14 795 q 10 827 10 814 q 12 850 10 840 q 16 866 14 860 q 23 875 19 872 q 33 878 28 878 l 644 878 q 653 875 649 878 q 661 866 658 872 q 665 850 664 860 q 667 827 667 840 m 280 -82 q 286 -70 282 -75 q 298 -62 290 -64 q 317 -58 305 -59 q 347 -56 329 -56 q 375 -59 365 -56 q 390 -65 385 -61 q 394 -76 394 -70 q 390 -89 393 -81 l 324 -227 q 317 -237 321 -233 q 307 -243 313 -241 q 291 -247 300 -245 q 268 -248 281 -248 q 246 -246 254 -248 q 235 -241 239 -244 q 233 -232 232 -237 q 235 -219 233 -227 l 280 -82 z "},"Ŧ":{"ha":677,"x_min":10,"x_max":667,"o":"m 397 498 l 577 498 q 587 495 583 498 q 594 487 591 492 q 599 472 597 481 q 600 450 600 463 q 599 428 600 437 q 594 413 597 419 q 587 404 591 407 q 577 401 583 401 l 397 401 l 397 17 q 394 8 397 12 q 385 1 391 4 q 367 -3 378 -1 q 338 -4 355 -4 q 311 -3 322 -4 q 292 1 299 -1 q 283 8 286 4 q 280 17 280 12 l 280 401 l 100 401 q 90 404 94 401 q 83 413 85 407 q 78 428 80 418 q 77 450 77 437 q 78 472 77 463 q 83 487 80 481 q 90 495 85 492 q 100 498 94 498 l 280 498 l 280 779 l 33 779 q 23 781 28 779 q 16 790 19 784 q 12 805 14 795 q 10 827 10 814 q 12 850 10 840 q 16 866 14 860 q 23 875 19 872 q 33 878 28 878 l 644 878 q 653 875 649 878 q 661 866 658 872 q 665 850 664 860 q 667 827 667 840 q 665 805 667 814 q 661 790 664 795 q 653 781 658 784 q 644 779 649 779 l 397 779 l 397 498 z "},"U":{"ha":891,"x_min":115,"x_max":777,"o":"m 777 324 q 753 181 777 244 q 686 75 730 119 q 581 9 643 32 q 439 -13 518 -13 q 307 8 366 -13 q 204 70 247 29 q 138 173 161 111 q 115 315 115 235 l 115 860 q 118 869 115 865 q 127 876 121 873 q 145 880 134 878 q 174 882 156 882 q 201 880 190 882 q 219 876 213 878 q 229 869 226 873 q 231 860 231 865 l 231 330 q 246 223 231 269 q 289 148 261 178 q 357 102 317 117 q 446 87 397 87 q 537 102 497 87 q 604 146 576 117 q 646 220 631 176 q 661 323 661 264 l 661 860 q 663 869 661 865 q 673 876 666 873 q 691 880 680 878 q 719 882 702 882 q 746 880 735 882 q 764 876 758 878 q 773 869 770 873 q 777 860 777 865 l 777 324 z "},"Ù":{"ha":891,"x_min":115,"x_max":777,"o":"m 777 324 q 753 181 777 244 q 686 75 730 119 q 581 9 643 32 q 439 -13 518 -13 q 307 8 366 -13 q 204 70 247 29 q 138 173 161 111 q 115 315 115 235 l 115 860 q 118 869 115 865 q 127 876 121 873 q 145 880 134 878 q 174 882 156 882 q 201 880 190 882 q 219 876 213 878 q 229 869 226 873 q 231 860 231 865 l 231 330 q 246 223 231 269 q 289 148 261 178 q 357 102 317 117 q 446 87 397 87 q 537 102 497 87 q 604 146 576 117 q 646 220 631 176 q 661 323 661 264 l 661 860 q 663 869 661 865 q 673 876 666 873 q 691 880 680 878 q 719 882 702 882 q 746 880 735 882 q 764 876 758 878 q 773 869 770 873 q 777 860 777 865 l 777 324 m 487 975 q 495 962 493 968 q 493 953 496 957 q 480 948 490 949 q 456 946 471 946 q 432 947 441 946 q 415 950 422 948 q 402 957 408 953 q 389 967 396 960 l 236 1111 q 227 1124 229 1118 q 230 1135 225 1130 q 247 1142 235 1139 q 279 1145 258 1145 q 308 1144 296 1145 q 328 1141 319 1143 q 345 1133 337 1138 q 359 1120 352 1128 l 487 975 m 137 878 z "},"Ú":{"ha":891,"x_min":115,"x_max":777,"o":"m 777 324 q 753 181 777 244 q 686 75 730 119 q 581 9 643 32 q 439 -13 518 -13 q 307 8 366 -13 q 204 70 247 29 q 138 173 161 111 q 115 315 115 235 l 115 860 q 118 869 115 865 q 127 876 121 873 q 145 880 134 878 q 174 882 156 882 q 201 880 190 882 q 219 876 213 878 q 229 869 226 873 q 231 860 231 865 l 231 330 q 246 223 231 269 q 289 148 261 178 q 357 102 317 117 q 446 87 397 87 q 537 102 497 87 q 604 146 576 117 q 646 220 631 176 q 661 323 661 264 l 661 860 q 663 869 661 865 q 673 876 666 873 q 691 880 680 878 q 719 882 702 882 q 746 880 735 882 q 764 876 758 878 q 773 869 770 873 q 777 860 777 865 l 777 324 m 516 1120 q 531 1133 524 1128 q 547 1141 538 1138 q 568 1144 555 1143 q 597 1145 580 1145 q 629 1142 617 1145 q 645 1135 640 1139 q 648 1124 650 1130 q 640 1111 646 1118 l 486 967 q 474 957 479 960 q 460 950 468 953 q 443 947 453 948 q 419 946 433 946 q 395 948 404 946 q 382 953 386 949 q 380 962 379 957 q 388 975 382 968 l 516 1120 m 290 878 z "},"Û":{"ha":891,"x_min":115,"x_max":777,"o":"m 777 324 q 753 181 777 244 q 686 75 730 119 q 581 9 643 32 q 439 -13 518 -13 q 307 8 366 -13 q 204 70 247 29 q 138 173 161 111 q 115 315 115 235 l 115 860 q 118 869 115 865 q 127 876 121 873 q 145 880 134 878 q 174 882 156 882 q 201 880 190 882 q 219 876 213 878 q 229 869 226 873 q 231 860 231 865 l 231 330 q 246 223 231 269 q 289 148 261 178 q 357 102 317 117 q 446 87 397 87 q 537 102 497 87 q 604 146 576 117 q 646 220 631 176 q 661 323 661 264 l 661 860 q 663 869 661 865 q 673 876 666 873 q 691 880 680 878 q 719 882 702 882 q 746 880 735 882 q 764 876 758 878 q 773 869 770 873 q 777 860 777 865 l 777 324 m 448 1145 q 472 1145 463 1145 q 489 1142 481 1144 q 501 1136 496 1139 q 512 1126 506 1132 l 657 972 q 665 960 663 965 q 662 952 666 955 q 648 947 658 949 q 624 946 639 946 q 591 947 604 946 q 572 950 579 948 q 560 955 564 951 q 552 961 555 958 l 448 1078 l 340 964 q 329 955 334 959 q 315 949 323 951 q 295 947 307 947 q 264 946 283 946 q 238 948 248 946 q 225 952 229 949 q 223 960 222 956 q 231 972 224 965 l 382 1126 q 394 1136 388 1132 q 407 1142 399 1139 q 424 1145 414 1144 q 448 1145 434 1145 m 133 878 z "},"Ũ":{"ha":891,"x_min":115,"x_max":777,"o":"m 777 324 q 753 181 777 244 q 686 75 730 119 q 581 9 643 32 q 439 -13 518 -13 q 307 8 366 -13 q 204 70 247 29 q 138 173 161 111 q 115 315 115 235 l 115 860 q 118 869 115 865 q 127 876 121 873 q 145 880 134 878 q 174 882 156 882 q 201 880 190 882 q 219 876 213 878 q 229 869 226 873 q 231 860 231 865 l 231 330 q 246 223 231 269 q 289 148 261 178 q 357 102 317 117 q 446 87 397 87 q 537 102 497 87 q 604 146 576 117 q 646 220 631 176 q 661 323 661 264 l 661 860 q 663 869 661 865 q 673 876 666 873 q 691 880 680 878 q 719 882 702 882 q 746 880 735 882 q 764 876 758 878 q 773 869 770 873 q 777 860 777 865 l 777 324 m 594 1095 q 604 1106 594 1103 q 636 1109 613 1109 q 668 1104 661 1109 q 675 1082 675 1099 q 641 983 675 1019 q 542 947 606 947 q 479 959 506 947 q 431 986 453 971 q 390 1012 409 1000 q 349 1024 370 1024 q 309 1007 320 1024 q 297 962 297 990 q 294 954 297 957 q 286 949 291 951 q 272 947 280 947 q 255 947 264 947 q 223 952 231 947 q 216 974 216 958 q 225 1032 216 1006 q 252 1074 235 1057 q 295 1100 270 1091 q 349 1109 319 1109 q 412 1097 385 1109 q 460 1071 438 1085 q 501 1044 481 1057 q 543 1032 520 1032 q 580 1046 566 1032 q 594 1095 594 1060 m 128 878 z "},"Ü":{"ha":891,"x_min":115,"x_max":777,"o":"m 777 324 q 753 181 777 244 q 686 75 730 119 q 581 9 643 32 q 439 -13 518 -13 q 307 8 366 -13 q 204 70 247 29 q 138 173 161 111 q 115 315 115 235 l 115 860 q 118 869 115 865 q 127 876 121 873 q 145 880 134 878 q 174 882 156 882 q 201 880 190 882 q 219 876 213 878 q 229 869 226 873 q 231 860 231 865 l 231 330 q 246 223 231 269 q 289 148 261 178 q 357 102 317 117 q 446 87 397 87 q 537 102 497 87 q 604 146 576 117 q 646 220 631 176 q 661 323 661 264 l 661 860 q 663 869 661 865 q 673 876 666 873 q 691 880 680 878 q 719 882 702 882 q 746 880 735 882 q 764 876 758 878 q 773 869 770 873 q 777 860 777 865 l 777 324 m 370 1037 q 356 985 370 999 q 304 970 342 970 q 252 984 266 970 q 239 1036 239 998 q 253 1087 239 1074 q 304 1101 267 1101 q 356 1088 342 1101 q 370 1037 370 1074 m 650 1037 q 636 985 650 999 q 584 970 623 970 q 533 984 547 970 q 519 1036 519 998 q 533 1087 519 1074 q 585 1101 547 1101 q 637 1088 623 1101 q 650 1037 650 1074 m 149 878 z "},"Ū":{"ha":891,"x_min":115,"x_max":777,"o":"m 777 324 q 753 181 777 244 q 686 75 730 119 q 581 9 643 32 q 439 -13 518 -13 q 307 8 366 -13 q 204 70 247 29 q 138 173 161 111 q 115 315 115 235 l 115 860 q 118 869 115 865 q 127 876 121 873 q 145 880 134 878 q 174 882 156 882 q 201 880 190 882 q 219 876 213 878 q 229 869 226 873 q 231 860 231 865 l 231 330 q 246 223 231 269 q 289 148 261 178 q 357 102 317 117 q 446 87 397 87 q 537 102 497 87 q 604 146 576 117 q 646 220 631 176 q 661 323 661 264 l 661 860 q 663 869 661 865 q 673 876 666 873 q 691 880 680 878 q 719 882 702 882 q 746 880 735 882 q 764 876 758 878 q 773 869 770 873 q 777 860 777 865 l 777 324 m 630 1078 q 639 1076 635 1078 q 646 1067 643 1073 q 650 1054 649 1062 q 651 1034 651 1045 q 650 1014 651 1022 q 646 999 649 1005 q 639 991 643 994 q 630 988 635 988 l 260 988 q 250 991 254 988 q 243 999 245 994 q 239 1014 240 1005 q 237 1034 237 1022 q 239 1053 237 1044 q 243 1067 240 1062 q 250 1076 245 1073 q 260 1078 254 1078 l 630 1078 m 148 878 z "},"Ŭ":{"ha":891,"x_min":115,"x_max":777,"o":"m 777 324 q 753 181 777 244 q 686 75 730 119 q 581 9 643 32 q 439 -13 518 -13 q 307 8 366 -13 q 204 70 247 29 q 138 173 161 111 q 115 315 115 235 l 115 860 q 118 869 115 865 q 127 876 121 873 q 145 880 134 878 q 174 882 156 882 q 201 880 190 882 q 219 876 213 878 q 229 869 226 873 q 231 860 231 865 l 231 330 q 246 223 231 269 q 289 148 261 178 q 357 102 317 117 q 446 87 397 87 q 537 102 497 87 q 604 146 576 117 q 646 220 631 176 q 661 323 661 264 l 661 860 q 663 869 661 865 q 673 876 666 873 q 691 880 680 878 q 719 882 702 882 q 746 880 735 882 q 764 876 758 878 q 773 869 770 873 q 777 860 777 865 l 777 324 m 621 1128 q 609 1052 621 1086 q 574 995 597 1019 q 518 959 551 971 q 443 946 485 946 q 364 960 397 946 q 309 998 331 974 q 277 1055 288 1022 q 267 1128 267 1088 q 275 1143 267 1139 q 307 1147 283 1147 q 341 1144 331 1147 q 351 1131 351 1141 q 357 1097 351 1120 q 374 1059 363 1074 q 403 1036 386 1044 q 445 1028 420 1028 q 500 1044 479 1028 q 529 1083 521 1061 q 537 1121 536 1105 q 545 1142 538 1137 q 580 1147 553 1147 q 613 1143 605 1147 q 621 1128 621 1139 m 178 878 z "},"Ů":{"ha":891,"x_min":115,"x_max":777,"o":"m 777 324 q 753 181 777 244 q 686 75 730 119 q 581 9 643 32 q 439 -13 518 -13 q 307 8 366 -13 q 204 70 247 29 q 138 173 161 111 q 115 315 115 235 l 115 860 q 118 869 115 865 q 127 876 121 873 q 145 880 134 878 q 174 882 156 882 q 201 880 190 882 q 219 876 213 878 q 229 869 226 873 q 231 860 231 865 l 231 330 q 246 223 231 269 q 289 148 261 178 q 357 102 317 117 q 446 87 397 87 q 537 102 497 87 q 604 146 576 117 q 646 220 631 176 q 661 323 661 264 l 661 860 q 663 869 661 865 q 673 876 666 873 q 691 880 680 878 q 719 882 702 882 q 746 880 735 882 q 764 876 758 878 q 773 869 770 873 q 777 860 777 865 l 777 324 m 583 1052 q 573 1000 583 1023 q 545 959 563 976 q 500 932 526 942 q 441 922 474 922 q 381 931 407 922 q 339 957 356 941 q 314 996 322 973 q 306 1047 306 1019 q 315 1100 306 1076 q 342 1140 324 1124 q 387 1166 361 1157 q 446 1176 413 1176 q 547 1143 512 1176 q 583 1052 583 1110 m 507 1048 q 492 1096 507 1076 q 444 1115 477 1115 q 397 1098 413 1115 q 381 1052 381 1081 q 396 1002 381 1021 q 446 984 410 984 q 492 1002 477 984 q 507 1048 507 1020 m 216 878 z "},"Ű":{"ha":891,"x_min":115,"x_max":781,"o":"m 777 324 q 753 181 777 244 q 686 75 730 119 q 581 9 643 32 q 439 -13 518 -13 q 307 8 366 -13 q 204 70 247 29 q 138 173 161 111 q 115 315 115 235 l 115 860 q 118 869 115 865 q 127 876 121 873 q 145 880 134 878 q 174 882 156 882 q 201 880 190 882 q 219 876 213 878 q 229 869 226 873 q 231 860 231 865 l 231 330 q 246 223 231 269 q 289 148 261 178 q 357 102 317 117 q 446 87 397 87 q 537 102 497 87 q 604 146 576 117 q 646 220 631 176 q 661 323 661 264 l 661 860 q 663 869 661 865 q 673 876 666 873 q 691 880 680 878 q 719 882 702 882 q 746 880 735 882 q 764 876 758 878 q 773 869 770 873 q 777 860 777 865 l 777 324 m 361 960 q 352 952 357 956 q 339 948 347 949 q 323 946 332 947 q 300 946 313 946 q 271 952 279 946 q 269 969 262 959 l 384 1128 q 393 1137 388 1133 q 407 1143 399 1141 q 427 1146 415 1145 q 456 1147 439 1147 q 497 1145 481 1147 q 518 1139 512 1143 q 522 1129 524 1135 q 513 1116 520 1123 l 361 960 m 619 961 q 610 952 614 956 q 598 948 605 949 q 583 946 592 947 q 560 946 574 946 q 538 947 547 946 q 525 951 530 949 q 519 959 519 954 q 522 968 518 963 l 643 1128 q 652 1137 646 1133 q 667 1143 658 1141 q 688 1146 675 1145 q 720 1147 701 1147 q 755 1145 742 1147 q 775 1139 769 1143 q 781 1130 781 1135 q 774 1119 781 1125 l 619 961 m 176 878 z "},"Ų":{"ha":891,"x_min":115,"x_max":777,"o":"m 777 324 q 746 162 777 231 q 652 47 715 94 q 633 32 642 39 q 614 16 625 25 q 590 -7 604 6 q 554 -43 576 -21 l 520 -76 q 499 -105 504 -92 q 494 -127 494 -119 q 507 -155 494 -146 q 544 -163 519 -163 l 621 -163 q 629 -165 625 -163 q 634 -170 632 -166 q 638 -180 637 -174 q 639 -197 639 -186 q 637 -214 639 -208 q 634 -224 636 -220 q 628 -231 632 -229 q 616 -235 623 -233 q 570 -244 595 -241 q 517 -248 545 -248 q 419 -222 454 -248 q 384 -145 384 -196 q 386 -124 384 -136 q 392 -101 387 -113 q 408 -73 397 -88 q 435 -41 418 -58 l 468 -9 q 453 -11 462 -9 q 433 -12 444 -12 q 347 -3 388 -12 q 270 24 305 6 q 206 69 235 42 q 157 133 177 96 q 126 215 137 169 q 115 315 115 260 l 115 861 q 118 869 115 865 q 127 876 121 873 q 145 880 134 879 q 174 882 157 882 q 201 880 190 882 q 219 876 213 879 q 229 869 226 873 q 231 861 231 865 l 231 326 q 246 222 231 267 q 289 147 261 177 q 357 102 317 117 q 446 87 397 87 q 537 102 497 87 q 604 146 576 117 q 646 220 631 176 q 661 323 661 264 l 661 861 q 663 869 661 865 q 673 876 666 873 q 691 880 680 879 q 720 882 703 882 q 747 880 736 882 q 764 876 758 879 q 773 869 770 873 q 777 861 777 865 l 777 324 z "},"V":{"ha":788,"x_min":23,"x_max":765,"o":"m 471 20 q 464 8 469 13 q 451 1 459 3 q 429 -3 442 -2 q 396 -4 416 -4 q 370 -4 381 -4 q 351 -2 359 -3 q 337 1 342 -1 q 327 5 331 3 q 320 12 323 8 q 316 21 318 16 l 29 836 q 23 860 24 851 q 29 874 23 869 q 49 880 35 879 q 85 882 62 882 q 116 881 104 882 q 133 877 127 880 q 142 870 139 874 q 148 859 145 865 l 399 120 l 400 120 l 645 857 q 650 869 647 865 q 659 877 652 874 q 678 881 666 880 q 711 882 690 882 q 744 880 732 882 q 761 873 756 878 q 764 860 765 869 q 758 836 763 850 l 471 20 z "},"W":{"ha":1236,"x_min":41,"x_max":1194,"o":"m 957 26 q 949 11 954 16 q 934 2 943 5 q 910 -3 924 -1 q 876 -4 897 -4 q 841 -3 855 -4 q 817 2 826 -1 q 802 11 807 5 q 795 26 798 16 l 611 688 l 610 688 l 440 26 q 433 11 438 16 q 420 2 429 5 q 397 -3 411 -1 q 361 -4 383 -4 q 324 -3 339 -4 q 300 2 309 -1 q 285 11 290 5 q 278 26 280 16 l 46 836 q 42 861 42 852 q 47 874 41 869 q 66 880 53 879 q 100 882 79 882 q 134 881 121 882 q 152 877 146 880 q 161 869 159 874 q 165 857 163 865 l 362 122 l 363 122 l 550 856 q 555 868 552 863 q 565 876 558 873 q 584 880 572 879 q 617 882 597 882 q 647 880 636 882 q 665 876 659 879 q 675 868 672 873 q 680 856 678 863 l 882 122 l 883 122 l 1076 857 q 1080 868 1078 863 q 1089 876 1082 873 q 1107 880 1095 879 q 1139 882 1119 882 q 1171 880 1159 882 q 1188 873 1183 878 q 1193 860 1194 869 q 1190 836 1193 851 l 957 26 z "},"Ẁ":{"ha":1236,"x_min":41,"x_max":1194,"o":"m 957 26 q 949 11 954 16 q 934 2 943 5 q 910 -3 924 -1 q 876 -4 897 -4 q 841 -3 855 -4 q 817 2 826 -1 q 802 11 807 5 q 795 26 798 16 l 611 688 l 610 688 l 440 26 q 433 11 438 16 q 420 2 429 5 q 397 -3 411 -1 q 361 -4 383 -4 q 324 -3 339 -4 q 300 2 309 -1 q 285 11 290 5 q 278 26 280 16 l 46 836 q 42 861 42 852 q 47 874 41 869 q 66 880 53 879 q 100 882 79 882 q 134 881 121 882 q 152 877 146 880 q 161 869 159 874 q 165 857 163 865 l 362 122 l 363 122 l 550 856 q 555 868 552 863 q 565 876 558 873 q 584 880 572 879 q 617 882 597 882 q 647 880 636 882 q 665 876 659 879 q 675 868 672 873 q 680 856 678 863 l 882 122 l 883 122 l 1076 857 q 1080 868 1078 863 q 1089 876 1082 873 q 1107 880 1095 879 q 1139 882 1119 882 q 1171 880 1159 882 q 1188 873 1183 878 q 1193 860 1194 869 q 1190 836 1193 851 l 957 26 m 651 975 q 659 962 657 968 q 657 953 661 957 q 645 948 654 949 q 620 946 635 946 q 596 947 606 946 q 579 950 587 948 q 566 957 572 953 q 553 967 560 960 l 400 1111 q 391 1124 393 1118 q 394 1135 389 1130 q 411 1142 399 1139 q 443 1145 422 1145 q 472 1144 460 1145 q 492 1141 484 1143 q 509 1133 501 1138 q 524 1120 516 1128 l 651 975 m 301 878 z "},"Ẃ":{"ha":1236,"x_min":41,"x_max":1194,"o":"m 957 26 q 949 11 954 16 q 934 2 943 5 q 910 -3 924 -1 q 876 -4 897 -4 q 841 -3 855 -4 q 817 2 826 -1 q 802 11 807 5 q 795 26 798 16 l 611 688 l 610 688 l 440 26 q 433 11 438 16 q 420 2 429 5 q 397 -3 411 -1 q 361 -4 383 -4 q 324 -3 339 -4 q 300 2 309 -1 q 285 11 290 5 q 278 26 280 16 l 46 836 q 42 861 42 852 q 47 874 41 869 q 66 880 53 879 q 100 882 79 882 q 134 881 121 882 q 152 877 146 880 q 161 869 159 874 q 165 857 163 865 l 362 122 l 363 122 l 550 856 q 555 868 552 863 q 565 876 558 873 q 584 880 572 879 q 617 882 597 882 q 647 880 636 882 q 665 876 659 879 q 675 868 672 873 q 680 856 678 863 l 882 122 l 883 122 l 1076 857 q 1080 868 1078 863 q 1089 876 1082 873 q 1107 880 1095 879 q 1139 882 1119 882 q 1171 880 1159 882 q 1188 873 1183 878 q 1193 860 1194 869 q 1190 836 1193 851 l 957 26 m 699 1120 q 714 1133 707 1128 q 730 1141 721 1138 q 751 1144 739 1143 q 780 1145 763 1145 q 812 1142 800 1145 q 828 1135 823 1139 q 831 1124 833 1130 q 823 1111 829 1118 l 669 967 q 657 957 663 960 q 644 950 651 953 q 626 947 636 948 q 602 946 616 946 q 578 948 587 946 q 566 953 569 949 q 564 962 562 957 q 571 975 565 968 l 699 1120 m 473 878 z "},"Ŵ":{"ha":1236,"x_min":41,"x_max":1194,"o":"m 957 26 q 949 11 954 16 q 934 2 943 5 q 910 -3 924 -1 q 876 -4 897 -4 q 841 -3 855 -4 q 817 2 826 -1 q 802 11 807 5 q 795 26 798 16 l 611 688 l 610 688 l 440 26 q 433 11 438 16 q 420 2 429 5 q 397 -3 411 -1 q 361 -4 383 -4 q 324 -3 339 -4 q 300 2 309 -1 q 285 11 290 5 q 278 26 280 16 l 46 836 q 42 861 42 852 q 47 874 41 869 q 66 880 53 879 q 100 882 79 882 q 134 881 121 882 q 152 877 146 880 q 161 869 159 874 q 165 857 163 865 l 362 122 l 363 122 l 550 856 q 555 868 552 863 q 565 876 558 873 q 584 880 572 879 q 617 882 597 882 q 647 880 636 882 q 665 876 659 879 q 675 868 672 873 q 680 856 678 863 l 882 122 l 883 122 l 1076 857 q 1080 868 1078 863 q 1089 876 1082 873 q 1107 880 1095 879 q 1139 882 1119 882 q 1171 880 1159 882 q 1188 873 1183 878 q 1193 860 1194 869 q 1190 836 1193 851 l 957 26 m 627 1145 q 650 1145 641 1145 q 667 1142 660 1144 q 679 1136 674 1139 q 690 1126 684 1132 l 836 972 q 843 960 842 965 q 840 952 844 955 q 827 947 836 949 q 802 946 817 946 q 770 947 782 946 q 750 950 758 948 q 738 955 743 951 q 730 961 734 958 l 626 1078 l 518 964 q 507 955 513 959 q 494 949 502 951 q 473 947 486 947 q 443 946 461 946 q 417 948 426 946 q 404 952 408 949 q 401 960 400 956 q 409 972 403 965 l 561 1126 q 572 1136 566 1132 q 585 1142 578 1139 q 603 1145 593 1144 q 627 1145 612 1145 m 311 878 z "},"Ẅ":{"ha":1236,"x_min":41,"x_max":1194,"o":"m 957 26 q 949 11 954 16 q 934 2 943 5 q 910 -3 924 -1 q 876 -4 897 -4 q 841 -3 855 -4 q 817 2 826 -1 q 802 11 807 5 q 795 26 798 16 l 611 688 l 610 688 l 440 26 q 433 11 438 16 q 420 2 429 5 q 397 -3 411 -1 q 361 -4 383 -4 q 324 -3 339 -4 q 300 2 309 -1 q 285 11 290 5 q 278 26 280 16 l 46 836 q 42 861 42 852 q 47 874 41 869 q 66 880 53 879 q 100 882 79 882 q 134 881 121 882 q 152 877 146 880 q 161 869 159 874 q 165 857 163 865 l 362 122 l 363 122 l 550 856 q 555 868 552 863 q 565 876 558 873 q 584 880 572 879 q 617 882 597 882 q 647 880 636 882 q 665 876 659 879 q 675 868 672 873 q 680 856 678 863 l 882 122 l 883 122 l 1076 857 q 1080 868 1078 863 q 1089 876 1082 873 q 1107 880 1095 879 q 1139 882 1119 882 q 1171 880 1159 882 q 1188 873 1183 878 q 1193 860 1194 869 q 1190 836 1193 851 l 957 26 m 548 1037 q 534 985 548 999 q 481 970 519 970 q 430 984 444 970 q 416 1036 416 998 q 430 1087 416 1074 q 482 1101 444 1101 q 534 1088 520 1101 q 548 1037 548 1074 m 828 1037 q 814 985 828 999 q 762 970 800 970 q 710 984 724 970 q 696 1036 696 998 q 711 1087 696 1074 q 762 1101 725 1101 q 814 1088 801 1101 q 828 1037 828 1074 m 327 878 z "},"X":{"ha":721,"x_min":33,"x_max":688,"o":"m 675 42 q 686 18 684 27 q 682 4 688 9 q 662 -2 675 -1 q 625 -4 648 -4 q 591 -3 603 -4 q 571 1 578 -2 q 561 7 564 3 q 554 17 557 11 l 359 366 l 161 17 q 154 7 158 11 q 143 0 150 3 q 123 -3 136 -2 q 91 -4 111 -4 q 56 -2 68 -4 q 38 4 43 -1 q 34 18 33 9 q 45 42 36 27 l 284 446 l 56 836 q 45 860 47 850 q 48 874 43 869 q 67 880 54 879 q 104 882 81 882 q 138 881 125 882 q 158 877 151 880 q 169 870 165 875 q 176 861 172 866 l 365 532 l 552 861 q 559 870 555 866 q 569 877 562 875 q 587 881 575 880 q 618 882 598 882 q 652 880 639 882 q 671 873 665 878 q 675 860 677 869 q 666 836 674 850 l 438 448 l 675 42 z "},"Y":{"ha":677,"x_min":20,"x_max":656,"o":"m 397 341 l 397 18 q 394 8 397 12 q 385 2 391 4 q 366 -2 378 -1 q 338 -4 355 -4 q 310 -2 321 -4 q 292 2 299 -1 q 282 8 285 4 q 279 18 279 12 l 279 341 l 31 836 q 22 861 24 852 q 25 874 20 869 q 44 880 31 879 q 79 882 57 882 q 112 880 100 882 q 132 877 125 879 q 143 870 140 874 q 151 859 147 865 l 272 606 q 306 531 289 570 q 340 452 323 492 l 342 452 q 374 529 357 490 q 408 604 391 567 l 530 858 q 535 869 532 865 q 546 877 539 874 q 564 880 552 879 q 593 882 575 882 q 631 880 617 882 q 650 873 645 878 q 654 860 656 869 q 645 836 652 851 l 397 341 z "},"Ỳ":{"ha":677,"x_min":20,"x_max":656,"o":"m 397 341 l 397 18 q 394 8 397 12 q 385 2 391 4 q 366 -2 378 -1 q 338 -4 355 -4 q 310 -2 321 -4 q 292 2 299 -1 q 282 8 285 4 q 279 18 279 12 l 279 341 l 31 836 q 22 861 24 852 q 25 874 20 869 q 44 880 31 879 q 79 882 57 882 q 112 880 100 882 q 132 877 125 879 q 143 870 140 874 q 151 859 147 865 l 272 606 q 306 531 289 570 q 340 452 323 492 l 342 452 q 374 529 357 490 q 408 604 391 567 l 530 858 q 535 869 532 865 q 546 877 539 874 q 564 880 552 879 q 593 882 575 882 q 631 880 617 882 q 650 873 645 878 q 654 860 656 869 q 645 836 652 851 l 397 341 m 385 975 q 393 962 391 968 q 391 953 395 957 q 379 948 388 949 q 354 946 370 946 q 330 947 340 946 q 313 950 321 948 q 300 957 306 953 q 288 967 294 960 l 134 1111 q 125 1124 127 1118 q 128 1135 123 1130 q 145 1142 133 1139 q 177 1145 157 1145 q 206 1144 194 1145 q 227 1141 218 1143 q 243 1133 235 1138 q 258 1120 250 1128 l 385 975 m 35 878 z "},"Ý":{"ha":677,"x_min":20,"x_max":656,"o":"m 397 341 l 397 18 q 394 8 397 12 q 385 2 391 4 q 366 -2 378 -1 q 338 -4 355 -4 q 310 -2 321 -4 q 292 2 299 -1 q 282 8 285 4 q 279 18 279 12 l 279 341 l 31 836 q 22 861 24 852 q 25 874 20 869 q 44 880 31 879 q 79 882 57 882 q 112 880 100 882 q 132 877 125 879 q 143 870 140 874 q 151 859 147 865 l 272 606 q 306 531 289 570 q 340 452 323 492 l 342 452 q 374 529 357 490 q 408 604 391 567 l 530 858 q 535 869 532 865 q 546 877 539 874 q 564 880 552 879 q 593 882 575 882 q 631 880 617 882 q 650 873 645 878 q 654 860 656 869 q 645 836 652 851 l 397 341 m 439 1120 q 453 1133 446 1128 q 469 1141 460 1138 q 490 1144 478 1143 q 519 1145 503 1145 q 551 1142 540 1145 q 568 1135 563 1139 q 571 1124 572 1130 q 563 1111 569 1118 l 409 967 q 396 957 402 960 q 383 950 391 953 q 366 947 376 948 q 342 946 356 946 q 317 948 326 946 q 305 953 309 949 q 303 962 302 957 q 311 975 304 968 l 439 1120 m 213 878 z "},"Ŷ":{"ha":677,"x_min":20,"x_max":656,"o":"m 397 341 l 397 18 q 394 8 397 12 q 385 2 391 4 q 366 -2 378 -1 q 338 -4 355 -4 q 310 -2 321 -4 q 292 2 299 -1 q 282 8 285 4 q 279 18 279 12 l 279 341 l 31 836 q 22 861 24 852 q 25 874 20 869 q 44 880 31 879 q 79 882 57 882 q 112 880 100 882 q 132 877 125 879 q 143 870 140 874 q 151 859 147 865 l 272 606 q 306 531 289 570 q 340 452 323 492 l 342 452 q 374 529 357 490 q 408 604 391 567 l 530 858 q 535 869 532 865 q 546 877 539 874 q 564 880 552 879 q 593 882 575 882 q 631 880 617 882 q 650 873 645 878 q 654 860 656 869 q 645 836 652 851 l 397 341 m 341 1145 q 365 1145 355 1145 q 381 1142 374 1144 q 394 1136 389 1139 q 405 1126 399 1132 l 550 972 q 557 960 556 965 q 555 952 559 955 q 541 947 551 949 q 517 946 532 946 q 484 947 496 946 q 465 950 472 948 q 453 955 457 951 q 445 961 448 958 l 340 1078 l 233 964 q 222 955 227 959 q 208 949 216 951 q 188 947 200 947 q 157 946 176 946 q 131 948 140 946 q 118 952 122 949 q 116 960 115 956 q 123 972 117 965 l 275 1126 q 287 1136 281 1132 q 300 1142 292 1139 q 317 1145 307 1144 q 341 1145 327 1145 m 26 878 z "},"Ÿ":{"ha":677,"x_min":20,"x_max":656,"o":"m 397 341 l 397 18 q 394 8 397 12 q 385 2 391 4 q 366 -2 378 -1 q 338 -4 355 -4 q 310 -2 321 -4 q 292 2 299 -1 q 282 8 285 4 q 279 18 279 12 l 279 341 l 31 836 q 22 861 24 852 q 25 874 20 869 q 44 880 31 879 q 79 882 57 882 q 112 880 100 882 q 132 877 125 879 q 143 870 140 874 q 151 859 147 865 l 272 606 q 306 531 289 570 q 340 452 323 492 l 342 452 q 374 529 357 490 q 408 604 391 567 l 530 858 q 535 869 532 865 q 546 877 539 874 q 564 880 552 879 q 593 882 575 882 q 631 880 617 882 q 650 873 645 878 q 654 860 656 869 q 645 836 652 851 l 397 341 m 265 1037 q 251 985 265 999 q 199 970 237 970 q 147 984 161 970 q 134 1036 134 998 q 148 1087 134 1074 q 199 1101 161 1101 q 251 1088 237 1101 q 265 1037 265 1074 m 545 1037 q 531 985 545 999 q 479 970 517 970 q 428 984 441 970 q 414 1036 414 998 q 428 1087 414 1074 q 479 1101 442 1101 q 532 1088 518 1101 q 545 1037 545 1074 m 44 878 z "},"Z":{"ha":650,"x_min":40,"x_max":621,"o":"m 621 49 q 620 27 621 36 q 615 12 618 18 q 608 3 612 5 q 597 0 604 0 l 79 0 q 51 11 62 0 q 40 45 40 22 l 40 71 q 41 87 40 79 q 45 103 42 94 q 55 122 49 111 q 70 146 61 132 l 475 780 l 75 780 q 63 783 68 780 q 55 791 58 785 q 51 806 52 797 q 50 827 50 815 q 51 850 50 841 q 55 866 52 860 q 63 875 58 872 q 75 878 68 878 l 563 878 q 592 867 581 878 q 602 835 602 857 l 602 808 q 601 789 602 798 q 596 772 600 781 q 587 753 593 763 q 572 729 581 743 l 169 98 l 597 98 q 615 87 609 98 q 621 49 621 75 z "},"Ź":{"ha":650,"x_min":40,"x_max":621,"o":"m 621 49 q 620 27 621 36 q 615 12 618 18 q 608 3 612 5 q 597 0 604 0 l 79 0 q 51 11 62 0 q 40 45 40 22 l 40 71 q 41 87 40 79 q 45 103 42 94 q 55 122 49 111 q 70 146 61 132 l 475 780 l 75 780 q 63 783 68 780 q 55 791 58 785 q 51 806 52 797 q 50 827 50 815 q 51 850 50 841 q 55 866 52 860 q 63 875 58 872 q 75 878 68 878 l 563 878 q 592 867 581 878 q 602 835 602 857 l 602 808 q 601 789 602 798 q 596 772 600 781 q 587 753 593 763 q 572 729 581 743 l 169 98 l 597 98 q 615 87 609 98 q 621 49 621 75 m 393 1120 q 408 1133 401 1128 q 424 1141 415 1138 q 445 1144 433 1143 q 474 1145 457 1145 q 506 1142 494 1145 q 522 1135 517 1139 q 525 1124 527 1130 q 517 1111 524 1118 l 363 967 q 351 957 357 960 q 338 950 345 953 q 320 947 330 948 q 296 946 311 946 q 272 948 281 946 q 260 953 263 949 q 258 962 256 957 q 265 975 259 968 l 393 1120 m 168 878 z "},"Ž":{"ha":650,"x_min":18,"x_max":621,"o":"m 621 49 q 620 27 621 36 q 615 12 618 18 q 608 3 612 5 q 597 0 604 0 l 79 0 q 51 11 62 0 q 40 45 40 22 l 40 71 q 41 87 40 79 q 45 103 42 94 q 55 122 49 111 q 70 146 61 132 l 475 780 l 75 780 q 63 783 68 780 q 55 791 58 785 q 51 806 52 797 q 50 827 50 815 q 51 850 50 841 q 55 866 52 860 q 63 875 58 872 q 75 878 68 878 l 563 878 q 592 867 581 878 q 602 835 602 857 l 602 808 q 601 789 602 798 q 596 772 600 781 q 587 753 593 763 q 572 729 581 743 l 169 98 l 597 98 q 615 87 609 98 q 621 49 621 75 m 323 946 q 300 947 309 946 q 283 949 290 947 q 271 956 276 951 q 260 966 266 960 l 115 1120 q 107 1132 109 1126 q 110 1140 106 1137 q 123 1144 114 1143 q 148 1145 133 1145 q 180 1144 168 1145 q 200 1142 193 1143 q 212 1137 208 1140 q 220 1130 216 1133 l 324 1013 l 433 1127 q 443 1136 437 1133 q 457 1142 449 1140 q 477 1145 465 1144 q 507 1145 489 1145 q 533 1144 524 1145 q 547 1139 543 1142 q 548 1131 550 1136 q 541 1120 547 1126 l 390 966 q 378 956 385 960 q 365 950 372 952 q 348 947 357 947 q 323 946 338 946 m 18 878 z "},"Ż":{"ha":650,"x_min":40,"x_max":621,"o":"m 621 49 q 620 27 621 36 q 615 12 618 18 q 608 3 612 5 q 597 0 604 0 l 79 0 q 51 11 62 0 q 40 45 40 22 l 40 71 q 41 87 40 79 q 45 103 42 94 q 55 122 49 111 q 70 146 61 132 l 475 780 l 75 780 q 63 783 68 780 q 55 791 58 785 q 51 806 52 797 q 50 827 50 815 q 51 850 50 841 q 55 866 52 860 q 63 875 58 872 q 75 878 68 878 l 563 878 q 592 867 581 878 q 602 835 602 857 l 602 808 q 601 789 602 798 q 596 772 600 781 q 587 753 593 763 q 572 729 581 743 l 169 98 l 597 98 q 615 87 609 98 q 621 49 621 75 m 396 1037 q 381 985 396 999 q 328 970 366 970 q 275 984 290 970 q 261 1036 261 998 q 276 1087 261 1073 q 329 1102 290 1102 q 381 1088 367 1102 q 396 1037 396 1074 m 172 878 z "},"a":{"ha":665,"x_min":62,"x_max":564,"o":"m 564 16 q 558 4 564 8 q 543 -2 553 0 q 515 -4 534 -4 q 487 -2 498 -4 q 472 4 477 0 q 467 16 467 8 l 467 77 q 378 11 427 35 q 274 -13 329 -13 q 187 0 226 -13 q 120 36 148 12 q 78 94 93 60 q 62 173 62 129 q 83 262 62 224 q 144 326 104 300 q 240 363 183 351 q 368 376 297 376 l 452 376 l 452 423 q 445 486 452 458 q 421 531 437 513 q 378 558 404 549 q 313 567 351 567 q 238 557 271 567 q 181 535 205 547 q 139 514 156 524 q 115 504 123 504 q 105 507 109 504 q 98 515 101 509 q 94 529 95 520 q 92 547 92 537 q 95 574 92 564 q 106 593 97 584 q 138 613 115 602 q 189 635 160 625 q 253 651 218 645 q 323 658 288 658 q 435 643 389 658 q 509 599 481 628 q 551 528 538 570 q 564 428 564 485 l 564 16 m 452 295 l 357 295 q 277 287 311 295 q 220 264 243 279 q 188 228 198 249 q 177 178 177 206 q 207 103 177 131 q 292 75 237 75 q 373 97 336 75 q 452 165 411 119 l 452 295 z "},"à":{"ha":665,"x_min":62,"x_max":564,"o":"m 564 16 q 558 4 564 8 q 543 -2 553 0 q 515 -4 534 -4 q 487 -2 498 -4 q 472 4 477 0 q 467 16 467 8 l 467 77 q 378 11 427 35 q 274 -13 329 -13 q 187 0 226 -13 q 120 36 148 12 q 78 94 93 60 q 62 173 62 129 q 83 262 62 224 q 144 326 104 300 q 240 363 183 351 q 368 376 297 376 l 452 376 l 452 423 q 445 486 452 458 q 421 531 437 513 q 378 558 404 549 q 313 567 351 567 q 238 557 271 567 q 181 535 205 547 q 139 514 156 524 q 115 504 123 504 q 105 507 109 504 q 98 515 101 509 q 94 529 95 520 q 92 547 92 537 q 95 574 92 564 q 106 593 97 584 q 138 613 115 602 q 189 635 160 625 q 253 651 218 645 q 323 658 288 658 q 435 643 389 658 q 509 599 481 628 q 551 528 538 570 q 564 428 564 485 l 564 16 m 452 295 l 357 295 q 277 287 311 295 q 220 264 243 279 q 188 228 198 249 q 177 178 177 206 q 207 103 177 131 q 292 75 237 75 q 373 97 336 75 q 452 165 411 119 l 452 295 m 382 769 q 389 756 387 762 q 386 747 390 751 q 374 742 382 744 q 351 740 366 740 q 328 741 337 740 q 313 744 319 742 q 302 751 307 747 q 292 762 297 755 l 170 920 q 163 931 164 926 q 168 942 163 937 q 184 948 172 946 q 215 951 196 951 q 242 949 231 951 q 261 945 254 948 q 274 938 269 943 q 285 926 279 933 l 382 769 m 74 645 z "},"á":{"ha":665,"x_min":62,"x_max":564,"o":"m 564 16 q 558 4 564 8 q 543 -2 553 0 q 515 -4 534 -4 q 487 -2 498 -4 q 472 4 477 0 q 467 16 467 8 l 467 77 q 378 11 427 35 q 274 -13 329 -13 q 187 0 226 -13 q 120 36 148 12 q 78 94 93 60 q 62 173 62 129 q 83 262 62 224 q 144 326 104 300 q 240 363 183 351 q 368 376 297 376 l 452 376 l 452 423 q 445 486 452 458 q 421 531 437 513 q 378 558 404 549 q 313 567 351 567 q 238 557 271 567 q 181 535 205 547 q 139 514 156 524 q 115 504 123 504 q 105 507 109 504 q 98 515 101 509 q 94 529 95 520 q 92 547 92 537 q 95 574 92 564 q 106 593 97 584 q 138 613 115 602 q 189 635 160 625 q 253 651 218 645 q 323 658 288 658 q 435 643 389 658 q 509 599 481 628 q 551 528 538 570 q 564 428 564 485 l 564 16 m 452 295 l 357 295 q 277 287 311 295 q 220 264 243 279 q 188 228 198 249 q 177 178 177 206 q 207 103 177 131 q 292 75 237 75 q 373 97 336 75 q 452 165 411 119 l 452 295 m 385 926 q 395 938 389 933 q 408 945 400 943 q 427 949 416 948 q 455 951 439 951 q 486 948 474 951 q 503 942 498 946 q 507 931 507 937 q 500 920 506 926 l 378 762 q 368 751 372 755 q 358 744 363 747 q 343 741 352 742 q 320 740 334 740 q 296 742 305 740 q 284 747 288 744 q 281 756 280 751 q 287 769 282 762 l 385 926 m 191 645 z "},"â":{"ha":665,"x_min":62,"x_max":564,"o":"m 564 16 q 558 4 564 8 q 543 -2 553 0 q 515 -4 534 -4 q 487 -2 498 -4 q 472 4 477 0 q 467 16 467 8 l 467 77 q 378 11 427 35 q 274 -13 329 -13 q 187 0 226 -13 q 120 36 148 12 q 78 94 93 60 q 62 173 62 129 q 83 262 62 224 q 144 326 104 300 q 240 363 183 351 q 368 376 297 376 l 452 376 l 452 423 q 445 486 452 458 q 421 531 437 513 q 378 558 404 549 q 313 567 351 567 q 238 557 271 567 q 181 535 205 547 q 139 514 156 524 q 115 504 123 504 q 105 507 109 504 q 98 515 101 509 q 94 529 95 520 q 92 547 92 537 q 95 574 92 564 q 106 593 97 584 q 138 613 115 602 q 189 635 160 625 q 253 651 218 645 q 323 658 288 658 q 435 643 389 658 q 509 599 481 628 q 551 528 538 570 q 564 428 564 485 l 564 16 m 452 295 l 357 295 q 277 287 311 295 q 220 264 243 279 q 188 228 198 249 q 177 178 177 206 q 207 103 177 131 q 292 75 237 75 q 373 97 336 75 q 452 165 411 119 l 452 295 m 249 760 q 241 750 245 753 q 231 744 237 746 q 217 741 225 742 q 195 740 208 740 q 167 742 177 740 q 154 749 157 745 q 153 761 151 753 q 164 778 156 768 l 276 933 q 284 942 279 939 q 296 947 289 945 q 314 950 303 949 q 339 951 324 951 q 363 950 353 951 q 379 946 372 949 q 390 941 386 944 q 398 933 395 938 l 510 778 q 520 761 517 768 q 520 749 523 753 q 507 742 517 745 q 479 740 496 740 q 456 741 465 740 q 442 744 448 742 q 433 750 437 746 q 425 760 430 754 l 337 882 l 249 760 m 63 645 z "},"ã":{"ha":665,"x_min":20,"x_max":564,"o":"m 564 16 q 558 4 564 8 q 543 -2 553 0 q 515 -4 534 -4 q 487 -2 498 -4 q 472 4 477 0 q 467 16 467 8 l 467 77 q 378 11 427 35 q 274 -13 329 -13 q 187 0 226 -13 q 120 36 148 12 q 78 94 93 60 q 62 173 62 129 q 83 262 62 224 q 144 326 104 300 q 240 363 183 351 q 368 376 297 376 l 452 376 l 452 423 q 445 486 452 458 q 421 531 437 513 q 378 558 404 549 q 313 567 351 567 q 238 557 271 567 q 181 535 205 547 q 139 514 156 524 q 115 504 123 504 q 105 507 109 504 q 98 515 101 509 q 94 529 95 520 q 92 547 92 537 q 95 574 92 564 q 106 593 97 584 q 138 613 115 602 q 189 635 160 625 q 253 651 218 645 q 323 658 288 658 q 435 643 389 658 q 509 599 481 628 q 551 528 538 570 q 564 428 564 485 l 564 16 m 452 295 l 357 295 q 277 287 311 295 q 220 264 243 279 q 188 228 198 249 q 177 178 177 206 q 207 103 177 131 q 292 75 237 75 q 373 97 336 75 q 452 165 411 119 l 452 295 m 559 891 q 524 781 559 819 q 428 743 488 743 q 383 750 403 743 q 347 766 363 756 q 317 788 331 777 q 291 810 304 800 q 264 826 277 820 q 237 833 252 833 q 199 813 210 833 q 188 761 188 793 q 186 752 188 756 q 181 747 185 749 q 168 744 176 745 q 146 743 159 743 q 128 744 136 743 q 116 748 121 745 q 110 757 112 751 q 108 772 108 763 q 142 879 108 839 q 239 919 176 919 q 302 905 275 919 q 350 874 328 891 q 390 844 371 858 q 430 829 408 829 q 467 847 454 829 q 479 901 479 865 q 487 915 479 911 q 517 919 494 919 q 551 914 543 919 q 559 891 559 909 m 20 645 z "},"ä":{"ha":665,"x_min":62,"x_max":564,"o":"m 564 16 q 558 4 564 8 q 543 -2 553 0 q 515 -4 534 -4 q 487 -2 498 -4 q 472 4 477 0 q 467 16 467 8 l 467 77 q 378 11 427 35 q 274 -13 329 -13 q 187 0 226 -13 q 120 36 148 12 q 78 94 93 60 q 62 173 62 129 q 83 262 62 224 q 144 326 104 300 q 240 363 183 351 q 368 376 297 376 l 452 376 l 452 423 q 445 486 452 458 q 421 531 437 513 q 378 558 404 549 q 313 567 351 567 q 238 557 271 567 q 181 535 205 547 q 139 514 156 524 q 115 504 123 504 q 105 507 109 504 q 98 515 101 509 q 94 529 95 520 q 92 547 92 537 q 95 574 92 564 q 106 593 97 584 q 138 613 115 602 q 189 635 160 625 q 253 651 218 645 q 323 658 288 658 q 435 643 389 658 q 509 599 481 628 q 551 528 538 570 q 564 428 564 485 l 564 16 m 452 295 l 357 295 q 277 287 311 295 q 220 264 243 279 q 188 228 198 249 q 177 178 177 206 q 207 103 177 131 q 292 75 237 75 q 373 97 336 75 q 452 165 411 119 l 452 295 m 279 825 q 265 774 279 788 q 215 761 252 761 q 165 774 178 761 q 153 823 153 787 q 166 875 153 861 q 216 888 179 888 q 266 875 253 888 q 279 825 279 861 m 519 825 q 505 774 519 788 q 455 761 492 761 q 406 774 418 761 q 393 823 393 787 q 406 875 393 861 q 456 888 419 888 q 506 875 493 888 q 519 825 519 861 m 63 645 z "},"ā":{"ha":665,"x_min":62,"x_max":564,"o":"m 564 16 q 558 4 564 8 q 543 -2 553 0 q 515 -4 534 -4 q 487 -2 498 -4 q 472 4 477 0 q 467 16 467 8 l 467 77 q 378 11 427 35 q 274 -13 329 -13 q 187 0 226 -13 q 120 36 148 12 q 78 94 93 60 q 62 173 62 129 q 83 262 62 224 q 144 326 104 300 q 240 363 183 351 q 368 376 297 376 l 452 376 l 452 423 q 445 486 452 458 q 421 531 437 513 q 378 558 404 549 q 313 567 351 567 q 238 557 271 567 q 181 535 205 547 q 139 514 156 524 q 115 504 123 504 q 105 507 109 504 q 98 515 101 509 q 94 529 95 520 q 92 547 92 537 q 95 574 92 564 q 106 593 97 584 q 138 613 115 602 q 189 635 160 625 q 253 651 218 645 q 323 658 288 658 q 435 643 389 658 q 509 599 481 628 q 551 528 538 570 q 564 428 564 485 l 564 16 m 452 295 l 357 295 q 277 287 311 295 q 220 264 243 279 q 188 228 198 249 q 177 178 177 206 q 207 103 177 131 q 292 75 237 75 q 373 97 336 75 q 452 165 411 119 l 452 295 m 499 877 q 509 874 505 877 q 515 867 513 872 q 519 853 517 862 q 521 833 521 845 q 519 813 521 821 q 515 800 517 806 q 509 792 513 795 q 499 789 505 789 l 174 789 q 164 792 169 789 q 157 800 160 795 q 153 813 155 806 q 152 833 152 821 q 153 853 152 845 q 157 867 155 862 q 164 874 160 872 q 174 877 169 877 l 499 877 m 62 645 z "},"ă":{"ha":665,"x_min":62,"x_max":564,"o":"m 564 16 q 558 4 564 8 q 543 -2 553 0 q 515 -4 534 -4 q 487 -2 498 -4 q 472 4 477 0 q 467 16 467 8 l 467 77 q 378 11 427 35 q 274 -13 329 -13 q 187 0 226 -13 q 120 36 148 12 q 78 94 93 60 q 62 173 62 129 q 83 262 62 224 q 144 326 104 300 q 240 363 183 351 q 368 376 297 376 l 452 376 l 452 423 q 445 486 452 458 q 421 531 437 513 q 378 558 404 549 q 313 567 351 567 q 238 557 271 567 q 181 535 205 547 q 139 514 156 524 q 115 504 123 504 q 105 507 109 504 q 98 515 101 509 q 94 529 95 520 q 92 547 92 537 q 95 574 92 564 q 106 593 97 584 q 138 613 115 602 q 189 635 160 625 q 253 651 218 645 q 323 658 288 658 q 435 643 389 658 q 509 599 481 628 q 551 528 538 570 q 564 428 564 485 l 564 16 m 452 295 l 357 295 q 277 287 311 295 q 220 264 243 279 q 188 228 198 249 q 177 178 177 206 q 207 103 177 131 q 292 75 237 75 q 373 97 336 75 q 452 165 411 119 l 452 295 m 431 926 q 439 941 431 936 q 470 946 447 946 q 491 945 483 946 q 503 942 498 944 q 509 936 507 939 q 511 927 511 932 q 499 847 511 881 q 466 789 488 812 q 411 755 444 766 q 335 743 378 743 q 256 755 289 743 q 202 791 223 768 q 171 848 180 814 q 161 925 161 882 q 169 941 161 936 q 200 946 177 946 q 220 945 212 946 q 232 941 228 943 q 239 935 237 939 q 241 926 241 931 q 249 883 243 903 q 266 850 254 864 q 294 830 277 837 q 335 823 311 823 q 372 828 355 823 q 402 847 389 834 q 422 879 414 859 q 431 926 429 898 m 71 645 z "},"å":{"ha":665,"x_min":62,"x_max":564,"o":"m 564 16 q 558 4 564 8 q 543 -2 553 0 q 515 -4 534 -4 q 487 -2 498 -4 q 472 4 477 0 q 467 16 467 8 l 467 77 q 378 11 427 35 q 274 -13 329 -13 q 187 0 226 -13 q 120 36 148 12 q 78 94 93 60 q 62 173 62 129 q 83 262 62 224 q 144 326 104 300 q 240 363 183 351 q 368 376 297 376 l 452 376 l 452 423 q 445 486 452 458 q 421 531 437 513 q 378 558 404 549 q 313 567 351 567 q 238 557 271 567 q 181 535 205 547 q 139 514 156 524 q 115 504 123 504 q 105 507 109 504 q 98 515 101 509 q 94 529 95 520 q 92 547 92 537 q 95 574 92 564 q 106 593 97 584 q 138 613 115 602 q 189 635 160 625 q 253 651 218 645 q 323 658 288 658 q 435 643 389 658 q 509 599 481 628 q 551 528 538 570 q 564 428 564 485 l 564 16 m 452 295 l 357 295 q 277 287 311 295 q 220 264 243 279 q 188 228 198 249 q 177 178 177 206 q 207 103 177 131 q 292 75 237 75 q 373 97 336 75 q 452 165 411 119 l 452 295 m 469 853 q 459 803 469 825 q 432 763 450 780 q 389 737 414 746 q 332 728 364 728 q 274 736 299 728 q 234 761 250 745 q 210 799 218 777 q 202 848 202 821 q 211 899 202 876 q 237 938 220 922 q 280 964 254 955 q 338 972 305 972 q 434 940 400 972 q 469 853 469 908 m 397 848 q 382 896 397 876 q 334 915 368 915 q 289 898 304 915 q 274 852 274 880 q 288 804 274 823 q 336 785 302 785 q 381 803 366 785 q 397 848 397 821 m 113 645 z "},"ǻ":{"ha":665,"x_min":62,"x_max":564,"o":"m 564 16 q 558 4 564 8 q 543 -2 553 0 q 515 -4 534 -4 q 487 -2 498 -4 q 472 4 477 0 q 467 16 467 8 l 467 77 q 378 11 427 35 q 274 -13 329 -13 q 187 0 226 -13 q 120 36 148 12 q 78 94 93 60 q 62 173 62 129 q 83 262 62 224 q 144 326 104 300 q 240 363 183 351 q 368 376 297 376 l 452 376 l 452 423 q 445 486 452 458 q 421 531 437 513 q 378 558 404 549 q 313 567 351 567 q 238 557 271 567 q 181 535 205 547 q 139 514 156 524 q 115 504 123 504 q 105 507 109 504 q 98 515 101 509 q 94 529 95 520 q 92 547 92 537 q 95 574 92 564 q 106 593 97 584 q 138 613 115 602 q 189 635 160 625 q 253 651 218 645 q 323 658 288 658 q 435 643 389 658 q 509 599 481 628 q 551 528 538 570 q 564 428 564 485 l 564 16 m 452 295 l 357 295 q 277 287 311 295 q 220 264 243 279 q 188 228 198 249 q 177 178 177 206 q 207 103 177 131 q 292 75 237 75 q 373 97 336 75 q 452 165 411 119 l 452 295 m 453 818 q 444 774 453 795 q 419 739 435 754 q 380 716 403 724 q 328 707 357 707 q 274 715 297 707 q 235 738 250 724 q 211 771 219 751 q 203 813 203 790 q 211 857 203 837 q 236 891 220 877 q 276 914 252 906 q 330 922 300 922 q 382 915 359 922 q 421 893 406 907 q 445 861 437 880 q 453 818 453 842 m 386 813 q 382 836 386 825 q 372 854 379 846 q 354 867 366 863 q 328 872 343 872 q 284 857 299 872 q 270 818 270 841 q 283 775 270 792 q 329 759 296 759 q 372 775 358 759 q 386 813 386 791 m 381 1086 q 394 1098 388 1093 q 408 1105 400 1102 q 426 1108 416 1107 q 451 1109 436 1109 q 481 1106 470 1109 q 497 1100 493 1104 q 500 1091 502 1096 q 492 1080 498 1086 l 372 983 q 360 973 366 977 q 348 967 354 969 q 333 963 341 964 q 312 962 324 962 q 288 963 296 962 q 277 969 280 965 q 276 977 273 972 q 284 989 278 982 l 381 1086 m 121 645 z "},"ą":{"ha":665,"x_min":62,"x_max":610,"o":"m 610 -197 q 609 -214 610 -208 q 606 -224 608 -220 q 599 -231 603 -229 q 589 -236 595 -234 q 550 -245 571 -242 q 502 -248 529 -248 q 405 -222 440 -248 q 370 -146 370 -196 q 373 -122 370 -134 q 381 -97 375 -111 q 398 -70 388 -84 q 426 -39 409 -56 l 468 3 l 468 79 l 467 79 q 378 11 427 35 q 274 -13 330 -13 q 187 0 226 -13 q 120 36 148 12 q 78 94 93 60 q 62 173 62 129 q 83 262 62 224 q 144 326 104 300 q 240 363 183 351 q 368 376 297 376 l 452 376 l 452 423 q 445 486 452 458 q 421 531 437 513 q 378 558 404 549 q 313 567 351 567 q 238 557 271 567 q 181 535 205 547 q 139 514 156 524 q 115 504 123 504 q 105 507 109 504 q 98 515 101 509 q 94 529 95 520 q 92 547 92 537 q 95 574 92 564 q 106 593 97 584 q 138 613 115 602 q 189 635 160 625 q 253 651 218 645 q 323 658 288 658 q 435 643 389 658 q 509 599 481 628 q 551 528 538 570 q 564 428 564 485 l 564 22 q 559 -11 564 4 q 545 -37 555 -25 l 506 -75 q 484 -104 490 -92 q 479 -128 479 -117 q 527 -164 479 -164 l 591 -164 q 606 -171 602 -164 q 610 -197 610 -177 m 452 295 l 357 295 q 277 287 311 295 q 220 264 243 279 q 188 228 198 249 q 177 178 177 206 q 207 103 177 131 q 292 75 237 75 q 373 97 336 75 q 452 165 411 119 l 452 295 z "},"æ":{"ha":1074,"x_min":62,"x_max":1007,"o":"m 1007 349 q 994 311 1007 322 q 964 300 981 300 l 564 300 q 574 208 564 249 q 608 138 585 168 q 670 94 632 109 q 764 78 709 78 q 841 85 807 78 q 899 101 874 92 q 940 117 924 110 q 964 124 956 124 q 972 122 968 124 q 978 115 975 119 q 981 101 980 110 q 982 81 982 93 q 981 65 982 72 q 980 54 981 59 q 976 45 979 49 q 970 37 974 41 q 948 25 966 33 q 901 8 930 16 q 833 -6 871 0 q 752 -13 795 -13 q 668 -5 705 -13 q 600 17 630 2 q 546 53 570 32 q 505 101 523 74 q 457 54 483 75 q 402 17 431 33 q 341 -5 373 2 q 274 -13 309 -13 q 187 0 226 -13 q 120 36 148 12 q 78 94 93 60 q 62 172 62 129 q 83 262 62 224 q 144 326 104 300 q 240 363 183 351 q 368 376 297 376 l 452 376 l 452 423 q 445 486 452 458 q 421 531 437 513 q 378 558 404 549 q 313 567 351 567 q 238 557 271 567 q 180 535 205 547 q 138 514 155 524 q 113 504 121 504 q 104 507 108 504 q 98 515 100 509 q 94 529 95 520 q 92 547 92 537 q 95 574 92 564 q 106 593 97 584 q 138 613 115 602 q 189 635 160 625 q 253 651 218 645 q 323 658 288 658 q 399 650 366 658 q 457 629 433 643 q 499 596 482 616 q 528 554 517 577 q 616 631 560 604 q 742 658 671 658 q 862 635 812 658 q 944 572 912 612 q 992 480 977 533 q 1007 369 1007 428 l 1007 349 m 895 382 q 886 460 896 426 q 856 519 876 495 q 805 557 836 544 q 734 570 774 570 q 662 555 693 570 q 609 513 631 539 q 577 453 588 488 q 564 382 566 419 l 895 382 m 466 181 q 455 235 458 204 q 451 295 451 267 l 357 295 q 277 287 311 295 q 220 264 243 279 q 188 228 198 249 q 177 178 177 206 q 207 103 177 131 q 292 75 237 75 q 378 100 336 75 q 466 181 420 125 z "},"ǽ":{"ha":1074,"x_min":62,"x_max":1007,"o":"m 1007 349 q 994 311 1007 322 q 964 300 981 300 l 564 300 q 574 208 564 249 q 608 138 585 168 q 670 94 632 109 q 764 78 709 78 q 841 85 807 78 q 899 101 874 92 q 940 117 924 110 q 964 124 956 124 q 972 122 968 124 q 978 115 975 119 q 981 101 980 110 q 982 81 982 93 q 981 65 982 72 q 980 54 981 59 q 976 45 979 49 q 970 37 974 41 q 948 25 966 33 q 901 8 930 16 q 833 -6 871 0 q 752 -13 795 -13 q 668 -5 705 -13 q 600 17 630 2 q 546 53 570 32 q 505 101 523 74 q 457 54 483 75 q 402 17 431 33 q 341 -5 373 2 q 274 -13 309 -13 q 187 0 226 -13 q 120 36 148 12 q 78 94 93 60 q 62 172 62 129 q 83 262 62 224 q 144 326 104 300 q 240 363 183 351 q 368 376 297 376 l 452 376 l 452 423 q 445 486 452 458 q 421 531 437 513 q 378 558 404 549 q 313 567 351 567 q 238 557 271 567 q 180 535 205 547 q 138 514 155 524 q 113 504 121 504 q 104 507 108 504 q 98 515 100 509 q 94 529 95 520 q 92 547 92 537 q 95 574 92 564 q 106 593 97 584 q 138 613 115 602 q 189 635 160 625 q 253 651 218 645 q 323 658 288 658 q 399 650 366 658 q 457 629 433 643 q 499 596 482 616 q 528 554 517 577 q 616 631 560 604 q 742 658 671 658 q 862 635 812 658 q 944 572 912 612 q 992 480 977 533 q 1007 369 1007 428 l 1007 349 m 895 382 q 886 460 896 426 q 856 519 876 495 q 805 557 836 544 q 734 570 774 570 q 662 555 693 570 q 609 513 631 539 q 577 453 588 488 q 564 382 566 419 l 895 382 m 466 181 q 455 235 458 204 q 451 295 451 267 l 357 295 q 277 287 311 295 q 220 264 243 279 q 188 228 198 249 q 177 178 177 206 q 207 103 177 131 q 292 75 237 75 q 378 100 336 75 q 466 181 420 125 m 595 926 q 604 938 599 933 q 617 945 610 943 q 637 949 625 948 q 665 951 648 951 q 695 948 684 951 q 712 942 707 946 q 716 931 717 937 q 710 920 715 926 l 587 762 q 577 751 582 755 q 567 744 573 747 q 552 741 562 742 q 530 740 543 740 q 506 742 515 740 q 493 747 497 744 q 491 756 490 751 q 496 769 492 762 l 595 926 m 401 645 z "},"b":{"ha":730,"x_min":104,"x_max":665,"o":"m 665 330 q 648 188 665 251 q 597 79 631 124 q 515 11 564 35 q 403 -13 466 -13 q 349 -7 374 -13 q 300 12 324 -1 q 253 44 277 24 q 203 92 229 64 l 203 17 q 200 7 203 12 q 191 1 197 3 q 176 -3 185 -1 q 153 -4 167 -4 q 130 -3 139 -4 q 114 1 120 -1 q 106 7 108 3 q 104 17 104 12 l 104 923 q 106 932 104 928 q 115 939 109 937 q 132 943 121 942 q 159 945 143 945 q 187 943 176 945 q 204 939 198 942 q 213 932 210 937 q 216 923 216 928 l 216 557 q 268 604 243 585 q 318 635 294 623 q 367 652 342 647 q 418 658 391 658 q 532 631 485 658 q 609 561 579 605 q 652 456 638 516 q 665 330 665 397 m 547 317 q 540 408 547 364 q 515 486 533 452 q 469 541 498 520 q 396 562 439 562 q 353 555 374 562 q 311 535 332 549 q 266 498 289 521 q 216 442 242 476 l 216 199 q 304 113 262 142 q 391 83 346 83 q 463 104 433 83 q 512 158 493 124 q 539 233 530 191 q 547 317 547 275 z "},"c":{"ha":587,"x_min":61,"x_max":543,"o":"m 543 110 q 542 90 543 98 q 539 76 541 81 q 535 65 538 70 q 525 53 533 61 q 496 32 516 44 q 450 9 475 19 q 395 -7 425 -1 q 333 -13 365 -13 q 216 9 267 -13 q 131 72 165 31 q 79 175 97 114 q 61 315 61 235 q 83 470 61 405 q 143 576 105 534 q 234 637 182 617 q 346 657 286 657 q 402 652 375 657 q 453 637 430 646 q 494 617 476 629 q 520 597 512 606 q 531 585 528 589 q 536 573 534 580 q 539 559 538 567 q 540 538 540 551 q 534 502 540 512 q 519 491 528 491 q 495 502 509 491 q 462 527 482 513 q 413 552 441 541 q 345 563 384 563 q 221 501 264 563 q 178 321 178 439 q 189 217 178 262 q 222 143 200 173 q 275 99 243 113 q 347 84 307 84 q 415 96 386 84 q 466 123 444 109 q 502 150 487 138 q 524 161 516 161 q 532 159 529 161 q 538 150 536 156 q 542 133 541 143 q 543 110 543 123 z "},"ć":{"ha":587,"x_min":61,"x_max":543,"o":"m 543 110 q 542 90 543 98 q 539 76 541 81 q 535 65 538 70 q 525 53 533 61 q 496 32 516 44 q 450 9 475 19 q 395 -7 425 -1 q 333 -13 365 -13 q 216 9 267 -13 q 131 72 165 31 q 79 175 97 114 q 61 315 61 235 q 83 470 61 405 q 143 576 105 534 q 234 637 182 617 q 346 657 286 657 q 402 652 375 657 q 453 637 430 646 q 494 617 476 629 q 520 597 512 606 q 531 585 528 589 q 536 573 534 580 q 539 559 538 567 q 540 538 540 551 q 534 502 540 512 q 519 491 528 491 q 495 502 509 491 q 462 527 482 513 q 413 552 441 541 q 345 563 384 563 q 221 501 264 563 q 178 321 178 439 q 189 217 178 262 q 222 143 200 173 q 275 99 243 113 q 347 84 307 84 q 415 96 386 84 q 466 123 444 109 q 502 150 487 138 q 524 161 516 161 q 532 159 529 161 q 538 150 536 156 q 542 133 541 143 q 543 110 543 123 m 374 926 q 383 938 378 933 q 396 945 389 943 q 416 949 404 948 q 444 951 427 951 q 474 948 463 951 q 491 942 486 946 q 495 931 496 937 q 489 920 494 926 l 366 762 q 356 751 361 755 q 346 744 352 747 q 331 741 340 742 q 309 740 322 740 q 285 742 294 740 q 272 747 276 744 q 270 756 269 751 q 275 769 271 762 l 374 926 m 180 645 z "},"ĉ":{"ha":587,"x_min":53,"x_max":543,"o":"m 543 110 q 542 90 543 98 q 539 76 541 81 q 535 65 538 70 q 525 53 533 61 q 496 32 516 44 q 450 9 475 19 q 395 -7 425 -1 q 333 -13 365 -13 q 216 9 267 -13 q 131 72 165 31 q 79 175 97 114 q 61 315 61 235 q 83 470 61 405 q 143 576 105 534 q 234 637 182 617 q 346 657 286 657 q 402 652 375 657 q 453 637 430 646 q 494 617 476 629 q 520 597 512 606 q 531 585 528 589 q 536 573 534 580 q 539 559 538 567 q 540 538 540 551 q 534 502 540 512 q 519 491 528 491 q 495 502 509 491 q 462 527 482 513 q 413 552 441 541 q 345 563 384 563 q 221 501 264 563 q 178 321 178 439 q 189 217 178 262 q 222 143 200 173 q 275 99 243 113 q 347 84 307 84 q 415 96 386 84 q 466 123 444 109 q 502 150 487 138 q 524 161 516 161 q 532 159 529 161 q 538 150 536 156 q 542 133 541 143 q 543 110 543 123 m 239 760 q 231 750 235 753 q 221 744 227 746 q 207 741 215 742 q 185 740 198 740 q 157 742 167 740 q 144 749 147 745 q 143 761 140 753 q 154 778 146 768 l 266 933 q 274 942 269 939 q 286 947 279 945 q 303 950 293 949 q 329 951 314 951 q 353 950 343 951 q 369 946 362 949 q 380 941 376 944 q 388 933 385 938 l 500 778 q 510 761 507 768 q 510 749 513 753 q 496 742 507 745 q 469 740 486 740 q 446 741 454 740 q 432 744 437 742 q 423 750 427 746 q 415 760 420 754 l 327 882 l 239 760 m 53 645 z "},"č":{"ha":587,"x_min":59,"x_max":543,"o":"m 543 110 q 542 90 543 98 q 539 76 541 81 q 535 65 538 70 q 525 53 533 61 q 496 32 516 44 q 450 9 475 19 q 395 -7 425 -1 q 333 -13 365 -13 q 216 9 267 -13 q 131 72 165 31 q 79 175 97 114 q 61 315 61 235 q 83 470 61 405 q 143 576 105 534 q 234 637 182 617 q 346 657 286 657 q 402 652 375 657 q 453 637 430 646 q 494 617 476 629 q 520 597 512 606 q 531 585 528 589 q 536 573 534 580 q 539 559 538 567 q 540 538 540 551 q 534 502 540 512 q 519 491 528 491 q 495 502 509 491 q 462 527 482 513 q 413 552 441 541 q 345 563 384 563 q 221 501 264 563 q 178 321 178 439 q 189 217 178 262 q 222 143 200 173 q 275 99 243 113 q 347 84 307 84 q 415 96 386 84 q 466 123 444 109 q 502 150 487 138 q 524 161 516 161 q 532 159 529 161 q 538 150 536 156 q 542 133 541 143 q 543 110 543 123 m 421 930 q 430 940 426 937 q 439 946 433 944 q 454 950 446 949 q 475 951 463 951 q 503 948 493 951 q 516 942 513 946 q 517 930 519 937 q 507 913 514 923 l 395 758 q 386 749 391 752 q 374 744 381 745 q 357 741 367 742 q 332 740 347 740 q 308 741 317 740 q 291 744 298 742 q 280 749 284 746 q 272 758 275 753 l 160 913 q 150 930 153 922 q 151 942 147 937 q 164 948 154 946 q 191 951 174 951 q 214 950 205 951 q 228 946 222 949 q 237 940 233 944 q 245 930 241 937 l 333 808 l 421 930 m 59 645 z "},"ċ":{"ha":587,"x_min":61,"x_max":543,"o":"m 543 110 q 542 90 543 98 q 539 76 541 81 q 535 65 538 70 q 525 53 533 61 q 496 32 516 44 q 450 9 475 19 q 395 -7 425 -1 q 333 -13 365 -13 q 216 9 267 -13 q 131 72 165 31 q 79 175 97 114 q 61 315 61 235 q 83 470 61 405 q 143 576 105 534 q 234 637 182 617 q 346 657 286 657 q 402 652 375 657 q 453 637 430 646 q 494 617 476 629 q 520 597 512 606 q 531 585 528 589 q 536 573 534 580 q 539 559 538 567 q 540 538 540 551 q 534 502 540 512 q 519 491 528 491 q 495 502 509 491 q 462 527 482 513 q 413 552 441 541 q 345 563 384 563 q 221 501 264 563 q 178 321 178 439 q 189 217 178 262 q 222 143 200 173 q 275 99 243 113 q 347 84 307 84 q 415 96 386 84 q 466 123 444 109 q 502 150 487 138 q 524 161 516 161 q 532 159 529 161 q 538 150 536 156 q 542 133 541 143 q 543 110 543 123 m 399 836 q 385 783 399 798 q 331 769 370 769 q 279 783 293 769 q 264 833 264 797 q 279 886 264 871 q 332 900 294 900 q 385 886 370 900 q 399 836 399 872 m 175 645 z "},"ç":{"ha":587,"x_min":61,"x_max":543,"o":"m 543 110 q 542 90 543 98 q 539 76 541 81 q 535 65 538 70 q 525 53 533 61 q 495 31 516 44 q 441 6 473 18 q 370 -11 410 -6 l 387 -50 q 408 -101 401 -81 q 414 -138 414 -121 q 405 -184 414 -164 q 378 -219 395 -205 q 336 -240 360 -233 q 281 -248 311 -248 q 236 -244 258 -248 q 200 -238 215 -241 q 179 -232 184 -235 q 171 -225 173 -229 q 167 -215 168 -221 q 166 -199 166 -209 q 171 -171 166 -178 q 185 -163 175 -163 l 269 -163 q 303 -154 291 -163 q 315 -127 315 -145 q 311 -105 315 -118 q 300 -77 307 -92 l 269 -6 q 153 48 199 7 q 84 157 107 90 q 61 315 61 224 q 83 470 61 405 q 143 576 105 534 q 234 637 182 617 q 346 657 286 657 q 402 652 375 657 q 453 637 430 646 q 494 617 476 629 q 520 597 512 606 q 531 585 528 589 q 536 573 534 580 q 539 559 538 567 q 540 538 540 551 q 534 502 540 512 q 519 491 528 491 q 495 502 509 491 q 462 527 482 513 q 413 552 441 541 q 345 563 384 563 q 221 501 264 563 q 178 321 178 439 q 189 217 178 262 q 222 143 200 173 q 275 99 243 113 q 347 84 307 84 q 415 96 386 84 q 466 123 444 109 q 502 150 487 138 q 524 161 516 161 q 532 159 529 161 q 538 150 536 156 q 542 133 541 143 q 543 110 543 123 z "},"d":{"ha":730,"x_min":65,"x_max":627,"o":"m 627 17 q 624 7 627 12 q 616 1 622 3 q 601 -3 610 -1 q 578 -4 591 -4 q 554 -3 564 -4 q 538 1 545 -1 q 530 7 532 3 q 527 17 527 12 l 527 98 q 427 16 479 45 q 313 -13 375 -13 q 199 13 246 -13 q 122 84 151 39 q 79 188 92 128 q 65 315 65 248 q 82 457 65 393 q 132 565 99 520 q 215 634 165 610 q 328 658 264 658 q 426 634 382 658 q 514 566 471 611 l 514 920 q 516 929 514 925 q 526 936 519 934 q 543 940 532 939 q 570 942 553 942 q 597 940 587 942 q 614 936 608 939 q 624 929 621 934 q 627 920 627 925 l 627 17 m 514 446 q 426 532 469 503 q 338 562 384 562 q 265 541 295 562 q 217 488 235 521 q 190 412 198 454 q 181 327 181 370 q 188 237 181 281 q 213 158 195 193 q 260 103 231 124 q 333 83 289 83 q 376 89 355 83 q 418 109 397 95 q 464 146 440 123 q 514 202 488 169 l 514 446 z "},"ď":{"ha":789,"x_min":65,"x_max":852,"o":"m 627 17 q 624 7 627 12 q 616 1 622 3 q 601 -3 610 -1 q 578 -4 591 -4 q 554 -3 564 -4 q 538 1 545 -1 q 530 7 532 3 q 527 17 527 12 l 527 98 q 427 16 479 45 q 313 -13 375 -13 q 199 13 246 -13 q 122 84 151 39 q 79 188 92 128 q 65 315 65 248 q 82 457 65 393 q 132 565 99 520 q 215 634 165 610 q 328 658 264 658 q 426 634 382 658 q 514 566 471 611 l 514 920 q 516 929 514 925 q 526 936 519 934 q 543 940 532 939 q 570 942 553 942 q 597 940 587 942 q 614 936 608 939 q 624 929 621 934 q 627 920 627 925 l 627 17 m 514 446 q 426 532 469 503 q 338 562 384 562 q 265 541 295 562 q 217 488 235 521 q 190 412 198 454 q 181 327 181 370 q 188 237 181 281 q 213 158 195 193 q 260 103 231 124 q 333 83 289 83 q 376 89 355 83 q 418 109 397 95 q 464 146 440 123 q 514 202 488 169 l 514 446 m 748 923 q 754 935 750 930 q 765 942 758 939 q 783 946 772 945 q 810 947 794 947 q 834 946 825 947 q 847 942 842 945 q 851 934 851 939 q 850 922 852 929 l 765 711 q 761 703 764 706 q 752 698 758 700 q 737 696 746 696 q 713 695 728 695 q 697 696 703 695 q 688 701 691 698 q 685 707 686 703 q 686 716 684 711 l 748 923 m 595 676 z "},"đ":{"ha":766,"x_min":65,"x_max":740,"o":"m 740 792 q 739 772 740 781 q 734 758 737 764 q 727 750 731 753 q 718 748 724 748 l 627 748 l 627 17 q 624 7 627 12 q 616 1 622 3 q 601 -3 610 -1 q 578 -4 591 -4 q 554 -3 564 -4 q 538 1 545 -1 q 530 7 532 3 q 527 17 527 12 l 527 98 q 427 16 479 45 q 313 -13 375 -13 q 199 13 246 -13 q 122 84 151 39 q 79 188 92 128 q 65 315 65 248 q 82 456 65 393 q 132 564 99 519 q 215 632 165 608 q 328 656 264 656 q 426 633 382 656 q 514 565 471 610 l 514 748 l 348 748 q 338 750 342 748 q 331 758 334 753 q 327 772 328 764 q 326 792 326 781 q 327 813 326 804 q 331 827 328 821 q 338 834 334 832 q 348 836 342 836 l 514 836 l 514 920 q 516 929 514 925 q 526 936 519 934 q 543 940 532 939 q 570 942 553 942 q 597 940 587 942 q 614 936 608 939 q 624 929 621 934 q 627 920 627 925 l 627 836 l 718 836 q 727 834 723 836 q 734 827 731 832 q 739 813 737 821 q 740 792 740 804 m 514 445 q 426 531 469 501 q 337 561 384 561 q 265 541 295 561 q 217 487 235 520 q 190 412 198 454 q 181 326 181 370 q 188 236 181 280 q 213 158 195 193 q 260 103 231 124 q 333 83 289 83 q 376 89 355 83 q 418 109 397 95 q 464 146 440 123 q 514 202 488 169 l 514 445 z "},"ð":{"ha":730,"x_min":66,"x_max":642,"o":"m 201 727 q 189 726 194 726 q 181 731 184 727 q 177 742 178 734 q 176 763 176 750 q 177 782 176 774 q 181 795 178 790 q 190 803 184 800 q 201 808 195 806 l 330 841 q 313 859 322 849 q 294 880 304 869 q 274 901 283 890 q 256 920 264 911 q 250 929 251 925 q 255 937 250 934 q 273 941 260 939 q 310 943 286 943 q 345 942 331 943 q 369 938 359 941 q 385 932 378 936 q 396 924 391 928 q 428 887 414 903 q 444 869 442 872 l 616 913 q 627 914 623 915 q 635 909 632 913 q 640 898 638 906 q 642 878 642 890 q 640 859 642 867 q 635 845 638 850 q 627 837 632 840 q 615 832 623 833 l 499 802 q 562 708 536 754 q 605 612 589 661 q 630 508 622 562 q 637 388 637 453 q 619 218 637 292 q 563 92 601 143 q 468 14 526 41 q 332 -13 410 -13 q 206 13 257 -13 q 124 83 155 39 q 79 187 93 127 q 66 315 66 247 q 84 463 66 399 q 136 570 102 526 q 219 635 170 613 q 328 658 268 658 q 374 653 352 658 q 417 638 395 648 q 458 614 438 629 q 498 580 479 600 q 484 618 493 597 q 463 665 475 640 q 431 717 450 690 q 387 774 412 745 l 201 727 m 522 374 q 522 415 522 397 q 519 446 521 433 q 469 497 493 475 q 422 534 444 519 q 379 555 400 548 q 338 562 359 562 q 269 543 298 562 q 220 492 239 524 q 191 418 200 460 q 181 327 181 375 q 189 235 181 279 q 214 157 196 191 q 262 103 232 123 q 336 83 292 83 q 417 100 382 83 q 475 152 452 117 q 510 242 498 188 q 522 374 522 297 z "},"e":{"ha":691,"x_min":63,"x_max":625,"o":"m 625 349 q 611 311 625 322 q 581 300 598 300 l 181 300 q 191 208 181 249 q 225 138 201 168 q 287 94 249 109 q 380 78 325 78 q 457 85 423 78 q 516 101 491 92 q 556 117 541 110 q 581 124 572 124 q 589 122 585 124 q 595 115 593 119 q 598 101 597 110 q 599 81 599 93 q 598 65 599 72 q 596 54 597 59 q 593 45 595 49 q 587 37 591 41 q 565 25 583 33 q 517 8 547 16 q 450 -6 488 0 q 368 -13 412 -13 q 236 8 293 -13 q 141 71 180 29 q 83 174 102 112 q 63 319 63 237 q 83 461 63 398 q 142 567 104 524 q 235 634 180 611 q 356 658 289 658 q 478 635 428 658 q 562 573 529 612 q 609 481 594 534 q 625 369 625 429 l 625 349 m 512 382 q 473 520 514 470 q 351 570 432 570 q 279 555 310 570 q 227 513 248 539 q 194 453 205 488 q 181 382 182 419 l 512 382 z "},"è":{"ha":691,"x_min":63,"x_max":625,"o":"m 625 349 q 611 311 625 322 q 581 300 598 300 l 181 300 q 191 208 181 249 q 225 138 201 168 q 287 94 249 109 q 380 78 325 78 q 457 85 423 78 q 516 101 491 92 q 556 117 541 110 q 581 124 572 124 q 589 122 585 124 q 595 115 593 119 q 598 101 597 110 q 599 81 599 93 q 598 65 599 72 q 596 54 597 59 q 593 45 595 49 q 587 37 591 41 q 565 25 583 33 q 517 8 547 16 q 450 -6 488 0 q 368 -13 412 -13 q 236 8 293 -13 q 141 71 180 29 q 83 174 102 112 q 63 319 63 237 q 83 461 63 398 q 142 567 104 524 q 235 634 180 611 q 356 658 289 658 q 478 635 428 658 q 562 573 529 612 q 609 481 594 534 q 625 369 625 429 l 625 349 m 512 382 q 473 520 514 470 q 351 570 432 570 q 279 555 310 570 q 227 513 248 539 q 194 453 205 488 q 181 382 182 419 l 512 382 m 401 769 q 407 756 406 762 q 405 747 408 751 q 392 742 401 744 q 369 740 384 740 q 347 741 355 740 q 331 744 338 742 q 320 751 325 747 q 311 762 315 755 l 188 920 q 182 931 182 926 q 186 942 181 937 q 202 948 191 946 q 233 951 214 951 q 261 949 250 951 q 279 945 272 948 q 292 938 287 943 q 303 926 298 933 l 401 769 m 92 645 z "},"é":{"ha":691,"x_min":63,"x_max":625,"o":"m 625 349 q 611 311 625 322 q 581 300 598 300 l 181 300 q 191 208 181 249 q 225 138 201 168 q 287 94 249 109 q 380 78 325 78 q 457 85 423 78 q 516 101 491 92 q 556 117 541 110 q 581 124 572 124 q 589 122 585 124 q 595 115 593 119 q 598 101 597 110 q 599 81 599 93 q 598 65 599 72 q 596 54 597 59 q 593 45 595 49 q 587 37 591 41 q 565 25 583 33 q 517 8 547 16 q 450 -6 488 0 q 368 -13 412 -13 q 236 8 293 -13 q 141 71 180 29 q 83 174 102 112 q 63 319 63 237 q 83 461 63 398 q 142 567 104 524 q 235 634 180 611 q 356 658 289 658 q 478 635 428 658 q 562 573 529 612 q 609 481 594 534 q 625 369 625 429 l 625 349 m 512 382 q 473 520 514 470 q 351 570 432 570 q 279 555 310 570 q 227 513 248 539 q 194 453 205 488 q 181 382 182 419 l 512 382 m 402 926 q 412 938 406 933 q 425 945 417 943 q 444 949 433 948 q 472 951 456 951 q 503 948 491 951 q 519 942 515 946 q 524 931 524 937 q 517 920 523 926 l 395 762 q 385 751 389 755 q 375 744 380 747 q 360 741 369 742 q 337 740 351 740 q 313 742 322 740 q 301 747 304 744 q 298 756 297 751 q 304 769 299 762 l 402 926 m 208 645 z "},"ê":{"ha":691,"x_min":63,"x_max":625,"o":"m 625 349 q 611 311 625 322 q 581 300 598 300 l 181 300 q 191 208 181 249 q 225 138 201 168 q 287 94 249 109 q 380 78 325 78 q 457 85 423 78 q 516 101 491 92 q 556 117 541 110 q 581 124 572 124 q 589 122 585 124 q 595 115 593 119 q 598 101 597 110 q 599 81 599 93 q 598 65 599 72 q 596 54 597 59 q 593 45 595 49 q 587 37 591 41 q 565 25 583 33 q 517 8 547 16 q 450 -6 488 0 q 368 -13 412 -13 q 236 8 293 -13 q 141 71 180 29 q 83 174 102 112 q 63 319 63 237 q 83 461 63 398 q 142 567 104 524 q 235 634 180 611 q 356 658 289 658 q 478 635 428 658 q 562 573 529 612 q 609 481 594 534 q 625 369 625 429 l 625 349 m 512 382 q 473 520 514 470 q 351 570 432 570 q 279 555 310 570 q 227 513 248 539 q 194 453 205 488 q 181 382 182 419 l 512 382 m 262 760 q 254 750 258 753 q 244 744 250 746 q 230 741 239 742 q 209 740 222 740 q 181 742 191 740 q 168 749 171 745 q 167 761 164 753 q 178 778 170 768 l 290 933 q 298 942 293 939 q 310 947 302 945 q 327 950 317 949 q 353 951 338 951 q 376 950 367 951 q 393 946 386 949 q 404 941 399 944 q 412 933 408 938 l 524 778 q 534 761 531 768 q 533 749 536 753 q 520 742 530 745 q 492 740 510 740 q 470 741 478 740 q 456 744 461 742 q 447 750 450 746 q 439 760 444 754 l 351 882 l 262 760 m 77 645 z "},"ě":{"ha":691,"x_min":63,"x_max":625,"o":"m 625 349 q 611 311 625 322 q 581 300 598 300 l 181 300 q 191 208 181 249 q 225 138 201 168 q 287 94 249 109 q 380 78 325 78 q 457 85 423 78 q 516 101 491 92 q 556 117 541 110 q 581 124 572 124 q 589 122 585 124 q 595 115 593 119 q 598 101 597 110 q 599 81 599 93 q 598 65 599 72 q 596 54 597 59 q 593 45 595 49 q 587 37 591 41 q 565 25 583 33 q 517 8 547 16 q 450 -6 488 0 q 368 -13 412 -13 q 236 8 293 -13 q 141 71 180 29 q 83 174 102 112 q 63 319 63 237 q 83 461 63 398 q 142 567 104 524 q 235 634 180 611 q 356 658 289 658 q 478 635 428 658 q 562 573 529 612 q 609 481 594 534 q 625 369 625 429 l 625 349 m 512 382 q 473 520 514 470 q 351 570 432 570 q 279 555 310 570 q 227 513 248 539 q 194 453 205 488 q 181 382 182 419 l 512 382 m 437 930 q 446 940 442 937 q 456 946 450 944 q 470 950 462 949 q 492 951 479 951 q 519 948 509 951 q 533 942 530 946 q 533 930 536 937 q 523 913 530 923 l 411 758 q 402 749 407 752 q 390 744 397 745 q 373 741 383 742 q 348 740 363 740 q 324 741 334 740 q 308 744 315 742 q 296 749 300 746 q 288 758 292 753 l 176 913 q 166 930 169 922 q 167 942 163 937 q 180 948 170 946 q 208 951 190 951 q 230 950 222 951 q 244 946 239 949 q 253 940 250 944 q 261 930 257 937 l 349 808 l 437 930 m 75 645 z "},"ë":{"ha":691,"x_min":63,"x_max":625,"o":"m 625 349 q 611 311 625 322 q 581 300 598 300 l 181 300 q 191 208 181 249 q 225 138 201 168 q 287 94 249 109 q 380 78 325 78 q 457 85 423 78 q 516 101 491 92 q 556 117 541 110 q 581 124 572 124 q 589 122 585 124 q 595 115 593 119 q 598 101 597 110 q 599 81 599 93 q 598 65 599 72 q 596 54 597 59 q 593 45 595 49 q 587 37 591 41 q 565 25 583 33 q 517 8 547 16 q 450 -6 488 0 q 368 -13 412 -13 q 236 8 293 -13 q 141 71 180 29 q 83 174 102 112 q 63 319 63 237 q 83 461 63 398 q 142 567 104 524 q 235 634 180 611 q 356 658 289 658 q 478 635 428 658 q 562 573 529 612 q 609 481 594 534 q 625 369 625 429 l 625 349 m 512 382 q 473 520 514 470 q 351 570 432 570 q 279 555 310 570 q 227 513 248 539 q 194 453 205 488 q 181 382 182 419 l 512 382 m 294 825 q 280 774 294 788 q 230 761 267 761 q 180 774 193 761 q 168 823 168 787 q 181 875 168 861 q 231 888 194 888 q 281 875 268 888 q 294 825 294 861 m 534 825 q 520 774 534 788 q 470 761 507 761 q 420 774 433 761 q 408 823 408 787 q 421 875 408 861 q 471 888 434 888 q 521 875 508 888 q 534 825 534 861 m 78 645 z "},"ē":{"ha":691,"x_min":63,"x_max":625,"o":"m 625 349 q 611 311 625 322 q 581 300 598 300 l 181 300 q 191 208 181 249 q 225 138 201 168 q 287 94 249 109 q 380 78 325 78 q 457 85 423 78 q 516 101 491 92 q 556 117 541 110 q 581 124 572 124 q 589 122 585 124 q 595 115 593 119 q 598 101 597 110 q 599 81 599 93 q 598 65 599 72 q 596 54 597 59 q 593 45 595 49 q 587 37 591 41 q 565 25 583 33 q 517 8 547 16 q 450 -6 488 0 q 368 -13 412 -13 q 236 8 293 -13 q 141 71 180 29 q 83 174 102 112 q 63 319 63 237 q 83 461 63 398 q 142 567 104 524 q 235 634 180 611 q 356 658 289 658 q 478 635 428 658 q 562 573 529 612 q 609 481 594 534 q 625 369 625 429 l 625 349 m 512 382 q 473 520 514 470 q 351 570 432 570 q 279 555 310 570 q 227 513 248 539 q 194 453 205 488 q 181 382 182 419 l 512 382 m 514 877 q 524 874 519 877 q 530 867 528 872 q 534 853 532 862 q 536 833 536 845 q 534 813 536 821 q 530 800 532 806 q 524 792 528 795 q 514 789 519 789 l 189 789 q 179 792 184 789 q 172 800 175 795 q 168 813 170 806 q 167 833 167 821 q 168 853 167 845 q 172 867 170 862 q 179 874 175 872 q 189 877 184 877 l 514 877 m 77 645 z "},"ĕ":{"ha":691,"x_min":63,"x_max":625,"o":"m 625 349 q 611 311 625 322 q 581 300 598 300 l 181 300 q 191 208 181 249 q 225 138 201 168 q 287 94 249 109 q 380 78 325 78 q 457 85 423 78 q 516 101 491 92 q 556 117 541 110 q 581 124 572 124 q 589 122 585 124 q 595 115 593 119 q 598 101 597 110 q 599 81 599 93 q 598 65 599 72 q 596 54 597 59 q 593 45 595 49 q 587 37 591 41 q 565 25 583 33 q 517 8 547 16 q 450 -6 488 0 q 368 -13 412 -13 q 236 8 293 -13 q 141 71 180 29 q 83 174 102 112 q 63 319 63 237 q 83 461 63 398 q 142 567 104 524 q 235 634 180 611 q 356 658 289 658 q 478 635 428 658 q 562 573 529 612 q 609 481 594 534 q 625 369 625 429 l 625 349 m 512 382 q 473 520 514 470 q 351 570 432 570 q 279 555 310 570 q 227 513 248 539 q 194 453 205 488 q 181 382 182 419 l 512 382 m 441 926 q 449 941 441 936 q 480 946 457 946 q 501 945 493 946 q 513 942 509 944 q 519 936 517 939 q 521 927 521 932 q 510 847 521 881 q 476 789 498 812 q 421 755 454 766 q 345 743 389 743 q 266 755 299 743 q 212 791 233 768 q 181 848 191 814 q 171 925 171 882 q 179 941 171 936 q 210 946 187 946 q 230 945 222 946 q 242 941 238 943 q 249 935 247 939 q 251 926 251 931 q 259 883 253 903 q 276 850 264 864 q 304 830 287 837 q 345 823 321 823 q 382 828 366 823 q 412 847 399 834 q 432 879 425 859 q 441 926 439 898 m 81 645 z "},"ė":{"ha":691,"x_min":63,"x_max":625,"o":"m 625 349 q 611 311 625 322 q 581 300 598 300 l 181 300 q 191 208 181 249 q 225 138 201 168 q 287 94 249 109 q 380 78 325 78 q 457 85 423 78 q 516 101 491 92 q 556 117 541 110 q 581 124 572 124 q 589 122 585 124 q 595 115 593 119 q 598 101 597 110 q 599 81 599 93 q 598 65 599 72 q 596 54 597 59 q 593 45 595 49 q 587 37 591 41 q 565 25 583 33 q 517 8 547 16 q 450 -6 488 0 q 368 -13 412 -13 q 236 8 293 -13 q 141 71 180 29 q 83 174 102 112 q 63 319 63 237 q 83 461 63 398 q 142 567 104 524 q 235 634 180 611 q 356 658 289 658 q 478 635 428 658 q 562 573 529 612 q 609 481 594 534 q 625 369 625 429 l 625 349 m 512 382 q 473 520 514 470 q 351 570 432 570 q 279 555 310 570 q 227 513 248 539 q 194 453 205 488 q 181 382 182 419 l 512 382 m 421 836 q 406 783 421 798 q 353 769 391 769 q 300 783 315 769 q 286 833 286 797 q 301 886 286 871 q 354 900 315 900 q 407 886 392 900 q 421 836 421 872 m 197 645 z "},"ę":{"ha":691,"x_min":63,"x_max":625,"o":"m 625 349 q 611 311 625 322 q 581 300 598 300 l 181 300 q 191 208 181 249 q 225 138 201 168 q 287 94 249 109 q 380 78 325 78 q 457 85 423 78 q 516 101 491 92 q 556 117 541 110 q 581 124 572 124 q 589 122 585 124 q 595 115 593 119 q 598 101 597 110 q 599 81 599 93 q 598 58 599 67 q 596 42 598 49 q 592 30 595 35 q 583 19 589 25 l 490 -74 q 467 -105 473 -92 q 462 -127 462 -118 q 473 -155 462 -146 q 512 -164 485 -164 l 586 -164 q 600 -170 595 -164 q 604 -194 604 -176 q 603 -213 604 -205 q 600 -224 602 -220 q 593 -231 597 -229 q 582 -235 589 -233 q 537 -244 559 -241 q 487 -248 514 -248 q 389 -222 424 -248 q 353 -146 353 -196 q 356 -121 353 -133 q 365 -96 359 -109 q 381 -70 371 -83 q 407 -41 391 -56 l 444 -3 q 407 -10 427 -7 q 361 -12 387 -12 q 233 9 289 -12 q 140 72 178 30 q 83 175 102 113 q 63 319 63 237 q 83 461 63 398 q 142 567 104 524 q 235 634 180 611 q 356 658 289 658 q 478 635 428 658 q 562 573 529 612 q 609 481 594 534 q 625 369 625 429 l 625 349 m 512 382 q 473 520 514 470 q 351 570 432 570 q 279 555 310 570 q 227 513 248 539 q 194 453 205 488 q 181 382 182 419 l 512 382 z "},"f":{"ha":424,"x_min":25,"x_max":438,"o":"m 438 878 q 437 858 438 865 q 434 845 435 850 q 429 839 432 840 q 422 837 427 837 q 411 840 418 837 q 393 847 404 843 q 369 853 383 850 q 337 857 355 857 q 294 848 312 857 q 266 823 277 840 q 250 778 255 806 q 245 711 245 751 l 245 645 l 382 645 q 391 643 387 645 q 398 634 395 640 q 402 620 401 629 q 404 598 404 611 q 398 563 404 574 q 382 552 392 552 l 245 552 l 245 17 q 243 8 245 12 q 234 1 240 4 q 216 -3 227 -1 q 189 -4 205 -4 q 162 -3 173 -4 q 145 1 151 -1 q 136 8 138 4 q 133 17 133 12 l 133 552 l 47 552 q 31 563 36 552 q 25 598 25 574 q 26 620 25 611 q 31 634 28 629 q 37 643 33 640 q 47 645 41 645 l 133 645 l 133 708 q 145 818 133 772 q 181 892 157 863 q 242 936 205 922 q 330 949 279 949 q 376 945 353 949 q 410 936 398 941 q 427 926 422 930 q 433 916 431 922 q 437 900 436 909 q 438 878 438 891 z "},"ﬀ":{"ha":810,"x_min":25,"x_max":825,"o":"m 825 879 q 821 848 825 857 q 809 838 818 838 q 797 841 804 838 q 779 847 789 844 q 755 854 768 851 q 724 857 741 857 q 653 823 673 857 q 632 712 632 788 l 632 645 l 768 645 q 778 643 774 645 q 785 634 782 640 q 789 620 788 629 q 791 598 791 611 q 785 563 791 574 q 768 552 779 552 l 632 552 l 632 17 q 629 8 632 12 q 620 1 627 4 q 603 -3 614 -1 q 576 -4 592 -4 q 549 -3 559 -4 q 531 1 538 -1 q 522 8 525 4 q 519 17 519 12 l 519 552 l 245 552 l 245 17 q 243 8 245 12 q 234 1 240 4 q 216 -3 227 -1 q 189 -4 205 -4 q 162 -3 173 -4 q 145 1 151 -1 q 136 8 138 4 q 133 17 133 12 l 133 552 l 47 552 q 31 563 36 552 q 25 598 25 574 q 26 620 25 611 q 31 634 28 629 q 37 643 33 640 q 47 645 41 645 l 133 645 l 133 703 q 145 811 133 766 q 182 885 157 856 q 242 928 206 914 q 327 942 279 942 q 379 937 357 942 q 416 926 401 932 q 427 919 422 923 q 433 908 431 915 q 437 893 436 902 q 438 871 438 884 q 435 839 438 849 q 422 829 431 829 q 410 832 417 829 q 392 839 403 836 q 368 846 381 843 q 336 849 354 849 q 266 814 286 849 q 245 704 245 780 l 245 645 l 519 645 l 519 711 q 532 819 519 774 q 569 893 545 864 q 630 936 593 922 q 714 950 666 950 q 766 945 743 950 q 803 934 789 940 q 813 927 809 931 q 820 917 818 923 q 824 901 823 910 q 825 879 825 892 z "},"ﬁ":{"ha":735,"x_min":25,"x_max":644,"o":"m 644 833 q 641 801 644 814 q 631 780 638 788 q 610 769 623 772 q 576 766 597 766 q 544 769 557 766 q 523 780 530 772 q 511 801 515 788 q 508 833 508 814 q 511 864 508 852 q 523 885 515 877 q 544 897 530 894 q 576 900 557 900 q 610 897 597 900 q 631 885 623 894 q 641 864 638 877 q 644 833 644 852 m 632 17 q 629 8 632 12 q 620 1 627 4 q 603 -3 614 -1 q 576 -4 592 -4 q 549 -3 559 -4 q 531 1 538 -1 q 522 8 525 4 q 519 17 519 12 l 519 552 l 245 552 l 245 17 q 243 8 245 12 q 234 1 240 4 q 216 -3 227 -1 q 189 -4 205 -4 q 162 -3 173 -4 q 145 1 151 -1 q 136 8 138 4 q 133 17 133 12 l 133 552 l 47 552 q 31 563 36 552 q 25 598 25 574 q 26 620 25 611 q 31 634 28 629 q 37 643 33 640 q 47 645 41 645 l 133 645 l 133 711 q 145 819 133 774 q 181 893 157 864 q 241 936 205 922 q 323 950 277 950 q 353 949 338 950 q 380 945 368 947 q 401 939 392 942 q 414 932 410 936 q 419 925 417 929 q 422 916 421 922 q 425 903 424 911 q 425 883 425 895 q 422 852 425 861 q 410 842 418 842 q 399 845 405 842 q 385 850 393 847 q 363 855 376 852 q 332 857 351 857 q 265 823 285 857 q 245 712 245 788 l 245 645 l 597 645 q 624 636 615 645 q 632 610 632 627 l 632 17 z "},"ﬃ":{"ha":1122,"x_min":25,"x_max":1031,"o":"m 1031 833 q 1028 801 1031 814 q 1018 780 1025 788 q 997 769 1010 772 q 963 766 983 766 q 930 769 943 766 q 909 780 917 772 q 898 801 901 788 q 895 833 895 814 q 898 864 895 852 q 909 885 901 877 q 930 897 917 894 q 963 900 943 900 q 997 897 983 900 q 1018 885 1010 894 q 1028 864 1025 877 q 1031 833 1031 852 m 1019 17 q 1017 8 1019 12 q 1007 1 1014 4 q 990 -3 1001 -1 q 962 -4 979 -4 q 936 -3 947 -4 q 918 1 924 -1 q 909 8 911 4 q 907 17 907 12 l 907 552 l 632 552 l 632 17 q 629 8 632 12 q 620 1 627 4 q 603 -3 614 -1 q 576 -4 592 -4 q 549 -3 559 -4 q 531 1 538 -1 q 522 8 525 4 q 519 17 519 12 l 519 552 l 245 552 l 245 17 q 243 8 245 12 q 234 1 240 4 q 216 -3 227 -1 q 189 -4 205 -4 q 162 -3 173 -4 q 145 1 151 -1 q 136 8 138 4 q 133 17 133 12 l 133 552 l 47 552 q 31 563 36 552 q 25 598 25 574 q 26 620 25 611 q 31 634 28 629 q 37 643 33 640 q 47 645 41 645 l 133 645 l 133 703 q 145 811 133 766 q 182 885 157 856 q 242 928 206 914 q 327 942 279 942 q 379 937 357 942 q 412 927 401 932 q 427 919 422 923 q 433 908 431 915 q 437 893 436 902 q 438 871 438 884 q 435 839 438 849 q 422 829 431 829 q 410 832 417 829 q 392 839 403 836 q 367 846 381 843 q 336 849 353 849 q 266 814 286 849 q 245 704 245 780 l 245 645 l 519 645 l 519 711 q 532 819 519 774 q 568 893 545 864 q 628 936 592 922 q 709 950 663 950 q 740 949 724 950 q 767 945 755 947 q 788 939 779 942 q 800 932 797 936 q 806 925 804 929 q 809 916 808 922 q 812 903 811 911 q 812 883 812 895 q 809 852 812 861 q 797 842 806 842 q 786 845 792 842 q 771 850 780 847 q 750 855 763 852 q 719 857 737 857 q 652 823 672 857 q 632 712 632 788 l 632 645 l 984 645 q 1010 636 1002 645 q 1019 610 1019 627 l 1019 17 z "},"ﬂ":{"ha":735,"x_min":25,"x_max":632,"o":"m 632 17 q 629 8 632 12 q 620 1 627 4 q 603 -3 614 -1 q 576 -4 592 -4 q 549 -3 559 -4 q 531 1 538 -1 q 522 8 525 4 q 519 17 519 12 l 519 845 q 515 842 518 843 q 508 841 513 841 q 484 845 500 841 q 450 851 468 848 q 416 855 432 854 q 385 857 399 857 q 315 848 342 857 q 273 822 288 840 q 251 777 257 804 q 245 711 245 749 l 245 645 l 371 645 q 380 643 376 645 q 388 634 385 640 q 392 620 391 629 q 393 598 393 611 q 388 563 393 574 q 371 552 382 552 l 245 552 l 245 17 q 243 8 245 12 q 234 1 240 4 q 216 -3 227 -1 q 189 -4 205 -4 q 162 -3 173 -4 q 145 1 151 -1 q 136 8 138 4 q 133 17 133 12 l 133 552 l 47 552 q 31 563 36 552 q 25 598 25 574 q 26 620 25 611 q 31 634 28 629 q 37 643 33 640 q 47 645 41 645 l 133 645 l 133 710 q 147 819 133 773 q 191 893 161 864 q 266 936 220 922 q 374 949 311 949 q 411 948 392 949 q 448 944 430 947 q 479 940 466 942 q 500 935 492 937 q 513 929 508 932 q 519 920 517 926 q 523 931 520 927 q 531 939 525 935 q 547 943 536 942 q 576 945 558 945 q 603 943 592 945 q 620 939 614 942 q 629 932 627 937 q 632 923 632 928 l 632 17 z "},"ﬄ":{"ha":1122,"x_min":25,"x_max":1019,"o":"m 1019 17 q 1017 8 1019 12 q 1007 1 1014 4 q 990 -3 1001 -1 q 962 -4 979 -4 q 936 -3 947 -4 q 918 1 924 -1 q 909 8 911 4 q 907 17 907 12 l 907 846 q 902 843 905 844 q 895 842 899 842 q 870 845 886 842 q 837 852 854 849 q 802 856 819 854 q 772 857 786 857 q 703 849 730 857 q 660 822 675 840 q 638 777 644 804 q 632 712 632 749 l 632 645 l 758 645 q 767 643 764 645 q 774 634 771 640 q 779 620 777 629 q 780 598 780 611 q 774 563 780 574 q 758 552 768 552 l 632 552 l 632 17 q 629 8 632 12 q 620 1 627 4 q 603 -3 614 -1 q 576 -4 592 -4 q 549 -3 559 -4 q 531 1 538 -1 q 522 8 525 4 q 519 17 519 12 l 519 552 l 245 552 l 245 17 q 243 8 245 12 q 234 1 240 4 q 216 -3 227 -1 q 189 -4 205 -4 q 162 -3 173 -4 q 145 1 151 -1 q 136 8 138 4 q 133 17 133 12 l 133 552 l 47 552 q 31 563 36 552 q 25 598 25 574 q 26 620 25 611 q 31 634 28 629 q 37 643 33 640 q 47 645 41 645 l 133 645 l 133 703 q 145 811 133 766 q 182 885 157 856 q 242 928 206 914 q 327 942 279 942 q 379 937 357 942 q 412 927 401 932 q 427 919 422 923 q 433 908 431 915 q 437 893 436 902 q 438 871 438 884 q 435 839 438 849 q 422 829 431 829 q 410 832 417 829 q 392 839 403 836 q 368 846 381 843 q 336 849 354 849 q 266 814 286 849 q 245 704 245 780 l 245 645 l 519 645 l 519 711 q 534 819 519 774 q 577 893 548 864 q 652 936 607 922 q 761 950 698 950 q 798 949 779 950 q 834 945 817 947 q 866 940 852 943 q 887 936 880 938 q 899 930 895 933 q 907 920 904 926 q 909 931 907 927 q 918 939 911 935 q 935 943 924 942 q 962 945 945 945 q 990 943 979 945 q 1007 939 1001 942 q 1017 932 1014 937 q 1019 923 1019 928 l 1019 17 z "},"g":{"ha":654,"x_min":36,"x_max":614,"o":"m 614 600 q 607 565 614 576 q 591 555 601 555 l 503 555 q 536 501 527 530 q 546 439 546 471 q 529 346 546 387 q 480 277 512 305 q 406 234 449 249 q 309 219 362 219 q 238 229 272 219 q 186 254 205 239 q 166 226 174 241 q 159 190 159 210 q 181 151 159 166 q 239 134 203 135 l 399 127 q 482 114 444 125 q 548 82 520 103 q 591 32 576 62 q 607 -39 607 1 q 589 -119 607 -81 q 535 -185 572 -157 q 443 -231 499 -214 q 310 -248 387 -248 q 184 -235 236 -248 q 99 -201 132 -222 q 51 -149 66 -179 q 36 -83 36 -119 q 41 -40 36 -61 q 58 0 47 -19 q 86 36 69 19 q 124 71 102 54 q 75 113 91 87 q 59 169 59 139 q 76 243 59 210 q 118 301 93 275 q 85 358 97 326 q 73 434 73 389 q 90 528 73 486 q 139 597 108 569 q 214 641 170 626 q 309 656 258 656 q 361 653 337 656 q 406 645 385 650 l 591 645 q 608 634 602 645 q 614 600 614 623 m 439 439 q 405 536 439 501 q 307 571 370 571 q 251 560 275 571 q 211 530 227 549 q 187 487 195 511 q 179 435 179 462 q 213 340 179 374 q 309 305 248 305 q 367 316 342 305 q 407 345 391 326 q 431 388 423 363 q 439 439 439 412 m 495 -45 q 463 16 495 -5 q 376 39 431 37 l 218 44 q 182 12 196 27 q 160 -17 168 -3 q 149 -45 152 -31 q 146 -73 146 -58 q 191 -139 146 -117 q 315 -162 235 -162 q 400 -152 366 -162 q 456 -126 435 -142 q 486 -89 477 -110 q 495 -45 495 -68 z "},"ĝ":{"ha":654,"x_min":36,"x_max":614,"o":"m 614 600 q 607 565 614 576 q 591 555 601 555 l 503 555 q 536 501 527 530 q 546 439 546 471 q 529 346 546 387 q 480 277 512 305 q 406 234 449 249 q 309 219 362 219 q 238 229 272 219 q 186 254 205 239 q 166 226 174 241 q 159 190 159 210 q 181 151 159 166 q 239 134 203 135 l 399 127 q 482 114 444 125 q 548 82 520 103 q 591 32 576 62 q 607 -39 607 1 q 589 -119 607 -81 q 535 -185 572 -157 q 443 -231 499 -214 q 310 -248 387 -248 q 184 -235 236 -248 q 99 -201 132 -222 q 51 -149 66 -179 q 36 -83 36 -119 q 41 -40 36 -61 q 58 0 47 -19 q 86 36 69 19 q 124 71 102 54 q 75 113 91 87 q 59 169 59 139 q 76 243 59 210 q 118 301 93 275 q 85 358 97 326 q 73 434 73 389 q 90 528 73 486 q 139 597 108 569 q 214 641 170 626 q 309 656 258 656 q 361 653 337 656 q 406 645 385 650 l 591 645 q 608 634 602 645 q 614 600 614 623 m 439 439 q 405 536 439 501 q 307 571 370 571 q 251 560 275 571 q 211 530 227 549 q 187 487 195 511 q 179 435 179 462 q 213 340 179 374 q 309 305 248 305 q 367 316 342 305 q 407 345 391 326 q 431 388 423 363 q 439 439 439 412 m 495 -45 q 463 16 495 -5 q 376 39 431 37 l 218 44 q 182 12 196 27 q 160 -17 168 -3 q 149 -45 152 -31 q 146 -73 146 -58 q 191 -139 146 -117 q 315 -162 235 -162 q 400 -152 366 -162 q 456 -126 435 -142 q 486 -89 477 -110 q 495 -45 495 -68 m 239 760 q 231 750 235 753 q 221 744 227 746 q 207 741 215 742 q 185 740 198 740 q 157 742 167 740 q 144 749 147 745 q 143 761 140 753 q 154 778 146 768 l 266 933 q 274 942 269 939 q 286 947 279 945 q 303 950 293 949 q 329 951 314 951 q 353 950 343 951 q 369 946 362 949 q 380 941 376 944 q 388 933 385 938 l 500 778 q 510 761 507 768 q 510 749 513 753 q 496 742 507 745 q 469 740 486 740 q 446 741 454 740 q 432 744 437 742 q 423 750 427 746 q 415 760 420 754 l 327 882 l 239 760 m 53 645 z "},"ğ":{"ha":654,"x_min":36,"x_max":614,"o":"m 614 600 q 607 565 614 576 q 591 555 601 555 l 503 555 q 536 501 527 530 q 546 439 546 471 q 529 346 546 387 q 480 277 512 305 q 406 234 449 249 q 309 219 362 219 q 238 229 272 219 q 186 254 205 239 q 166 226 174 241 q 159 190 159 210 q 181 151 159 166 q 239 134 203 135 l 399 127 q 482 114 444 125 q 548 82 520 103 q 591 32 576 62 q 607 -39 607 1 q 589 -119 607 -81 q 535 -185 572 -157 q 443 -231 499 -214 q 310 -248 387 -248 q 184 -235 236 -248 q 99 -201 132 -222 q 51 -149 66 -179 q 36 -83 36 -119 q 41 -40 36 -61 q 58 0 47 -19 q 86 36 69 19 q 124 71 102 54 q 75 113 91 87 q 59 169 59 139 q 76 243 59 210 q 118 301 93 275 q 85 358 97 326 q 73 434 73 389 q 90 528 73 486 q 139 597 108 569 q 214 641 170 626 q 309 656 258 656 q 361 653 337 656 q 406 645 385 650 l 591 645 q 608 634 602 645 q 614 600 614 623 m 439 439 q 405 536 439 501 q 307 571 370 571 q 251 560 275 571 q 211 530 227 549 q 187 487 195 511 q 179 435 179 462 q 213 340 179 374 q 309 305 248 305 q 367 316 342 305 q 407 345 391 326 q 431 388 423 363 q 439 439 439 412 m 495 -45 q 463 16 495 -5 q 376 39 431 37 l 218 44 q 182 12 196 27 q 160 -17 168 -3 q 149 -45 152 -31 q 146 -73 146 -58 q 191 -139 146 -117 q 315 -162 235 -162 q 400 -152 366 -162 q 456 -126 435 -142 q 486 -89 477 -110 q 495 -45 495 -68 m 422 926 q 431 941 422 936 q 462 946 439 946 q 483 945 475 946 q 495 942 490 944 q 501 936 499 939 q 503 927 503 932 q 491 847 503 881 q 458 789 480 812 q 403 755 436 766 q 327 743 370 743 q 248 755 281 743 q 194 791 215 768 q 162 848 172 814 q 153 925 153 882 q 161 941 153 936 q 192 946 169 946 q 212 945 204 946 q 224 941 220 943 q 231 935 229 939 q 233 926 233 931 q 240 883 235 903 q 257 850 246 864 q 286 830 269 837 q 327 823 303 823 q 364 828 347 823 q 394 847 381 834 q 414 879 406 859 q 422 926 421 898 m 63 645 z "},"ġ":{"ha":654,"x_min":36,"x_max":614,"o":"m 614 600 q 607 565 614 576 q 591 555 601 555 l 503 555 q 536 501 527 530 q 546 439 546 471 q 529 346 546 387 q 480 277 512 305 q 406 234 449 249 q 309 219 362 219 q 238 229 272 219 q 186 254 205 239 q 166 226 174 241 q 159 190 159 210 q 181 151 159 166 q 239 134 203 135 l 399 127 q 482 114 444 125 q 548 82 520 103 q 591 32 576 62 q 607 -39 607 1 q 589 -119 607 -81 q 535 -185 572 -157 q 443 -231 499 -214 q 310 -248 387 -248 q 184 -235 236 -248 q 99 -201 132 -222 q 51 -149 66 -179 q 36 -83 36 -119 q 41 -40 36 -61 q 58 0 47 -19 q 86 36 69 19 q 124 71 102 54 q 75 113 91 87 q 59 169 59 139 q 76 243 59 210 q 118 301 93 275 q 85 358 97 326 q 73 434 73 389 q 90 528 73 486 q 139 597 108 569 q 214 641 170 626 q 309 656 258 656 q 361 653 337 656 q 406 645 385 650 l 591 645 q 608 634 602 645 q 614 600 614 623 m 439 439 q 405 536 439 501 q 307 571 370 571 q 251 560 275 571 q 211 530 227 549 q 187 487 195 511 q 179 435 179 462 q 213 340 179 374 q 309 305 248 305 q 367 316 342 305 q 407 345 391 326 q 431 388 423 363 q 439 439 439 412 m 495 -45 q 463 16 495 -5 q 376 39 431 37 l 218 44 q 182 12 196 27 q 160 -17 168 -3 q 149 -45 152 -31 q 146 -73 146 -58 q 191 -139 146 -117 q 315 -162 235 -162 q 400 -152 366 -162 q 456 -126 435 -142 q 486 -89 477 -110 q 495 -45 495 -68 m 397 836 q 382 783 397 798 q 328 769 367 769 q 276 783 290 769 q 262 833 262 797 q 276 886 262 871 q 330 900 291 900 q 382 886 368 900 q 397 836 397 872 m 172 645 z "},"ģ":{"ha":654,"x_min":36,"x_max":614,"o":"m 614 600 q 607 565 614 576 q 591 555 601 555 l 503 555 q 536 501 527 530 q 546 439 546 471 q 529 346 546 387 q 480 277 512 305 q 406 234 449 249 q 309 219 362 219 q 238 229 272 219 q 186 254 205 239 q 166 226 174 241 q 159 190 159 210 q 181 151 159 166 q 239 134 203 135 l 399 127 q 482 114 444 125 q 548 82 520 103 q 591 32 576 62 q 607 -39 607 1 q 589 -119 607 -81 q 535 -185 572 -157 q 443 -231 499 -214 q 310 -248 387 -248 q 184 -235 236 -248 q 99 -201 132 -222 q 51 -149 66 -179 q 36 -83 36 -119 q 41 -40 36 -61 q 58 0 47 -19 q 86 36 69 19 q 124 71 102 54 q 75 113 91 87 q 59 169 59 139 q 76 243 59 210 q 118 301 93 275 q 85 358 97 326 q 73 434 73 389 q 90 528 73 486 q 139 597 108 569 q 214 641 170 626 q 309 656 258 656 q 361 653 337 656 q 406 645 385 650 l 591 645 q 608 634 602 645 q 614 600 614 623 m 439 439 q 405 536 439 501 q 307 571 370 571 q 251 560 275 571 q 211 530 227 549 q 187 487 195 511 q 179 435 179 462 q 213 340 179 374 q 309 305 248 305 q 367 316 342 305 q 407 345 391 326 q 431 388 423 363 q 439 439 439 412 m 495 -45 q 463 16 495 -5 q 376 39 431 37 l 218 44 q 182 12 196 27 q 160 -17 168 -3 q 149 -45 152 -31 q 146 -73 146 -58 q 191 -139 146 -117 q 315 -162 235 -162 q 400 -152 366 -162 q 456 -126 435 -142 q 486 -89 477 -110 q 495 -45 495 -68 m 376 747 q 368 736 372 741 q 356 728 363 731 q 337 725 349 726 q 309 724 326 724 q 279 726 290 724 q 263 732 268 728 q 258 742 258 736 q 264 754 259 747 l 361 918 q 370 928 365 924 q 382 935 375 932 q 400 938 389 937 q 425 939 410 939 q 445 937 437 939 q 456 931 452 935 q 460 922 460 928 q 456 910 460 917 l 376 747 m 169 645 z "},"h":{"ha":730,"x_min":104,"x_max":629,"o":"m 629 17 q 627 8 629 12 q 618 1 624 4 q 601 -3 612 -1 q 574 -4 590 -4 q 546 -3 557 -4 q 529 1 535 -1 q 520 8 523 4 q 517 17 517 12 l 517 374 q 509 458 517 427 q 486 513 501 490 q 445 549 470 536 q 388 561 420 561 q 304 531 346 561 q 216 444 262 501 l 216 17 q 213 8 216 12 q 204 1 210 4 q 187 -3 198 -1 q 159 -4 176 -4 q 132 -3 143 -4 q 115 1 121 -1 q 106 8 109 4 q 104 17 104 12 l 104 923 q 106 932 104 928 q 115 939 109 937 q 132 943 121 942 q 159 945 143 945 q 187 943 176 945 q 204 939 198 942 q 213 932 210 937 q 216 923 216 928 l 216 557 q 313 633 264 608 q 411 658 361 658 q 514 637 472 658 q 581 582 555 616 q 618 501 607 547 q 629 389 629 454 l 629 17 z "},"ĥ":{"ha":730,"x_min":-56,"x_max":629,"o":"m 629 17 q 627 8 629 12 q 618 1 624 4 q 601 -3 612 -1 q 574 -4 590 -4 q 546 -3 557 -4 q 529 1 535 -1 q 520 8 523 4 q 517 17 517 12 l 517 374 q 509 458 517 427 q 486 513 501 490 q 445 549 470 536 q 388 561 420 561 q 304 531 346 561 q 216 444 262 501 l 216 17 q 213 8 216 12 q 204 1 210 4 q 187 -3 198 -1 q 159 -4 176 -4 q 132 -3 143 -4 q 115 1 121 -1 q 106 8 109 4 q 104 17 104 12 l 104 858 q 106 867 104 863 q 115 874 109 871 q 132 878 121 877 q 159 880 143 880 q 187 878 176 880 q 204 874 198 877 q 213 867 210 871 q 216 858 216 863 l 216 557 q 313 633 264 608 q 411 658 361 658 q 514 637 472 658 q 581 582 555 616 q 618 501 607 547 q 629 389 629 454 l 629 17 m 170 1145 q 195 1145 185 1145 q 211 1142 204 1144 q 223 1136 218 1139 q 234 1126 229 1132 l 380 972 q 387 960 386 965 q 384 952 388 955 q 371 947 380 949 q 347 946 361 946 q 314 947 326 946 q 294 950 302 948 q 282 955 287 951 q 274 961 278 958 l 170 1078 l 62 964 q 52 955 57 959 q 38 949 46 951 q 17 947 29 947 q -14 946 5 946 q -39 948 -30 946 q -53 952 -49 949 q -55 960 -56 956 q -47 972 -54 965 l 105 1126 q 116 1136 111 1132 q 129 1142 121 1139 q 146 1145 136 1144 q 170 1145 157 1145 z "},"ħ":{"ha":740,"x_min":-5,"x_max":640,"o":"m 640 17 q 637 8 640 12 q 628 1 634 4 q 611 -3 622 -1 q 584 -4 600 -4 q 556 -3 566 -4 q 539 1 545 -1 q 530 8 532 4 q 528 17 528 12 l 528 366 q 520 451 528 419 q 496 506 512 483 q 455 541 480 529 q 398 553 431 553 q 314 524 356 553 q 226 436 273 494 l 226 17 q 223 8 226 12 q 214 1 220 4 q 197 -3 208 -1 q 170 -4 186 -4 q 142 -3 153 -4 q 125 1 132 -1 q 116 8 119 4 q 114 17 114 12 l 114 748 l 18 748 q 9 750 13 748 q 2 758 5 753 q -3 772 -1 764 q -5 792 -5 781 q -3 813 -5 804 q 2 827 -1 821 q 9 834 5 832 q 18 836 13 836 l 114 836 l 114 924 q 116 933 114 929 q 125 940 119 937 q 142 944 132 943 q 170 945 153 945 q 197 944 186 945 q 214 940 208 943 q 223 933 220 937 q 226 924 226 929 l 226 836 l 388 836 q 397 834 393 836 q 405 827 401 832 q 409 813 408 821 q 410 792 410 804 q 409 772 410 781 q 405 758 408 764 q 397 750 401 753 q 388 748 393 748 l 226 748 l 226 549 q 323 626 275 602 q 421 650 372 650 q 524 629 482 650 q 591 574 566 609 q 628 493 617 539 q 640 381 640 447 l 640 17 z "},"i":{"ha":319,"x_min":90,"x_max":229,"o":"m 216 17 q 213 8 216 12 q 204 1 210 4 q 187 -3 198 -1 q 159 -4 176 -4 q 132 -3 143 -4 q 115 1 121 -1 q 106 8 109 4 q 104 17 104 12 l 104 627 q 106 636 104 632 q 115 643 109 640 q 132 647 121 646 q 159 648 143 648 q 187 647 176 648 q 204 643 198 646 q 213 636 210 640 q 216 627 216 632 l 216 17 m 229 833 q 214 780 229 794 q 159 766 199 766 q 105 780 119 766 q 90 832 90 793 q 105 886 90 871 q 160 900 120 900 q 214 886 199 900 q 229 833 229 872 z "},"ì":{"ha":319,"x_min":-99,"x_max":217,"o":"m 216 17 q 213 8 216 12 q 204 1 210 4 q 187 -3 198 -1 q 159 -4 176 -4 q 132 -3 143 -4 q 115 1 121 -1 q 106 8 109 4 q 104 17 104 12 l 104 627 q 106 636 104 633 q 115 643 109 640 q 132 647 121 646 q 159 648 143 648 q 187 647 176 648 q 204 643 198 646 q 213 636 210 640 q 216 627 216 633 l 216 17 m 210 769 q 216 756 214 762 q 213 747 217 751 q 201 742 210 744 q 178 740 193 740 q 155 741 164 740 q 140 744 146 742 q 129 751 134 747 q 119 762 124 755 l -3 920 q -9 931 -9 926 q -5 942 -10 937 q 11 948 -1 946 q 42 951 23 951 q 70 949 58 951 q 88 945 81 948 q 101 938 96 943 q 112 926 106 933 l 210 769 m -99 645 z "},"í":{"ha":319,"x_min":10,"x_max":326,"o":"m 216 17 q 213 8 216 12 q 204 1 210 4 q 187 -3 198 -1 q 159 -4 176 -4 q 132 -3 143 -4 q 115 1 121 -1 q 106 8 109 4 q 104 17 104 12 l 104 627 q 106 636 104 633 q 115 643 109 640 q 132 647 121 646 q 159 648 143 648 q 187 647 176 648 q 204 643 198 646 q 213 636 210 640 q 216 627 216 633 l 216 17 m 204 926 q 214 938 208 933 q 227 945 219 943 q 246 949 235 948 q 274 951 258 951 q 305 948 293 951 q 321 942 317 946 q 326 931 326 937 q 319 920 325 926 l 197 762 q 187 751 191 755 q 177 744 182 747 q 162 741 171 742 q 139 740 153 740 q 115 742 124 740 q 103 747 106 744 q 100 756 99 751 q 106 769 101 762 l 204 926 m 10 645 z "},"î":{"ha":319,"x_min":-113,"x_max":347,"o":"m 216 17 q 213 8 216 12 q 204 1 210 4 q 187 -3 198 -1 q 159 -4 176 -4 q 132 -3 143 -4 q 115 1 121 -1 q 106 8 109 4 q 104 17 104 12 l 104 627 q 106 636 104 633 q 115 643 109 640 q 132 647 121 646 q 159 648 143 648 q 187 647 176 648 q 204 643 198 646 q 213 636 210 640 q 216 627 216 633 l 216 17 m 73 760 q 65 750 69 753 q 55 744 61 746 q 41 741 50 742 q 20 740 33 740 q -8 742 1 740 q -22 749 -18 745 q -22 761 -25 753 q -12 778 -20 768 l 100 933 q 109 942 104 939 q 120 947 113 945 q 138 950 127 949 q 163 951 149 951 q 187 950 178 951 q 203 946 197 949 q 215 941 210 944 q 222 933 219 938 l 334 778 q 345 761 342 768 q 344 749 347 753 q 331 742 341 745 q 303 740 321 740 q 280 741 289 740 q 267 744 272 742 q 258 750 261 746 q 250 760 254 754 l 161 882 l 73 760 m -113 645 z "},"ĩ":{"ha":319,"x_min":-152,"x_max":387,"o":"m 216 17 q 213 8 216 12 q 204 1 210 4 q 187 -3 198 -1 q 159 -4 176 -4 q 132 -3 143 -4 q 115 1 121 -1 q 106 8 109 4 q 104 17 104 12 l 104 627 q 106 636 104 633 q 115 643 109 640 q 132 647 121 646 q 159 648 143 648 q 187 647 176 648 q 204 643 198 646 q 213 636 210 640 q 216 627 216 633 l 216 17 m 387 891 q 351 781 387 819 q 256 743 316 743 q 211 750 231 743 q 175 766 191 756 q 145 788 159 777 q 118 810 132 800 q 92 826 105 820 q 64 833 79 833 q 26 813 37 833 q 16 761 16 793 q 14 752 16 756 q 8 747 13 749 q -4 744 4 745 q -26 743 -13 743 q -44 744 -37 743 q -56 748 -52 745 q -62 757 -60 751 q -64 772 -64 763 q -31 879 -64 839 q 66 919 3 919 q 130 905 103 919 q 177 874 156 891 q 217 844 199 858 q 258 829 236 829 q 295 847 282 829 q 307 901 307 865 q 314 915 307 911 q 345 919 321 919 q 378 914 370 919 q 387 891 387 909 m -152 645 z "},"ï":{"ha":319,"x_min":-96,"x_max":328,"o":"m 216 17 q 213 8 216 12 q 204 1 210 4 q 187 -3 198 -1 q 159 -4 176 -4 q 132 -3 143 -4 q 115 1 121 -1 q 106 8 109 4 q 104 17 104 12 l 104 627 q 106 636 104 633 q 115 643 109 640 q 132 647 121 646 q 159 648 143 648 q 187 647 176 648 q 204 643 198 646 q 213 636 210 640 q 216 627 216 633 l 216 17 m 117 825 q 103 775 117 789 q 54 761 90 761 q 6 774 19 761 q -7 823 -7 787 q 6 874 -7 861 q 55 888 20 888 q 103 875 90 888 q 117 825 117 861 m 328 825 q 314 775 328 789 q 265 761 300 761 q 217 774 230 761 q 204 823 204 787 q 217 874 204 861 q 265 888 231 888 q 314 875 301 888 q 328 825 328 861 m -96 645 z "},"ī":{"ha":319,"x_min":-114,"x_max":345,"o":"m 216 17 q 213 8 216 12 q 204 1 210 4 q 187 -3 198 -1 q 159 -4 176 -4 q 132 -3 143 -4 q 115 1 121 -1 q 106 8 109 4 q 104 17 104 12 l 104 627 q 106 636 104 633 q 115 643 109 640 q 132 647 121 646 q 159 648 143 648 q 187 647 176 648 q 204 643 198 646 q 213 636 210 640 q 216 627 216 633 l 216 17 m 323 877 q 332 874 328 877 q 339 867 336 872 q 343 853 341 862 q 345 833 345 845 q 343 813 345 821 q 339 800 341 806 q 332 792 336 795 q 323 789 328 789 l -2 789 q -12 792 -7 789 q -19 800 -16 795 q -23 813 -22 806 q -24 833 -24 821 q -23 853 -24 845 q -19 867 -22 862 q -12 874 -16 872 q -2 877 -7 877 l 323 877 m -114 645 z "},"ĭ":{"ha":319,"x_min":-104,"x_max":336,"o":"m 216 17 q 213 8 216 12 q 204 1 210 4 q 187 -3 198 -1 q 159 -4 176 -4 q 132 -3 143 -4 q 115 1 121 -1 q 106 8 109 4 q 104 17 104 12 l 104 627 q 106 636 104 633 q 115 643 109 640 q 132 647 121 646 q 159 648 143 648 q 187 647 176 648 q 204 643 198 646 q 213 636 210 640 q 216 627 216 633 l 216 17 m 256 926 q 264 941 256 936 q 295 946 272 946 q 316 945 308 946 q 328 942 323 944 q 334 936 332 939 q 336 927 336 932 q 325 847 336 881 q 291 789 313 812 q 236 755 269 766 q 160 743 203 743 q 81 755 114 743 q 27 791 48 768 q -4 848 5 814 q -14 925 -14 882 q -6 941 -14 936 q 25 946 2 946 q 45 945 37 946 q 57 941 53 943 q 64 935 62 939 q 66 926 66 931 q 74 883 68 903 q 91 850 79 864 q 119 830 102 837 q 160 823 136 823 q 197 828 180 823 q 227 847 214 834 q 247 879 239 859 q 256 926 254 898 m -104 645 z "}}}
